SeanSlab-CompressedRegular.ufo
<glyph name="exclam" format="1">
  <advance width="235"/>
  <unicode hex="0021"/>
  <outline>
    <contour>
      <point x="156" y="229" type="line"/>
      <point x="161" y="722" type="line"/>
      <point x="75" y="722" type="line"/>
      <point x="80" y="229" type="line"/>
    </contour>
    <contour>
      <point x="158" y="33" type="curve"/>
      <point x="158" y="59"/>
      <point x="141" y="73"/>
      <point x="118" y="73" type="curve"/>
      <point x="93" y="73"/>
      <point x="78" y="58"/>
      <point x="78" y="33" type="curve"/>
      <point x="160" y="33"/>
      <point x="76" y="33"/>
      <point x="158" y="33" type="curve"/>
      <point x="158" y="6"/>
      <point x="142" y="-7"/>
      <point x="118" y="-7" type="curve"/>
      <point x="93" y="-7"/>
      <point x="78" y="7"/>
      <point x="78" y="33" type="curve"/>
      <point x="160" y="33"/>
      <point x="76" y="33"/>
    </contour>
  </outline>
</glyph>
<glyph name="quotedbl" format="1">
  <advance width="363"/>
  <unicode hex="0022"/>
  <outline>
    <contour>
      <point x="142" y="564" type="line"/>
      <point x="148" y="763" type="line"/>
      <point x="73" y="763" type="line"/>
      <point x="79" y="564" type="line"/>
    </contour>
    <contour>
      <point x="284" y="564" type="line"/>
      <point x="290" y="763" type="line"/>
      <point x="215" y="763" type="line"/>
      <point x="221" y="564" type="line"/>
    </contour>
  </outline>
</glyph>
<glyph name="numbersign" format="1">
  <advance width="487"/>
  <unicode hex="0023"/>
  <outline>
    <contour>
      <point x="45" y="235" type="line"/>
      <point x="386" y="235" type="line"/>
      <point x="399" y="294" type="line"/>
      <point x="58" y="294" type="line"/>
    </contour>
    <contour>
      <point x="88" y="466" type="line"/>
      <point x="430" y="466" type="line"/>
      <point x="443" y="524" type="line"/>
      <point x="100" y="524" type="line"/>
    </contour>
    <contour>
      <point x="295" y="39" type="line"/>
      <point x="431" y="722" type="line"/>
      <point x="359" y="722" type="line"/>
      <point x="222" y="39" type="line"/>
    </contour>
    <contour>
      <point x="129" y="46" type="line"/>
      <point x="264" y="722" type="line"/>
      <point x="191" y="722" type="line"/>
      <point x="59" y="46" type="line"/>
    </contour>
  </outline>
</glyph>
<glyph name="dollar" format="1">
  <advance width="419"/>
  <unicode hex="0024"/>
  <outline>
    <contour>
      <point x="120" y="96" type="curve"/>
      <point x="120" y="216"/>
      <point x="120" y="94"/>
      <point x="120" y="214" type="curve"/>
      <point x="60" y="214"/>
      <point x="120" y="214"/>
      <point x="60" y="214" type="curve"/>
      <point x="60" y="94"/>
      <point x="60" y="216"/>
      <point x="60" y="96" type="curve"/>
      <point x="120" y="96"/>
      <point x="60" y="96"/>
    </contour>
    <contour>
      <point x="287" y="633" type="curve"/>
      <point x="287" y="513"/>
      <point x="287" y="635"/>
      <point x="287" y="515" type="curve"/>
      <point x="346" y="515"/>
      <point x="287" y="515"/>
      <point x="346" y="515" type="curve"/>
      <point x="346" y="635"/>
      <point x="346" y="513"/>
      <point x="346" y="633" type="curve"/>
      <point x="287" y="633"/>
      <point x="346" y="633"/>
    </contour>
    <contour>
      <point x="236" y="-43" type="curve"/>
      <point x="236" y="-10"/>
      <point x="236" y="42"/>
      <point x="236" y="75" type="curve"/>
      <point x="163" y="75"/>
      <point x="236" y="75"/>
      <point x="163" y="75" type="curve"/>
      <point x="163" y="42"/>
      <point x="163" y="-10"/>
      <point x="163" y="-43" type="curve"/>
      <point x="236" y="-43"/>
      <point x="163" y="-43"/>
    </contour>
    <contour>
      <point x="244" y="655" type="curve"/>
      <point x="244" y="687"/>
      <point x="244" y="741"/>
      <point x="244" y="773" type="curve"/>
      <point x="171" y="773"/>
      <point x="244" y="773"/>
      <point x="171" y="773" type="curve"/>
      <point x="171" y="741"/>
      <point x="171" y="687"/>
      <point x="171" y="655" type="curve"/>
      <point x="244" y="655"/>
      <point x="171" y="655"/>
    </contour>
    <contour>
      <point x="60" y="96" type="curve"/>
      <point x="96" y="69"/>
      <point x="142" y="46"/>
      <point x="197" y="46" type="curve"/>
      <point x="301" y="46"/>
      <point x="371" y="116"/>
      <point x="371" y="208" type="curve"/>
      <point x="371" y="290"/>
      <point x="310" y="351"/>
      <point x="230" y="401" type="curve"/>
      <point x="174" y="438"/>
      <point x="136" y="472"/>
      <point x="136" y="533" type="curve"/>
      <point x="136" y="582"/>
      <point x="160" y="627"/>
      <point x="209" y="627" type="curve"/>
      <point x="251" y="627"/>
      <point x="278" y="610"/>
      <point x="310" y="583" type="curve"/>
      <point x="346" y="633"/>
      <point x="310" y="583"/>
      <point x="346" y="633" type="curve"/>
      <point x="305" y="666"/>
      <point x="267" y="685"/>
      <point x="212" y="685" type="curve"/>
      <point x="119" y="685"/>
      <point x="62" y="618"/>
      <point x="62" y="533" type="curve"/>
      <point x="62" y="451"/>
      <point x="110" y="396"/>
      <point x="187" y="347" type="curve"/>
      <point x="248" y="311"/>
      <point x="298" y="270"/>
      <point x="298" y="205" type="curve"/>
      <point x="298" y="149"/>
      <point x="262" y="103"/>
      <point x="203" y="103" type="curve"/>
      <point x="161" y="103"/>
      <point x="127" y="128"/>
      <point x="100" y="148" type="curve"/>
      <point x="60" y="96"/>
      <point x="100" y="148"/>
    </contour>
  </outline>
</glyph>
<glyph name="percent" format="1">
  <advance width="747"/>
  <unicode hex="0025"/>
  <outline>
    <contour>
      <point x="275" y="-69" type="line"/>
      <point x="544" y="736" type="line"/>
      <point x="474" y="736" type="line"/>
      <point x="206" y="-69" type="line"/>
    </contour>
    <contour>
      <point x="99" y="531" type="curve"/>
      <point x="99" y="615"/>
      <point x="105" y="689"/>
      <point x="176" y="689" type="curve"/>
      <point x="247" y="690"/>
      <point x="254" y="616"/>
      <point x="254" y="531" type="curve"/>
      <point x="254" y="447"/>
      <point x="250" y="371"/>
      <point x="180" y="371" type="curve"/>
      <point x="107" y="371"/>
      <point x="99" y="445"/>
      <point x="99" y="531" type="curve"/>
      <point x="76" y="531"/>
      <point x="60" y="531"/>
      <point x="38" y="531" type="curve"/>
      <point x="38" y="413"/>
      <point x="72" y="318"/>
      <point x="177" y="318" type="curve"/>
      <point x="283" y="318"/>
      <point x="318" y="414"/>
      <point x="318" y="534" type="curve"/>
      <point x="318" y="650"/>
      <point x="283" y="743"/>
      <point x="179" y="742" type="curve"/>
      <point x="73" y="742"/>
      <point x="38" y="649"/>
      <point x="38" y="531" type="curve"/>
      <point x="60" y="531"/>
      <point x="76" y="531"/>
    </contour>
    <contour>
      <point x="490" y="142" type="curve"/>
      <point x="490" y="225"/>
      <point x="497" y="299"/>
      <point x="567" y="299" type="curve"/>
      <point x="638" y="300"/>
      <point x="645" y="226"/>
      <point x="645" y="141" type="curve"/>
      <point x="645" y="57"/>
      <point x="642" y="-19"/>
      <point x="571" y="-19" type="curve"/>
      <point x="499" y="-19"/>
      <point x="490" y="55"/>
      <point x="490" y="142" type="curve"/>
      <point x="467" y="142"/>
      <point x="452" y="142"/>
      <point x="429" y="142" type="curve"/>
      <point x="429" y="23"/>
      <point x="463" y="-72"/>
      <point x="568" y="-72" type="curve"/>
      <point x="675" y="-72"/>
      <point x="709" y="24"/>
      <point x="709" y="144" type="curve"/>
      <point x="709" y="261"/>
      <point x="674" y="353"/>
      <point x="570" y="352" type="curve"/>
      <point x="465" y="352"/>
      <point x="429" y="259"/>
      <point x="429" y="142" type="curve"/>
      <point x="452" y="142"/>
      <point x="467" y="142"/>
    </contour>
  </outline>
</glyph>
<glyph name="ampersand" format="1">
  <advance width="489"/>
  <unicode hex="0026"/>
  <outline>
    <contour>
      <point x="468" y="19" type="line"/>
      <point x="399" y="127"/>
      <point x="327" y="251"/>
      <point x="256" y="361" type="curve"/>
      <point x="216" y="427"/>
      <point x="167" y="487"/>
      <point x="167" y="565" type="curve"/>
      <point x="167" y="617"/>
      <point x="177" y="668"/>
      <point x="217" y="668" type="curve"/>
      <point x="259" y="668"/>
      <point x="269" y="620"/>
      <point x="269" y="567" type="curve"/>
      <point x="269" y="498"/>
      <point x="236" y="447"/>
      <point x="183" y="402" type="curve"/>
      <point x="110" y="340"/>
      <point x="56" y="281"/>
      <point x="56" y="187" type="curve"/>
      <point x="56" y="80"/>
      <point x="111" y="-5"/>
      <point x="211" y="-5" type="curve"/>
      <point x="368" y="-5"/>
      <point x="413" y="149"/>
      <point x="446" y="316" type="curve"/>
      <point x="383" y="330"/>
      <point x="446" y="316"/>
      <point x="383" y="330" type="curve"/>
      <point x="356" y="193"/>
      <point x="334" y="55"/>
      <point x="215" y="55" type="curve"/>
      <point x="155" y="55"/>
      <point x="130" y="117"/>
      <point x="130" y="187" type="curve"/>
      <point x="130" y="257"/>
      <point x="163" y="307"/>
      <point x="216" y="354" type="curve"/>
      <point x="288" y="415"/>
      <point x="342" y="475"/>
      <point x="343" y="568" type="curve"/>
      <point x="343" y="657"/>
      <point x="301" y="727"/>
      <point x="220" y="727" type="curve"/>
      <point x="138" y="727"/>
      <point x="98" y="655"/>
      <point x="98" y="565" type="curve"/>
      <point x="98" y="472"/>
      <point x="152" y="404"/>
      <point x="203" y="326" type="curve"/>
      <point x="270" y="218"/>
      <point x="345" y="90"/>
      <point x="411" y="-14" type="curve"/>
    </contour>
  </outline>
</glyph>
<glyph name="quotesingle" format="1">
  <advance width="221"/>
  <unicode hex="0027"/>
  <outline>
    <contour>
      <point x="142" y="564" type="line"/>
      <point x="148" y="763" type="line"/>
      <point x="73" y="763" type="line"/>
      <point x="79" y="564" type="line"/>
    </contour>
  </outline>
</glyph>
<glyph name="parenleft" format="1">
  <advance width="270"/>
  <unicode hex="0028"/>
  <outline>
    <contour>
      <point x="261" y="-223" type="curve"/>
      <point x="141" y="-43"/>
      <point x="120" y="113"/>
      <point x="120" y="326" type="curve"/>
      <point x="120" y="539"/>
      <point x="143" y="695"/>
      <point x="260" y="878" type="curve"/>
      <point x="215" y="915"/>
      <point x="260" y="878"/>
      <point x="215" y="915" type="curve"/>
      <point x="87" y="721"/>
      <point x="48" y="557"/>
      <point x="48" y="326" type="curve"/>
      <point x="48" y="94"/>
      <point x="88" y="-69"/>
      <point x="216" y="-264" type="curve"/>
      <point x="261" y="-223"/>
      <point x="216" y="-264"/>
    </contour>
  </outline>
</glyph>
<glyph name="parenright" format="1">
  <advance width="275"/>
  <unicode hex="0029"/>
  <outline>
    <contour>
      <point x="51" y="-279" type="curve"/>
      <point x="180" y="-76"/>
      <point x="228" y="89"/>
      <point x="228" y="328" type="curve"/>
      <point x="228" y="560"/>
      <point x="187" y="723"/>
      <point x="53" y="916" type="curve"/>
      <point x="9" y="876"/>
      <point x="53" y="916"/>
      <point x="9" y="876" type="curve"/>
      <point x="130" y="694"/>
      <point x="155" y="539"/>
      <point x="155" y="325" type="curve"/>
      <point x="155" y="106"/>
      <point x="121" y="-51"/>
      <point x="5" y="-240" type="curve"/>
      <point x="51" y="-279"/>
      <point x="5" y="-240"/>
    </contour>
  </outline>
</glyph>
<glyph name="asterisk" format="1">
  <advance width="508"/>
  <unicode hex="002A"/>
  <outline>
    <contour>
      <point x="279" y="518" type="line"/>
      <point x="284" y="718" type="line"/>
      <point x="226" y="718" type="line"/>
      <point x="231" y="518" type="line"/>
    </contour>
    <contour>
      <point x="252" y="502" type="line"/>
      <point x="443" y="562" type="line"/>
      <point x="424" y="616" type="line"/>
      <point x="237" y="547" type="line"/>
    </contour>
    <contour>
      <point x="229" y="522" type="line"/>
      <point x="348" y="361" type="line"/>
      <point x="392" y="398" type="line"/>
      <point x="267" y="552" type="line"/>
    </contour>
    <contour>
      <point x="241" y="554" type="line"/>
      <point x="115" y="399" type="line"/>
      <point x="160" y="363" type="line"/>
      <point x="279" y="524" type="line"/>
    </contour>
    <contour>
      <point x="273" y="549" type="line"/>
      <point x="85" y="618" type="line"/>
      <point x="66" y="564" type="line"/>
      <point x="257" y="504" type="line"/>
    </contour>
  </outline>
</glyph>
<glyph name="plus" format="1">
  <advance width="573"/>
  <unicode hex="002B"/>
  <outline>
    <contour>
      <point x="47" y="280" type="curve"/>
      <point x="525" y="280" type="line"/>
      <point x="525" y="344"/>
      <point x="525" y="280"/>
      <point x="525" y="344" type="curve"/>
      <point x="47" y="344" type="line"/>
      <point x="47" y="280"/>
      <point x="47" y="344"/>
    </contour>
    <contour>
      <point x="321" y="37" type="curve"/>
      <point x="321" y="583" type="line"/>
      <point x="248" y="583"/>
      <point x="325" y="583"/>
      <point x="252" y="583" type="curve"/>
      <point x="252" y="37" type="line"/>
      <point x="325" y="37"/>
      <point x="248" y="37"/>
    </contour>
  </outline>
</glyph>
<glyph name="comma" format="1">
  <advance width="218"/>
  <unicode hex="002C"/>
  <outline>
    <contour>
      <point x="41" y="-112" type="line"/>
      <point x="107" y="-112"/>
      <point x="141" y="-56"/>
      <point x="141" y="12" type="curve"/>
      <point x="141" y="67"/>
      <point x="125" y="99"/>
      <point x="95" y="99" type="curve"/>
      <point x="69" y="99"/>
      <point x="54" y="85"/>
      <point x="54" y="59" type="curve"/>
      <point x="54" y="38"/>
      <point x="64" y="22"/>
      <point x="85" y="19" type="curve"/>
      <point x="85" y="-3"/>
      <point x="87" y="-60"/>
      <point x="41" y="-65" type="curve"/>
    </contour>
  </outline>
</glyph>
<glyph name="hyphen" format="1">
  <advance width="333"/>
  <unicode hex="002D"/>
  <outline>
    <contour>
      <point x="75" y="245" type="curve"/>
      <point x="136" y="245"/>
      <point x="198" y="245"/>
      <point x="258" y="245" type="curve"/>
      <point x="258" y="309"/>
      <point x="258" y="245"/>
      <point x="258" y="309" type="curve"/>
      <point x="198" y="309"/>
      <point x="136" y="309"/>
      <point x="75" y="309" type="curve"/>
      <point x="75" y="245"/>
      <point x="75" y="309"/>
    </contour>
  </outline>
</glyph>
<glyph name="period" format="1">
  <advance width="222"/>
  <unicode hex="002E"/>
  <outline>
    <contour>
      <point x="151" y="33" type="curve"/>
      <point x="151" y="59"/>
      <point x="134" y="73"/>
      <point x="110" y="73" type="curve"/>
      <point x="86" y="73"/>
      <point x="71" y="58"/>
      <point x="71" y="33" type="curve"/>
      <point x="153" y="33"/>
      <point x="69" y="33"/>
      <point x="151" y="33" type="curve"/>
      <point x="151" y="6"/>
      <point x="134" y="-7"/>
      <point x="110" y="-7" type="curve"/>
      <point x="86" y="-7"/>
      <point x="71" y="7"/>
      <point x="71" y="33" type="curve"/>
      <point x="153" y="33"/>
      <point x="69" y="33"/>
    </contour>
  </outline>
</glyph>
<glyph name="slash" format="1">
  <advance width="404"/>
  <unicode hex="002F"/>
  <outline>
    <contour>
      <point x="105" y="-45" type="curve"/>
      <point x="194" y="243"/>
      <point x="283" y="530"/>
      <point x="373" y="818" type="curve"/>
      <point x="300" y="818"/>
      <point x="373" y="818"/>
      <point x="300" y="818" type="curve"/>
      <point x="210" y="530"/>
      <point x="121" y="243"/>
      <point x="31" y="-45" type="curve"/>
      <point x="105" y="-45"/>
      <point x="31" y="-45"/>
    </contour>
  </outline>
</glyph>
<glyph name="zero" format="1">
  <advance width="527"/>
  <unicode hex="0030"/>
  <outline>
    <contour>
      <point x="130" y="360" type="curve"/>
      <point x="130" y="522"/>
      <point x="130" y="666"/>
      <point x="261" y="666" type="curve"/>
      <point x="393" y="666"/>
      <point x="397" y="524"/>
      <point x="397" y="363" type="curve"/>
      <point x="397" y="202"/>
      <point x="394" y="56"/>
      <point x="267" y="56" type="curve"/>
      <point x="140" y="56"/>
      <point x="130" y="199"/>
      <point x="130" y="360" type="curve"/>
      <point x="60" y="360"/>
      <point x="128" y="360"/>
      <point x="59" y="360" type="curve"/>
      <point x="59" y="160"/>
      <point x="92" y="-5"/>
      <point x="263" y="-5" type="curve"/>
      <point x="436" y="-5"/>
      <point x="467" y="161"/>
      <point x="467" y="363" type="curve"/>
      <point x="467" y="562"/>
      <point x="437" y="727"/>
      <point x="268" y="727" type="curve"/>
      <point x="94" y="727"/>
      <point x="59" y="561"/>
      <point x="59" y="360" type="curve"/>
      <point x="128" y="360"/>
      <point x="60" y="360"/>
    </contour>
  </outline>
</glyph>
<glyph name="one" format="1">
  <advance width="347"/>
  <unicode hex="0031"/>
  <outline>
    <contour>
      <point x="201" y="0" type="curve"/>
      <point x="239" y="0"/>
      <point x="277" y="0"/>
      <point x="316" y="0" type="curve"/>
      <point x="316" y="59"/>
      <point x="316" y="0"/>
      <point x="316" y="59" type="curve"/>
      <point x="201" y="59"/>
      <point x="316" y="59"/>
      <point x="201" y="59" type="curve"/>
      <point x="201" y="0"/>
      <point x="201" y="59"/>
    </contour>
    <contour>
      <point x="201" y="59" type="curve"/>
      <point x="80" y="59"/>
      <point x="201" y="59"/>
      <point x="80" y="59" type="curve"/>
      <point x="80" y="0"/>
      <point x="80" y="59"/>
      <point x="80" y="0" type="curve"/>
      <point x="121" y="0"/>
      <point x="161" y="0"/>
      <point x="201" y="0" type="curve"/>
      <point x="201" y="59"/>
      <point x="201" y="0"/>
    </contour>
    <contour>
      <point x="80" y="515" type="curve"/>
      <point x="219" y="687"/>
      <point x="80" y="515"/>
      <point x="219" y="687" type="curve"/>
      <point x="164" y="722"/>
      <point x="219" y="687"/>
      <point x="164" y="722" type="curve"/>
      <point x="33" y="560"/>
      <point x="164" y="722"/>
      <point x="33" y="560" type="curve"/>
      <point x="80" y="515"/>
      <point x="33" y="560"/>
    </contour>
    <contour>
      <point x="237" y="0" type="curve"/>
      <point x="237" y="241"/>
      <point x="237" y="481"/>
      <point x="237" y="722" type="curve"/>
      <point x="164" y="722"/>
      <point x="237" y="722"/>
      <point x="164" y="722" type="curve"/>
      <point x="164" y="481"/>
      <point x="164" y="241"/>
      <point x="164" y="0" type="curve"/>
      <point x="237" y="0"/>
      <point x="164" y="0"/>
    </contour>
  </outline>
</glyph>
<glyph name="two" format="1">
  <advance width="429"/>
  <unicode hex="0032"/>
  <outline>
    <contour>
      <point x="365" y="59" type="curve"/>
      <point x="365" y="167"/>
      <point x="365" y="51"/>
      <point x="365" y="159" type="curve"/>
      <point x="307" y="159"/>
      <point x="365" y="159"/>
      <point x="307" y="159" type="curve"/>
      <point x="307" y="51"/>
      <point x="307" y="167"/>
      <point x="307" y="59" type="curve"/>
      <point x="365" y="59"/>
      <point x="307" y="59"/>
    </contour>
    <contour>
      <point x="48" y="0" type="curve"/>
      <point x="173" y="0"/>
      <point x="276" y="0"/>
      <point x="365" y="0" type="curve"/>
      <point x="365" y="59"/>
      <point x="365" y="0"/>
      <point x="365" y="59" type="curve"/>
      <point x="264" y="59"/>
      <point x="150" y="59"/>
      <point x="48" y="59" type="curve"/>
      <point x="48" y="0"/>
      <point x="48" y="59"/>
    </contour>
    <contour>
      <point x="105" y="545" type="curve"/>
      <point x="128" y="607"/>
      <point x="144" y="666"/>
      <point x="205" y="666" type="curve"/>
      <point x="271" y="666"/>
      <point x="284" y="598"/>
      <point x="284" y="516" type="curve"/>
      <point x="284" y="410"/>
      <point x="227" y="313"/>
      <point x="188" y="255" type="curve"/>
      <point x="141" y="189"/>
      <point x="97" y="125"/>
      <point x="48" y="59" type="curve"/>
      <point x="54" y="0"/>
      <point x="48" y="59"/>
      <point x="54" y="0" type="curve"/>
      <point x="132" y="64"/>
      <point x="183" y="140"/>
      <point x="233" y="212" type="curve"/>
      <point x="286" y="285"/>
      <point x="353" y="393"/>
      <point x="353" y="519" type="curve"/>
      <point x="353" y="639"/>
      <point x="313" y="727"/>
      <point x="207" y="727" type="curve"/>
      <point x="122" y="727"/>
      <point x="77" y="659"/>
      <point x="51" y="574" type="curve"/>
      <point x="105" y="545"/>
      <point x="51" y="574"/>
    </contour>
  </outline>
</glyph>
<glyph name="three" format="1">
  <advance width="408"/>
  <unicode hex="0033"/>
  <outline>
    <contour>
      <point x="50" y="58" type="curve"/>
      <point x="92" y="20"/>
      <point x="124" y="-5"/>
      <point x="178" y="-5" type="curve"/>
      <point x="295" y="-5"/>
      <point x="352" y="76"/>
      <point x="352" y="200" type="curve"/>
      <point x="352" y="319"/>
      <point x="262" y="397"/>
      <point x="124" y="397" type="curve"/>
      <point x="124" y="355"/>
      <point x="124" y="389"/>
      <point x="124" y="347" type="curve"/>
      <point x="222" y="347"/>
      <point x="280" y="285"/>
      <point x="280" y="197" type="curve"/>
      <point x="280" y="118"/>
      <point x="246" y="56"/>
      <point x="181" y="56" type="curve"/>
      <point x="142" y="56"/>
      <point x="119" y="74"/>
      <point x="91" y="101" type="curve"/>
      <point x="50" y="58"/>
      <point x="91" y="101"/>
    </contour>
    <contour>
      <point x="101" y="601" type="curve"/>
      <point x="113" y="628"/>
      <point x="139" y="666"/>
      <point x="177" y="666" type="curve"/>
      <point x="238" y="666"/>
      <point x="260" y="611"/>
      <point x="260" y="539" type="curve"/>
      <point x="260" y="462"/>
      <point x="208" y="408"/>
      <point x="124" y="408" type="curve"/>
      <point x="124" y="366"/>
      <point x="124" y="400"/>
      <point x="124" y="358" type="curve"/>
      <point x="247" y="358"/>
      <point x="330" y="429"/>
      <point x="330" y="541" type="curve"/>
      <point x="330" y="650"/>
      <point x="283" y="727"/>
      <point x="184" y="727" type="curve"/>
      <point x="122" y="727"/>
      <point x="74" y="681"/>
      <point x="52" y="636" type="curve"/>
      <point x="101" y="601"/>
      <point x="52" y="636"/>
    </contour>
  </outline>
</glyph>
<glyph name="four" format="1">
  <advance width="434"/>
  <unicode hex="0034"/>
  <outline>
    <contour>
      <point x="268" y="59" type="line"/>
      <point x="157" y="59" type="line"/>
      <point x="157" y="0" type="line"/>
      <point x="268" y="0" type="line"/>
    </contour>
    <contour>
      <point x="268" y="0" type="line"/>
      <point x="375" y="0" type="line"/>
      <point x="375" y="59" type="line"/>
      <point x="268" y="59" type="line"/>
    </contour>
    <contour>
      <point x="67" y="267" type="line"/>
      <point x="296" y="715" type="line"/>
      <point x="232" y="711" type="line"/>
      <point x="30" y="312" type="line"/>
    </contour>
    <contour>
      <point x="390" y="312" type="line"/>
      <point x="30" y="312" type="line"/>
      <point x="31" y="249" type="line"/>
      <point x="390" y="249" type="line"/>
    </contour>
    <contour>
      <point x="305" y="19" type="line"/>
      <point x="305" y="711" type="line"/>
      <point x="233" y="711" type="line"/>
      <point x="233" y="19" type="line"/>
    </contour>
  </outline>
</glyph>
<glyph name="six" format="1">
  <advance width="441"/>
  <unicode hex="0036"/>
  <outline>
    <contour>
      <point x="114" y="220" type="curve"/>
      <point x="122" y="287"/>
      <point x="155" y="365"/>
      <point x="224" y="365" type="curve"/>
      <point x="296" y="365"/>
      <point x="312" y="296"/>
      <point x="312" y="212" type="curve"/>
      <point x="312" y="139"/>
      <point x="295" y="60"/>
      <point x="228" y="60" type="curve"/>
      <point x="145" y="60"/>
      <point x="125" y="148"/>
      <point x="125" y="249" type="curve"/>
      <point x="125" y="446"/>
      <point x="198" y="602"/>
      <point x="375" y="677" type="curve"/>
      <point x="353" y="731"/>
      <point x="375" y="677"/>
      <point x="353" y="731" type="curve"/>
      <point x="150" y="649"/>
      <point x="54" y="478"/>
      <point x="54" y="246" type="curve"/>
      <point x="54" y="104"/>
      <point x="101" y="-8"/>
      <point x="227" y="-8" type="curve"/>
      <point x="339" y="-8"/>
      <point x="386" y="89"/>
      <point x="386" y="213" type="curve"/>
      <point x="386" y="334"/>
      <point x="342" y="426"/>
      <point x="237" y="426" type="curve"/>
      <point x="133" y="426"/>
      <point x="82" y="321"/>
      <point x="78" y="236" type="curve"/>
      <point x="113" y="220"/>
      <point x="80" y="236"/>
    </contour>
  </outline>
</glyph>
<glyph name="seven" format="1">
  <advance width="393"/>
  <unicode hex="0037"/>
  <outline>
    <contour>
      <point x="113" y="576" type="curve"/>
      <point x="113" y="678" type="curve"/>
      <point x="54" y="678" type="curve"/>
      <point x="54" y="576" type="curve"/>
    </contour>
    <contour>
      <point x="54" y="663" type="curve"/>
      <point x="374" y="663" type="curve"/>
      <point x="374" y="722" type="curve"/>
      <point x="54" y="722" type="curve"/>
    </contour>
    <contour>
      <point x="331" y="722" type="curve"/>
      <point x="63" y="0" type="curve"/>
      <point x="135" y="0" type="curve"/>
      <point x="374" y="663" type="curve"/>
    </contour>
  </outline>
</glyph>
<glyph name="eight" format="1">
  <advance width="433"/>
  <unicode hex="0038"/>
  <outline>
    <contour>
      <point x="71" y="553" type="curve"/>
      <point x="71" y="460"/>
      <point x="119" y="411"/>
      <point x="195" y="356" type="curve"/>
      <point x="262" y="306"/>
      <point x="301" y="257"/>
      <point x="301" y="179" type="curve"/>
      <point x="301" y="111"/>
      <point x="278" y="57"/>
      <point x="217" y="57" type="curve"/>
      <point x="155" y="57"/>
      <point x="133" y="110"/>
      <point x="133" y="179" type="curve"/>
      <point x="133" y="259"/>
      <point x="173" y="305"/>
      <point x="240" y="355" type="curve"/>
      <point x="313" y="411"/>
      <point x="362" y="460"/>
      <point x="362" y="551" type="curve"/>
      <point x="362" y="656"/>
      <point x="317" y="727"/>
      <point x="217" y="727" type="curve"/>
      <point x="119" y="727"/>
      <point x="71" y="655"/>
      <point x="71" y="553" type="curve"/>
      <point x="144" y="553"/>
      <point x="71" y="553"/>
      <point x="144" y="553" type="curve"/>
      <point x="144" y="613"/>
      <point x="161" y="666"/>
      <point x="215" y="666" type="curve"/>
      <point x="271" y="666"/>
      <point x="289" y="615"/>
      <point x="289" y="551" type="curve"/>
      <point x="289" y="484"/>
      <point x="253" y="442"/>
      <point x="195" y="399" type="curve"/>
      <point x="111" y="337"/>
      <point x="59" y="282"/>
      <point x="59" y="179" type="curve"/>
      <point x="59" y="70"/>
      <point x="109" y="-5"/>
      <point x="213" y="-5" type="curve"/>
      <point x="319" y="-5"/>
      <point x="374" y="68"/>
      <point x="374" y="179" type="curve"/>
      <point x="374" y="282"/>
      <point x="323" y="339"/>
      <point x="240" y="400" type="curve"/>
      <point x="182" y="444"/>
      <point x="144" y="483"/>
      <point x="144" y="553" type="curve"/>
      <point x="71" y="553"/>
      <point x="144" y="553"/>
    </contour>
  </outline>
</glyph>
<glyph name="nine" format="1">
  <advance width="439"/>
  <unicode hex="0039"/>
  <outline>
    <contour>
      <point x="330" y="481" type="curve"/>
      <point x="314" y="418"/>
      <point x="286" y="357"/>
      <point x="216" y="357" type="curve"/>
      <point x="145" y="357"/>
      <point x="124" y="429"/>
      <point x="124" y="513" type="curve"/>
      <point x="124" y="591"/>
      <point x="144" y="662"/>
      <point x="209" y="662" type="curve"/>
      <point x="294" y="662"/>
      <point x="314" y="573"/>
      <point x="314" y="473" type="curve"/>
      <point x="314" y="276"/>
      <point x="250" y="127"/>
      <point x="73" y="43" type="curve"/>
      <point x="103" y="-16"/>
      <point x="73" y="43"/>
      <point x="104" y="-16" type="curve"/>
      <point x="295" y="76"/>
      <point x="385" y="244"/>
      <point x="385" y="476" type="curve"/>
      <point x="385" y="618"/>
      <point x="339" y="730"/>
      <point x="212" y="730" type="curve"/>
      <point x="99" y="730"/>
      <point x="54" y="633"/>
      <point x="54" y="509" type="curve"/>
      <point x="54" y="388"/>
      <point x="99" y="296"/>
      <point x="209" y="296" type="curve"/>
      <point x="305" y="296"/>
      <point x="344" y="386"/>
      <point x="367" y="466" type="curve"/>
      <point x="330" y="481"/>
      <point x="367" y="466"/>
    </contour>
  </outline>
</glyph>
<glyph name="colon" format="1">
  <advance width="230"/>
  <unicode hex="003A"/>
  <outline>
    <contour>
      <point x="155" y="386" type="curve"/>
      <point x="155" y="412"/>
      <point x="138" y="426"/>
      <point x="114" y="426" type="curve"/>
      <point x="90" y="426"/>
      <point x="75" y="411"/>
      <point x="75" y="386" type="curve"/>
      <point x="157" y="386"/>
      <point x="73" y="386"/>
      <point x="155" y="386" type="curve"/>
      <point x="155" y="359"/>
      <point x="139" y="347"/>
      <point x="114" y="347" type="curve"/>
      <point x="90" y="347"/>
      <point x="75" y="360"/>
      <point x="75" y="386" type="curve"/>
      <point x="157" y="386"/>
      <point x="73" y="386"/>
    </contour>
    <contour>
      <point x="155" y="35" type="curve"/>
      <point x="155" y="62"/>
      <point x="138" y="75"/>
      <point x="114" y="75" type="curve"/>
      <point x="90" y="75"/>
      <point x="75" y="60"/>
      <point x="75" y="35" type="curve"/>
      <point x="157" y="35"/>
      <point x="73" y="35"/>
      <point x="155" y="35" type="curve"/>
      <point x="155" y="9"/>
      <point x="139" y="-4"/>
      <point x="114" y="-4" type="curve"/>
      <point x="90" y="-4"/>
      <point x="75" y="9"/>
      <point x="75" y="35" type="curve"/>
      <point x="157" y="35"/>
      <point x="73" y="35"/>
    </contour>
  </outline>
</glyph>
<glyph name="semicolon" format="1">
  <advance width="259"/>
  <unicode hex="003B"/>
  <outline>
    <contour>
      <point x="69" y="-160" type="line"/>
      <point x="139" y="-160"/>
      <point x="175" y="-105"/>
      <point x="175" y="-36" type="curve"/>
      <point x="175" y="19"/>
      <point x="158" y="51"/>
      <point x="126" y="51" type="curve"/>
      <point x="99" y="51"/>
      <point x="82" y="37"/>
      <point x="82" y="11" type="curve"/>
      <point x="82" y="-10"/>
      <point x="92" y="-27"/>
      <point x="116" y="-29" type="curve"/>
      <point x="116" y="-51"/>
      <point x="117" y="-108"/>
      <point x="69" y="-113" type="curve"/>
    </contour>
    <contour>
      <point x="169" y="406" type="curve"/>
      <point x="169" y="433"/>
      <point x="152" y="446"/>
      <point x="129" y="446" type="curve"/>
      <point x="105" y="446"/>
      <point x="90" y="431"/>
      <point x="90" y="406" type="curve"/>
      <point x="171" y="406"/>
      <point x="87" y="406"/>
      <point x="169" y="406" type="curve"/>
      <point x="169" y="380"/>
      <point x="153" y="367"/>
      <point x="129" y="367" type="curve"/>
      <point x="104" y="367"/>
      <point x="90" y="380"/>
      <point x="90" y="406" type="curve"/>
      <point x="171" y="406"/>
      <point x="87" y="406"/>
    </contour>
  </outline>
</glyph>
<glyph name="less" format="1">
  <advance width="483"/>
  <unicode hex="003C"/>
  <outline>
    <contour>
      <point x="420" y="602" type="curve"/>
      <point x="293" y="512"/>
      <point x="165" y="422"/>
      <point x="37" y="332" type="curve"/>
      <point x="37" y="268"/>
      <point x="37" y="332"/>
      <point x="37" y="268" type="curve"/>
      <point x="165" y="358"/>
      <point x="293" y="448"/>
      <point x="420" y="538" type="curve"/>
      <point x="420" y="602"/>
      <point x="420" y="538"/>
    </contour>
    <contour>
      <point x="427" y="68" type="curve"/>
      <point x="296" y="156"/>
      <point x="167" y="244"/>
      <point x="37" y="332" type="curve"/>
      <point x="37" y="268"/>
      <point x="37" y="332"/>
      <point x="37" y="268" type="curve"/>
      <point x="167" y="180"/>
      <point x="296" y="92"/>
      <point x="427" y="4" type="curve"/>
      <point x="427" y="68"/>
      <point x="427" y="4"/>
    </contour>
  </outline>
</glyph>
<glyph name="equal" format="1">
  <advance width="551"/>
  <unicode hex="003D"/>
  <outline>
    <contour>
      <point x="78" y="186" type="curve"/>
      <point x="209" y="186"/>
      <point x="341" y="186"/>
      <point x="473" y="186" type="curve"/>
      <point x="473" y="249"/>
      <point x="473" y="186"/>
      <point x="473" y="249" type="curve"/>
      <point x="341" y="249"/>
      <point x="209" y="249"/>
      <point x="78" y="249" type="curve"/>
      <point x="78" y="186"/>
      <point x="78" y="249"/>
    </contour>
    <contour>
      <point x="78" y="408" type="curve"/>
      <point x="209" y="408"/>
      <point x="341" y="408"/>
      <point x="473" y="408" type="curve"/>
      <point x="473" y="471"/>
      <point x="473" y="408"/>
      <point x="473" y="471" type="curve"/>
      <point x="341" y="471"/>
      <point x="209" y="471"/>
      <point x="78" y="471" type="curve"/>
      <point x="78" y="408"/>
      <point x="78" y="471"/>
    </contour>
  </outline>
</glyph>
<glyph name="greater" format="1">
  <advance width="484"/>
  <unicode hex="003E"/>
  <outline>
    <contour>
      <point x="63" y="4" type="curve"/>
      <point x="190" y="94"/>
      <point x="318" y="184"/>
      <point x="446" y="274" type="curve"/>
      <point x="446" y="338"/>
      <point x="446" y="274"/>
      <point x="446" y="338" type="curve"/>
      <point x="318" y="248"/>
      <point x="190" y="158"/>
      <point x="63" y="68" type="curve"/>
      <point x="63" y="4"/>
      <point x="63" y="68"/>
    </contour>
    <contour>
      <point x="57" y="538" type="curve"/>
      <point x="186" y="450"/>
      <point x="316" y="362"/>
      <point x="446" y="274" type="curve"/>
      <point x="446" y="338"/>
      <point x="446" y="274"/>
      <point x="446" y="338" type="curve"/>
      <point x="316" y="426"/>
      <point x="186" y="514"/>
      <point x="57" y="602" type="curve"/>
      <point x="57" y="538"/>
      <point x="57" y="602"/>
    </contour>
  </outline>
</glyph>
<glyph name="question" format="1">
  <advance width="405"/>
  <unicode hex="003F"/>
  <outline>
    <contour>
      <point x="160" y="353" type="curve"/>
      <point x="160" y="316"/>
      <point x="160" y="258"/>
      <point x="160" y="221" type="curve"/>
      <point x="227" y="221"/>
      <point x="160" y="221"/>
      <point x="227" y="221" type="curve"/>
      <point x="227" y="258"/>
      <point x="227" y="316"/>
      <point x="227" y="353" type="curve"/>
      <point x="160" y="353"/>
      <point x="227" y="353"/>
    </contour>
    <contour>
      <point x="91" y="605" type="line"/>
      <point x="113" y="640"/>
      <point x="138" y="665"/>
      <point x="182" y="665" type="curve"/>
      <point x="254" y="665"/>
      <point x="280" y="597"/>
      <point x="280" y="519" type="curve"/>
      <point x="280" y="429"/>
      <point x="248" y="353"/>
      <point x="169" y="353" type="curve"/>
      <point x="169" y="322"/>
      <point x="169" y="327"/>
      <point x="169" y="296" type="curve"/>
      <point x="289" y="296"/>
      <point x="351" y="392"/>
      <point x="351" y="519" type="curve"/>
      <point x="351" y="638"/>
      <point x="293" y="727"/>
      <point x="185" y="727" type="curve"/>
      <point x="118" y="727"/>
      <point x="77" y="696"/>
      <point x="49" y="650" type="curve"/>
    </contour>
    <contour>
      <point x="234" y="36" type="curve"/>
      <point x="234" y="62"/>
      <point x="217" y="76"/>
      <point x="193" y="76" type="curve"/>
      <point x="168" y="76"/>
      <point x="153" y="61"/>
      <point x="153" y="36" type="curve"/>
      <point x="234" y="36"/>
      <point x="153" y="36"/>
      <point x="234" y="36" type="curve"/>
      <point x="234" y="9"/>
      <point x="217" y="-4"/>
      <point x="193" y="-4" type="curve"/>
      <point x="168" y="-4"/>
      <point x="153" y="10"/>
      <point x="153" y="36" type="curve"/>
      <point x="234" y="36"/>
      <point x="153" y="36"/>
    </contour>
  </outline>
</glyph>
<glyph name="at" format="1">
  <advance width="598"/>
  <unicode hex="0040"/>
  <outline>
    <contour>
      <point x="395" y="-65" type="curve"/>
      <point x="368" y="-89"/>
      <point x="346" y="-98"/>
      <point x="310" y="-98" type="curve"/>
      <point x="169" y="-98"/>
      <point x="118" y="34"/>
      <point x="118" y="197" type="curve"/>
      <point x="118" y="354"/>
      <point x="167" y="484"/>
      <point x="303" y="484" type="curve"/>
      <point x="433" y="484"/>
      <point x="479" y="358"/>
      <point x="479" y="209" type="curve"/>
      <point x="479" y="139"/>
      <point x="482" y="75"/>
      <point x="450" y="75" type="curve"/>
      <point x="413" y="75"/>
      <point x="418" y="135"/>
      <point x="418" y="201" type="curve"/>
      <point x="418" y="302"/>
      <point x="388" y="383"/>
      <point x="299" y="383" type="curve"/>
      <point x="204" y="383"/>
      <point x="176" y="304"/>
      <point x="176" y="200" type="curve"/>
      <point x="176" y="92"/>
      <point x="199" y="8"/>
      <point x="293" y="8" type="curve"/>
      <point x="380" y="8"/>
      <point x="399" y="89"/>
      <point x="407" y="187" type="curve"/>
      <point x="362" y="197"/>
      <point x="407" y="187"/>
      <point x="362" y="197" type="curve"/>
      <point x="352" y="135"/>
      <point x="353" y="67"/>
      <point x="300" y="67" type="curve"/>
      <point x="245" y="67"/>
      <point x="241" y="130"/>
      <point x="241" y="203" type="curve"/>
      <point x="241" y="268"/>
      <point x="244" y="324"/>
      <point x="295" y="324" type="curve"/>
      <point x="352" y="324"/>
      <point x="351" y="265"/>
      <point x="351" y="198" type="curve"/>
      <point x="351" y="102"/>
      <point x="360" y="20"/>
      <point x="444" y="20" type="curve"/>
      <point x="532" y="20"/>
      <point x="542" y="106"/>
      <point x="542" y="212" type="curve"/>
      <point x="542" y="400"/>
      <point x="477" y="545"/>
      <point x="305" y="545" type="curve"/>
      <point x="124" y="545"/>
      <point x="53" y="394"/>
      <point x="53" y="194" type="curve"/>
      <point x="53" y="-5"/>
      <point x="127" y="-157"/>
      <point x="306" y="-157" type="curve"/>
      <point x="356" y="-157"/>
      <point x="384" y="-148"/>
      <point x="425" y="-116" type="curve"/>
      <point x="395" y="-65"/>
      <point x="425" y="-116"/>
    </contour>
  </outline>
</glyph>
<glyph name="A" format="1">
  <advance width="571"/>
  <unicode hex="0041"/>
  <outline>
    <contour>
      <point x="100" y="59" type="curve"/>
      <point x="-33" y="59"/>
      <point x="118" y="59"/>
      <point x="-15" y="59" type="curve"/>
      <point x="-15" y="0"/>
      <point x="-15" y="59"/>
      <point x="-15" y="0" type="curve"/>
      <point x="30" y="0"/>
      <point x="56" y="0"/>
      <point x="99" y="0" type="curve"/>
      <point x="100" y="59"/>
      <point x="99" y="0"/>
    </contour>
    <contour>
      <point x="100" y="0" type="curve"/>
      <point x="148" y="0"/>
      <point x="86" y="0"/>
      <point x="232" y="0" type="curve"/>
      <point x="232" y="59"/>
      <point x="232" y="0"/>
      <point x="232" y="59" type="curve"/>
      <point x="86" y="59"/>
      <point x="246" y="59"/>
      <point x="100" y="59" type="curve"/>
      <point x="100" y="0"/>
      <point x="100" y="59"/>
    </contour>
    <contour>
      <point x="444" y="0" type="curve"/>
      <point x="488" y="0"/>
      <point x="514" y="0"/>
      <point x="558" y="0" type="curve"/>
      <point x="558" y="59"/>
      <point x="558" y="0"/>
      <point x="558" y="59" type="curve"/>
      <point x="426" y="59"/>
      <point x="576" y="59"/>
      <point x="444" y="59" type="curve"/>
      <point x="444" y="0"/>
      <point x="444" y="59"/>
    </contour>
    <contour>
      <point x="444" y="59" type="curve"/>
      <point x="297" y="59"/>
      <point x="458" y="59"/>
      <point x="310" y="59" type="curve"/>
      <point x="310" y="0"/>
      <point x="310" y="59"/>
      <point x="310" y="0" type="curve"/>
      <point x="359" y="0"/>
      <point x="395" y="0"/>
      <point x="444" y="0" type="curve"/>
      <point x="444" y="59"/>
      <point x="444" y="0"/>
    </contour>
    <contour>
      <point x="377" y="283" type="curve"/>
      <point x="311" y="283"/>
      <point x="245" y="283"/>
      <point x="178" y="283" type="curve"/>
      <point x="148" y="221"/>
      <point x="178" y="283"/>
      <point x="148" y="221" type="curve"/>
      <point x="233" y="221"/>
      <point x="317" y="221"/>
      <point x="401" y="221" type="curve"/>
      <point x="377" y="283"/>
      <point x="401" y="221"/>
    </contour>
    <contour>
      <point x="489" y="0" type="curve"/>
      <point x="432" y="241"/>
      <point x="372" y="481"/>
      <point x="315" y="722" type="curve"/>
      <point x="249" y="722"/>
      <point x="315" y="722"/>
      <point x="249" y="722" type="curve"/>
      <point x="304" y="481"/>
      <point x="357" y="241"/>
      <point x="413" y="0" type="curve"/>
      <point x="489" y="0"/>
      <point x="413" y="0"/>
    </contour>
    <contour>
      <point x="132" y="0" type="curve"/>
      <point x="194" y="241"/>
      <point x="251" y="481"/>
      <point x="314" y="722" type="curve"/>
      <point x="247" y="722"/>
      <point x="314" y="722"/>
      <point x="247" y="722" type="curve"/>
      <point x="184" y="481"/>
      <point x="116" y="241"/>
      <point x="52" y="0" type="curve"/>
      <point x="132" y="0"/>
      <point x="52" y="0"/>
    </contour>
    <contour>
      <point x="280" y="806" type="move" name="top"/>
    </contour>
    <contour>
      <point x="487" y="2" type="move" name="bottom"/>
    </contour>
  </outline>
</glyph>
<glyph name="B" format="1">
  <advance width="503"/>
  <unicode hex="0042"/>
  <outline>
    <contour>
      <point x="162" y="722" type="curve"/>
      <point x="120" y="722"/>
      <point x="91" y="722"/>
      <point x="49" y="722" type="curve"/>
      <point x="49" y="663"/>
      <point x="49" y="722"/>
      <point x="49" y="663" type="curve"/>
      <point x="176" y="663"/>
      <point x="35" y="663"/>
      <point x="162" y="663" type="curve"/>
      <point x="162" y="722"/>
      <point x="162" y="663"/>
    </contour>
    <contour>
      <point x="162" y="59" type="curve"/>
      <point x="34" y="59"/>
      <point x="175" y="59"/>
      <point x="48" y="59" type="curve"/>
      <point x="48" y="0"/>
      <point x="48" y="59"/>
      <point x="48" y="0" type="curve"/>
      <point x="90" y="0"/>
      <point x="119" y="0"/>
      <point x="162" y="0" type="curve"/>
      <point x="162" y="59"/>
      <point x="162" y="0"/>
    </contour>
    <contour>
      <point x="155" y="663" type="curve"/>
      <point x="195" y="663"/>
      <point x="216" y="663"/>
      <point x="255" y="663" type="curve"/>
      <point x="321" y="663"/>
      <point x="348" y="614"/>
      <point x="348" y="548" type="curve"/>
      <point x="348" y="485"/>
      <point x="326" y="437"/>
      <point x="268" y="437" type="curve"/>
      <point x="224" y="437"/>
      <point x="199" y="437"/>
      <point x="155" y="437" type="curve"/>
      <point x="155" y="420"/>
      <point x="155" y="394"/>
      <point x="155" y="378" type="curve"/>
      <point x="190" y="378"/>
      <point x="211" y="378"/>
      <point x="245" y="378" type="curve"/>
      <point x="346" y="378"/>
      <point x="420" y="437"/>
      <point x="420" y="545" type="curve"/>
      <point x="420" y="652"/>
      <point x="364" y="722"/>
      <point x="260" y="722" type="curve"/>
      <point x="219" y="722"/>
      <point x="197" y="722"/>
      <point x="155" y="722" type="curve"/>
      <point x="155" y="706"/>
      <point x="155" y="680"/>
    </contour>
    <contour>
      <point x="201" y="0" type="curve"/>
      <point x="201" y="241"/>
      <point x="201" y="481"/>
      <point x="201" y="722" type="curve"/>
      <point x="125" y="722"/>
      <point x="201" y="722"/>
      <point x="125" y="722" type="curve"/>
      <point x="125" y="481"/>
      <point x="126" y="241"/>
      <point x="125" y="0" type="curve"/>
      <point x="201" y="0"/>
      <point x="125" y="0"/>
    </contour>
    <contour>
      <point x="155" y="378" type="curve"/>
      <point x="199" y="378"/>
      <point x="224" y="378"/>
      <point x="268" y="378" type="curve"/>
      <point x="351" y="378"/>
      <point x="377" y="305"/>
      <point x="377" y="214" type="curve"/>
      <point x="377" y="125"/>
      <point x="342" y="59"/>
      <point x="258" y="59" type="curve"/>
      <point x="217" y="59"/>
      <point x="196" y="59"/>
      <point x="155" y="59" type="curve"/>
      <point x="155" y="42"/>
      <point x="155" y="16"/>
      <point x="155" y="0" type="curve"/>
      <point x="198" y="0"/>
      <point x="220" y="0"/>
      <point x="263" y="0" type="curve"/>
      <point x="385" y="0"/>
      <point x="450" y="85"/>
      <point x="450" y="212" type="curve"/>
      <point x="450" y="348"/>
      <point x="377" y="437"/>
      <point x="246" y="437" type="curve"/>
      <point x="212" y="437"/>
      <point x="190" y="437"/>
      <point x="155" y="437" type="curve"/>
      <point x="155" y="420"/>
      <point x="155" y="394"/>
    </contour>
  </outline>
</glyph>
<glyph name="C" format="1">
  <advance width="504"/>
  <unicode hex="0043"/>
  <outline>
    <contour>
      <point x="388" y="655" type="curve"/>
      <point x="388" y="535"/>
      <point x="388" y="658"/>
      <point x="388" y="538" type="curve"/>
      <point x="447" y="538"/>
      <point x="388" y="538"/>
      <point x="447" y="538" type="curve"/>
      <point x="447" y="658"/>
      <point x="447" y="535"/>
      <point x="447" y="655" type="curve"/>
      <point x="388" y="655"/>
      <point x="447" y="655"/>
    </contour>
    <contour>
      <point x="447" y="655" type="curve"/>
      <point x="404" y="695"/>
      <point x="351" y="727"/>
      <point x="287" y="727" type="curve"/>
      <point x="106" y="727"/>
      <point x="58" y="558"/>
      <point x="58" y="344" type="curve"/>
      <point x="58" y="150"/>
      <point x="106" y="-5"/>
      <point x="274" y="-5" type="curve"/>
      <point x="359" y="-5"/>
      <point x="412" y="33"/>
      <point x="460" y="98" type="curve"/>
      <point x="414" y="141"/>
      <point x="459" y="98"/>
      <point x="414" y="141" type="curve"/>
      <point x="377" y="92"/>
      <point x="341" y="58"/>
      <point x="278" y="58" type="curve"/>
      <point x="149" y="58"/>
      <point x="130" y="191"/>
      <point x="130" y="347" type="curve"/>
      <point x="130" y="518"/>
      <point x="148" y="665"/>
      <point x="284" y="665" type="curve"/>
      <point x="334" y="665"/>
      <point x="375" y="640"/>
      <point x="407" y="608" type="curve"/>
      <point x="447" y="655"/>
      <point x="407" y="608"/>
    </contour>
    <contour>
      <point x="283" y="806" type="move" name="top"/>
    </contour>
    <contour>
      <point x="293" y="-2" type="move" name="bottom"/>
    </contour>
  </outline>
</glyph>
<glyph name="D" format="1">
  <advance width="574"/>
  <unicode hex="0044"/>
  <outline>
    <contour>
      <point x="165" y="59" type="curve"/>
      <point x="36" y="59"/>
      <point x="178" y="59"/>
      <point x="49" y="59" type="curve"/>
      <point x="49" y="0"/>
      <point x="49" y="59"/>
      <point x="49" y="0" type="curve"/>
      <point x="92" y="0"/>
      <point x="122" y="0"/>
      <point x="165" y="0" type="curve"/>
      <point x="165" y="59"/>
      <point x="165" y="0"/>
    </contour>
    <contour>
      <point x="165" y="722" type="curve"/>
      <point x="122" y="722"/>
      <point x="92" y="722"/>
      <point x="49" y="722" type="curve"/>
      <point x="49" y="663"/>
      <point x="49" y="722"/>
      <point x="49" y="663" type="curve"/>
      <point x="178" y="663"/>
      <point x="36" y="663"/>
      <point x="165" y="663" type="curve"/>
      <point x="165" y="722"/>
      <point x="165" y="663"/>
    </contour>
    <contour>
      <point x="128" y="722" type="curve"/>
      <point x="128" y="481"/>
      <point x="128" y="241"/>
      <point x="128" y="0" type="curve"/>
      <point x="200" y="0"/>
      <point x="128" y="0"/>
      <point x="200" y="0" type="curve"/>
      <point x="200" y="241"/>
      <point x="200" y="481"/>
      <point x="200" y="722" type="curve"/>
      <point x="128" y="722"/>
      <point x="200" y="722"/>
    </contour>
    <contour>
      <point x="165" y="0" type="curve"/>
      <point x="205" y="0"/>
      <point x="234" y="0"/>
      <point x="274" y="0" type="curve"/>
      <point x="456" y="0"/>
      <point x="518" y="152"/>
      <point x="518" y="356" type="curve"/>
      <point x="518" y="565"/>
      <point x="455" y="722"/>
      <point x="269" y="722" type="curve"/>
      <point x="232" y="722"/>
      <point x="203" y="722"/>
      <point x="165" y="722" type="curve"/>
      <point x="165" y="673"/>
      <point x="165" y="713"/>
      <point x="165" y="663" type="curve"/>
      <point x="202" y="663"/>
      <point x="229" y="663"/>
      <point x="266" y="663" type="curve"/>
      <point x="413" y="663"/>
      <point x="445" y="526"/>
      <point x="445" y="354" type="curve"/>
      <point x="445" y="192"/>
      <point x="418" y="59"/>
      <point x="281" y="59" type="curve"/>
      <point x="239" y="59"/>
      <point x="207" y="59"/>
      <point x="165" y="59" type="curve"/>
      <point x="165" y="9"/>
      <point x="165" y="49"/>
    </contour>
    <contour>
      <point x="249" y="805" type="move" name="top"/>
    </contour>
  </outline>
</glyph>
<glyph name="H" format="1">
  <advance width="621"/>
  <unicode hex="0048"/>
  <outline>
    <contour>
      <point x="468" y="663" type="curve"/>
      <point x="596" y="663"/>
      <point x="457" y="663"/>
      <point x="584" y="663" type="curve"/>
      <point x="584" y="722"/>
      <point x="584" y="663"/>
      <point x="584" y="722" type="curve"/>
      <point x="541" y="722"/>
      <point x="510" y="722"/>
      <point x="468" y="722" type="curve"/>
      <point x="468" y="663"/>
      <point x="468" y="722"/>
    </contour>
    <contour>
      <point x="468" y="0" type="curve"/>
      <point x="510" y="0"/>
      <point x="541" y="0"/>
      <point x="584" y="0" type="curve"/>
      <point x="584" y="59"/>
      <point x="584" y="0"/>
      <point x="584" y="59" type="curve"/>
      <point x="457" y="59"/>
      <point x="596" y="59"/>
      <point x="468" y="59" type="curve"/>
      <point x="468" y="0"/>
      <point x="468" y="59"/>
    </contour>
    <contour>
      <point x="468" y="59" type="curve"/>
      <point x="341" y="59"/>
      <point x="480" y="59"/>
      <point x="352" y="59" type="curve"/>
      <point x="352" y="0"/>
      <point x="352" y="59"/>
      <point x="352" y="0" type="curve"/>
      <point x="394" y="0"/>
      <point x="426" y="0"/>
      <point x="468" y="0" type="curve"/>
      <point x="468" y="59"/>
      <point x="468" y="0"/>
    </contour>
    <contour>
      <point x="468" y="722" type="curve"/>
      <point x="426" y="722"/>
      <point x="394" y="722"/>
      <point x="352" y="722" type="curve"/>
      <point x="352" y="663"/>
      <point x="352" y="722"/>
      <point x="352" y="663" type="curve"/>
      <point x="480" y="663"/>
      <point x="341" y="663"/>
      <point x="468" y="663" type="curve"/>
      <point x="468" y="722"/>
      <point x="468" y="663"/>
    </contour>
    <contour>
      <point x="154" y="663" type="curve"/>
      <point x="282" y="663"/>
      <point x="143" y="663"/>
      <point x="271" y="663" type="curve"/>
      <point x="271" y="722"/>
      <point x="271" y="663"/>
      <point x="271" y="722" type="curve"/>
      <point x="228" y="722"/>
      <point x="197" y="722"/>
      <point x="154" y="722" type="curve"/>
      <point x="154" y="663"/>
      <point x="154" y="722"/>
    </contour>
    <contour>
      <point x="154" y="722" type="curve"/>
      <point x="112" y="722"/>
      <point x="81" y="722"/>
      <point x="38" y="722" type="curve"/>
      <point x="38" y="663"/>
      <point x="38" y="722"/>
      <point x="38" y="663" type="curve"/>
      <point x="166" y="663"/>
      <point x="27" y="663"/>
      <point x="154" y="663" type="curve"/>
      <point x="154" y="722"/>
      <point x="154" y="663"/>
    </contour>
    <contour>
      <point x="154" y="0" type="curve"/>
      <point x="197" y="0"/>
      <point x="143" y="0"/>
      <point x="271" y="0" type="curve"/>
      <point x="271" y="59"/>
      <point x="271" y="0"/>
      <point x="271" y="59" type="curve"/>
      <point x="143" y="59"/>
      <point x="282" y="59"/>
      <point x="154" y="59" type="curve"/>
      <point x="154" y="0"/>
      <point x="154" y="59"/>
    </contour>
    <contour>
      <point x="154" y="59" type="curve"/>
      <point x="27" y="59"/>
      <point x="166" y="59"/>
      <point x="38" y="59" type="curve"/>
      <point x="38" y="0"/>
      <point x="38" y="59"/>
      <point x="38" y="0" type="curve"/>
      <point x="81" y="0"/>
      <point x="112" y="0"/>
      <point x="154" y="0" type="curve"/>
      <point x="154" y="59"/>
      <point x="154" y="0"/>
    </contour>
    <contour>
      <point x="191" y="0" type="curve"/>
      <point x="191" y="722" type="line"/>
      <point x="118" y="722"/>
      <point x="191" y="722"/>
      <point x="118" y="722" type="curve"/>
      <point x="118" y="481"/>
      <point x="118" y="241"/>
      <point x="118" y="0" type="curve"/>
      <point x="191" y="0"/>
      <point x="118" y="0"/>
    </contour>
    <contour>
      <point x="467" y="392" type="curve"/>
      <point x="362" y="392"/>
      <point x="258" y="392"/>
      <point x="154" y="392" type="curve"/>
      <point x="154" y="333"/>
      <point x="154" y="392"/>
      <point x="154" y="333" type="curve"/>
      <point x="258" y="333"/>
      <point x="362" y="333"/>
      <point x="467" y="333" type="curve"/>
      <point x="467" y="392"/>
      <point x="467" y="333"/>
    </contour>
    <contour>
      <point x="504" y="20" type="curve"/>
      <point x="504" y="247"/>
      <point x="504" y="475"/>
      <point x="504" y="702" type="curve"/>
      <point x="431" y="702"/>
      <point x="504" y="702"/>
      <point x="431" y="702" type="curve"/>
      <point x="431" y="20" type="line"/>
      <point x="504" y="20"/>
      <point x="431" y="20"/>
    </contour>
  </outline>
</glyph>
<glyph name="I" format="1">
  <advance width="309"/>
  <unicode hex="0049"/>
  <outline>
    <contour>
      <point x="155" y="722" type="curve"/>
      <point x="113" y="722"/>
      <point x="82" y="722"/>
      <point x="39" y="722" type="curve"/>
      <point x="39" y="663"/>
      <point x="39" y="722"/>
      <point x="39" y="663" type="curve"/>
      <point x="167" y="663"/>
      <point x="27" y="663"/>
      <point x="155" y="663" type="curve"/>
      <point x="155" y="722"/>
      <point x="155" y="663"/>
    </contour>
    <contour>
      <point x="155" y="663" type="curve"/>
      <point x="283" y="663"/>
      <point x="144" y="663"/>
      <point x="272" y="663" type="curve"/>
      <point x="272" y="722"/>
      <point x="272" y="663"/>
      <point x="272" y="722" type="curve"/>
      <point x="229" y="722"/>
      <point x="197" y="722"/>
      <point x="155" y="722" type="curve"/>
      <point x="155" y="663"/>
      <point x="155" y="722"/>
    </contour>
    <contour>
      <point x="155" y="0" type="curve"/>
      <point x="197" y="0"/>
      <point x="229" y="0"/>
      <point x="272" y="0" type="curve"/>
      <point x="272" y="59"/>
      <point x="272" y="0"/>
      <point x="272" y="59" type="curve"/>
      <point x="144" y="59"/>
      <point x="283" y="59"/>
      <point x="155" y="59" type="curve"/>
      <point x="155" y="0"/>
      <point x="155" y="59"/>
    </contour>
    <contour>
      <point x="155" y="59" type="curve"/>
      <point x="27" y="59"/>
      <point x="167" y="59"/>
      <point x="39" y="59" type="curve"/>
      <point x="39" y="0"/>
      <point x="39" y="59"/>
      <point x="39" y="0" type="curve"/>
      <point x="82" y="0"/>
      <point x="113" y="0"/>
      <point x="155" y="0" type="curve"/>
      <point x="155" y="59"/>
      <point x="155" y="0"/>
    </contour>
    <contour>
      <point x="191" y="0" type="curve"/>
      <point x="191" y="241"/>
      <point x="191" y="481"/>
      <point x="191" y="722" type="curve"/>
      <point x="118" y="722"/>
      <point x="191" y="722"/>
      <point x="118" y="722" type="curve"/>
      <point x="118" y="481"/>
      <point x="118" y="241"/>
      <point x="118" y="0" type="curve"/>
      <point x="191" y="0"/>
      <point x="118" y="0"/>
    </contour>
    <contour>
      <point x="157" y="806" type="move" name="top"/>
    </contour>
    <contour>
      <point x="186" y="2" type="move" name="bottom"/>
    </contour>
  </outline>
</glyph>
<glyph name="J" format="1">
  <advance width="353"/>
  <unicode hex="004A"/>
  <outline>
    <contour>
      <point x="214" y="722" type="curve"/>
      <point x="173" y="722"/>
      <point x="142" y="722"/>
      <point x="100" y="722" type="curve"/>
      <point x="100" y="663"/>
      <point x="100" y="722"/>
      <point x="100" y="663" type="curve"/>
      <point x="226" y="663"/>
      <point x="88" y="663"/>
      <point x="214" y="663" type="curve"/>
      <point x="214" y="722"/>
      <point x="214" y="663"/>
    </contour>
    <contour>
      <point x="214" y="663" type="curve"/>
      <point x="341" y="663"/>
      <point x="203" y="663"/>
      <point x="330" y="663" type="curve"/>
      <point x="330" y="722"/>
      <point x="330" y="663"/>
      <point x="330" y="722" type="curve"/>
      <point x="288" y="722"/>
      <point x="257" y="722"/>
      <point x="214" y="722" type="curve"/>
      <point x="214" y="663"/>
      <point x="214" y="722"/>
    </contour>
    <contour>
      <point x="16" y="41" type="curve"/>
      <point x="39" y="17"/>
      <point x="68" y="-5"/>
      <point x="108" y="-5" type="curve"/>
      <point x="221" y="-5"/>
      <point x="250" y="85"/>
      <point x="250" y="227" type="curve"/>
      <point x="250" y="406"/>
      <point x="250" y="542"/>
      <point x="250" y="722" type="curve"/>
      <point x="187" y="722"/>
      <point x="240" y="722"/>
      <point x="177" y="722" type="curve"/>
      <point x="177" y="542"/>
      <point x="177" y="406"/>
      <point x="177" y="227" type="curve"/>
      <point x="177" y="136"/>
      <point x="182" y="55"/>
      <point x="108" y="55" type="curve"/>
      <point x="82" y="55"/>
      <point x="66" y="71"/>
      <point x="51" y="87" type="curve"/>
      <point x="22" y="48"/>
      <point x="45" y="80"/>
    </contour>
  </outline>
</glyph>
<glyph name="K" format="1">
  <advance width="536"/>
  <unicode hex="004B"/>
  <outline>
    <contour>
      <point x="399" y="722" type="curve"/>
      <point x="356" y="722"/>
      <point x="343" y="722"/>
      <point x="301" y="722" type="curve"/>
      <point x="301" y="663"/>
      <point x="301" y="722"/>
      <point x="301" y="663" type="curve"/>
      <point x="429" y="663"/>
      <point x="271" y="663"/>
      <point x="399" y="663" type="curve"/>
      <point x="399" y="722"/>
      <point x="399" y="663"/>
    </contour>
    <contour>
      <point x="404" y="0" type="curve"/>
      <point x="457" y="0"/>
      <point x="464" y="0"/>
      <point x="517" y="0" type="curve"/>
      <point x="517" y="59"/>
      <point x="517" y="0"/>
      <point x="517" y="59" type="curve"/>
      <point x="360" y="59"/>
      <point x="561" y="59"/>
      <point x="404" y="59" type="curve"/>
      <point x="404" y="0"/>
      <point x="404" y="59"/>
    </contour>
    <contour>
      <point x="384" y="663" type="curve"/>
      <point x="513" y="663"/>
      <point x="370" y="663"/>
      <point x="499" y="663" type="curve"/>
      <point x="499" y="722"/>
      <point x="499" y="663"/>
      <point x="499" y="722" type="curve"/>
      <point x="456" y="722"/>
      <point x="428" y="722"/>
      <point x="384" y="722" type="curve"/>
      <point x="384" y="663"/>
      <point x="384" y="722"/>
    </contour>
    <contour>
      <point x="152" y="722" type="curve"/>
      <point x="111" y="722"/>
      <point x="80" y="722"/>
      <point x="38" y="722" type="curve"/>
      <point x="38" y="663"/>
      <point x="38" y="722"/>
      <point x="38" y="663" type="curve"/>
      <point x="164" y="663"/>
      <point x="27" y="663"/>
      <point x="152" y="663" type="curve"/>
      <point x="152" y="722"/>
      <point x="152" y="663"/>
    </contour>
    <contour>
      <point x="152" y="663" type="curve"/>
      <point x="282" y="663"/>
      <point x="116" y="663"/>
      <point x="245" y="663" type="curve"/>
      <point x="245" y="722"/>
      <point x="245" y="663"/>
      <point x="245" y="722" type="curve"/>
      <point x="202" y="722"/>
      <point x="195" y="722"/>
      <point x="152" y="722" type="curve"/>
      <point x="152" y="663"/>
      <point x="152" y="722"/>
    </contour>
    <contour>
      <point x="152" y="0" type="curve"/>
      <point x="197" y="0"/>
      <point x="116" y="0"/>
      <point x="251" y="0" type="curve"/>
      <point x="251" y="59"/>
      <point x="251" y="0"/>
      <point x="251" y="59" type="curve"/>
      <point x="116" y="59"/>
      <point x="286" y="59"/>
      <point x="152" y="59" type="curve"/>
      <point x="152" y="0"/>
      <point x="152" y="59"/>
    </contour>
    <contour>
      <point x="152" y="59" type="curve"/>
      <point x="27" y="59"/>
      <point x="164" y="59"/>
      <point x="38" y="59" type="curve"/>
      <point x="38" y="0"/>
      <point x="38" y="59"/>
      <point x="38" y="0" type="curve"/>
      <point x="80" y="0"/>
      <point x="111" y="0"/>
      <point x="152" y="0" type="curve"/>
      <point x="152" y="59"/>
      <point x="152" y="0"/>
    </contour>
    <contour>
      <point x="387" y="722" type="curve"/>
      <point x="177" y="380" type="line"/>
      <point x="257" y="380"/>
      <point x="175" y="380"/>
      <point x="254" y="380" type="curve"/>
      <point x="445" y="694" type="line"/>
      <point x="389" y="694"/>
      <point x="443" y="722"/>
    </contour>
    <contour>
      <point x="189" y="0" type="curve"/>
      <point x="189" y="722" type="line"/>
      <point x="116" y="722"/>
      <point x="189" y="722"/>
      <point x="116" y="722" type="curve"/>
      <point x="116" y="481"/>
      <point x="116" y="241"/>
      <point x="116" y="0" type="curve"/>
      <point x="189" y="0"/>
      <point x="116" y="0"/>
    </contour>
    <contour>
      <point x="466" y="22" type="curve"/>
      <point x="254" y="380" type="line"/>
      <point x="175" y="380"/>
      <point x="257" y="380"/>
      <point x="177" y="380" type="curve"/>
      <point x="401" y="0" type="line"/>
      <point x="464" y="0"/>
      <point x="403" y="22"/>
    </contour>
    <contour>
      <point x="298" y="-54" type="move" name="bottom"/>
    </contour>
  </outline>
</glyph>
<glyph name="M" format="1">
  <advance width="702"/>
  <unicode hex="004D"/>
  <outline>
    <contour>
      <point x="569" y="0" type="curve"/>
      <point x="610" y="0"/>
      <point x="639" y="0"/>
      <point x="680" y="0" type="curve"/>
      <point x="680" y="59"/>
      <point x="680" y="0"/>
      <point x="680" y="59" type="curve"/>
      <point x="557" y="59"/>
      <point x="692" y="59"/>
      <point x="569" y="59" type="curve"/>
      <point x="569" y="0"/>
      <point x="569" y="59"/>
    </contour>
    <contour>
      <point x="569" y="59" type="curve"/>
      <point x="450" y="59"/>
      <point x="580" y="59"/>
      <point x="462" y="59" type="curve"/>
      <point x="462" y="0"/>
      <point x="462" y="59"/>
      <point x="462" y="0" type="curve"/>
      <point x="501" y="0"/>
      <point x="529" y="0"/>
      <point x="569" y="0" type="curve"/>
      <point x="569" y="59"/>
      <point x="569" y="0"/>
    </contour>
    <contour>
      <point x="134" y="59" type="curve"/>
      <point x="11" y="59"/>
      <point x="145" y="59"/>
      <point x="22" y="59" type="curve"/>
      <point x="22" y="0"/>
      <point x="22" y="59"/>
      <point x="22" y="0" type="curve"/>
      <point x="64" y="0"/>
      <point x="93" y="0"/>
      <point x="134" y="0" type="curve"/>
      <point x="134" y="59"/>
      <point x="134" y="0"/>
    </contour>
    <contour>
      <point x="172" y="722" type="curve"/>
      <point x="130" y="722"/>
      <point x="101" y="722"/>
      <point x="60" y="722" type="curve"/>
      <point x="59" y="663"/>
      <point x="60" y="722"/>
      <point x="59" y="663" type="curve"/>
      <point x="183" y="663"/>
      <point x="48" y="663"/>
      <point x="172" y="663" type="curve"/>
      <point x="172" y="722"/>
      <point x="172" y="663"/>
    </contour>
    <contour>
      <point x="530" y="663" type="curve"/>
      <point x="652" y="663"/>
      <point x="518" y="663"/>
      <point x="641" y="663" type="curve"/>
      <point x="641" y="722"/>
      <point x="641" y="663"/>
      <point x="641" y="722" type="curve"/>
      <point x="600" y="722"/>
      <point x="571" y="722"/>
      <point x="530" y="722" type="curve"/>
      <point x="530" y="663"/>
      <point x="530" y="722"/>
    </contour>
    <contour>
      <point x="134" y="0" type="curve"/>
      <point x="173" y="0"/>
      <point x="122" y="0"/>
      <point x="240" y="0" type="curve"/>
      <point x="240" y="59"/>
      <point x="240" y="0"/>
      <point x="240" y="59" type="curve"/>
      <point x="122" y="59"/>
      <point x="252" y="59"/>
      <point x="134" y="59" type="curve"/>
      <point x="134" y="0"/>
      <point x="134" y="59"/>
    </contour>
    <contour>
      <point x="608" y="0" type="curve"/>
      <point x="595" y="241"/>
      <point x="580" y="481"/>
      <point x="566" y="722" type="curve"/>
      <point x="500" y="722"/>
      <point x="566" y="722"/>
      <point x="500" y="722" type="curve"/>
      <point x="513" y="481"/>
      <point x="523" y="241"/>
      <point x="535" y="0" type="curve"/>
      <point x="608" y="0"/>
      <point x="535" y="0"/>
    </contour>
    <contour>
      <point x="165" y="0" type="curve"/>
      <point x="177" y="241"/>
      <point x="188" y="481"/>
      <point x="200" y="722" type="curve"/>
      <point x="139" y="722"/>
      <point x="200" y="722"/>
      <point x="139" y="722" type="curve"/>
      <point x="127" y="481"/>
      <point x="114" y="241"/>
      <point x="102" y="0" type="curve"/>
      <point x="165" y="0"/>
      <point x="102" y="0"/>
    </contour>
    <contour>
      <point x="379" y="0" type="curve"/>
      <point x="320" y="241"/>
      <point x="260" y="481"/>
      <point x="202" y="722" type="curve"/>
      <point x="140" y="722"/>
      <point x="202" y="722"/>
      <point x="141" y="722" type="curve"/>
      <point x="200" y="481"/>
      <point x="258" y="241"/>
      <point x="317" y="0" type="curve"/>
      <point x="379" y="0"/>
      <point x="317" y="0"/>
    </contour>
    <contour>
      <point x="385" y="0" type="curve"/>
      <point x="443" y="241"/>
      <point x="501" y="481"/>
      <point x="558" y="722" type="curve"/>
      <point x="497" y="722"/>
      <point x="558" y="722"/>
      <point x="497" y="722" type="curve"/>
      <point x="439" y="481"/>
      <point x="381" y="241"/>
      <point x="322" y="0" type="curve"/>
      <point x="386" y="0"/>
      <point x="322" y="0"/>
    </contour>
  </outline>
</glyph>
<glyph name="S" format="1">
  <advance width="437"/>
  <unicode hex="0053"/>
  <outline>
    <contour>
      <point x="287" y="662" type="curve"/>
      <point x="287" y="542"/>
      <point x="287" y="660"/>
      <point x="287" y="540" type="curve"/>
      <point x="346" y="540"/>
      <point x="287" y="540"/>
      <point x="346" y="540" type="curve"/>
      <point x="346" y="660"/>
      <point x="346" y="542"/>
      <point x="346" y="662" type="curve"/>
      <point x="287" y="662"/>
      <point x="346" y="662"/>
    </contour>
    <contour>
      <point x="129" y="56" type="curve"/>
      <point x="129" y="176"/>
      <point x="129" y="63"/>
      <point x="129" y="183" type="curve"/>
      <point x="70" y="183"/>
      <point x="129" y="183"/>
      <point x="70" y="183" type="curve"/>
      <point x="70" y="63"/>
      <point x="70" y="176"/>
      <point x="70" y="56" type="curve"/>
      <point x="129" y="56"/>
      <point x="70" y="56"/>
    </contour>
    <contour>
      <point x="70" y="56" type="curve"/>
      <point x="104" y="20"/>
      <point x="147" y="-5"/>
      <point x="205" y="-5" type="curve"/>
      <point x="312" y="-5"/>
      <point x="378" y="69"/>
      <point x="378" y="179" type="curve"/>
      <point x="378" y="281"/>
      <point x="325" y="342"/>
      <point x="242" y="401" type="curve" smooth="yes"/>
      <point x="184" y="444"/>
      <point x="145" y="488"/>
      <point x="145" y="553" type="curve"/>
      <point x="144" y="613"/>
      <point x="166" y="665"/>
      <point x="218" y="665" type="curve"/>
      <point x="258" y="665"/>
      <point x="296" y="637"/>
      <point x="312" y="615" type="curve"/>
      <point x="341" y="655"/>
      <point x="318" y="623"/>
      <point x="346" y="662" type="curve"/>
      <point x="311" y="700"/>
      <point x="273" y="722"/>
      <point x="220" y="722" type="curve"/>
      <point x="124" y="722"/>
      <point x="72" y="651"/>
      <point x="72" y="550" type="curve"/>
      <point x="72" y="457"/>
      <point x="121" y="400"/>
      <point x="197" y="347" type="curve" smooth="yes"/>
      <point x="261" y="300"/>
      <point x="305" y="251"/>
      <point x="305" y="180" type="curve"/>
      <point x="305" y="118"/>
      <point x="268" y="56"/>
      <point x="210" y="56" type="curve"/>
      <point x="165" y="56"/>
      <point x="135" y="84"/>
      <point x="109" y="111" type="curve"/>
      <point x="75" y="64"/>
      <point x="104" y="103"/>
    </contour>
    <contour>
      <point x="221" y="806" type="move" name="top"/>
    </contour>
    <contour>
      <point x="233" y="-51" type="move" name="bottom"/>
    </contour>
  </outline>
</glyph>
<glyph name="U" format="1">
  <advance width="606"/>
  <unicode hex="0055"/>
  <outline>
    <contour>
      <point x="461" y="663" type="curve"/>
      <point x="582" y="663"/>
      <point x="455" y="663"/>
      <point x="576" y="663" type="curve"/>
      <point x="576" y="722"/>
      <point x="576" y="663"/>
      <point x="576" y="722" type="curve"/>
      <point x="536" y="722"/>
      <point x="501" y="722"/>
      <point x="461" y="722" type="curve"/>
      <point x="461" y="663"/>
      <point x="461" y="722"/>
    </contour>
    <contour>
      <point x="461" y="722" type="curve"/>
      <point x="421" y="722"/>
      <point x="386" y="722"/>
      <point x="346" y="722" type="curve"/>
      <point x="346" y="663"/>
      <point x="346" y="722"/>
      <point x="346" y="663" type="curve"/>
      <point x="467" y="663"/>
      <point x="340" y="663"/>
      <point x="461" y="663" type="curve"/>
      <point x="461" y="722"/>
      <point x="461" y="663"/>
    </contour>
    <contour>
      <point x="146" y="722" type="curve"/>
      <point x="106" y="722"/>
      <point x="71" y="722"/>
      <point x="31" y="722" type="curve"/>
      <point x="31" y="663"/>
      <point x="31" y="722"/>
      <point x="31" y="663" type="curve"/>
      <point x="152" y="663"/>
      <point x="25" y="663"/>
      <point x="146" y="663" type="curve"/>
      <point x="146" y="722"/>
      <point x="146" y="663"/>
    </contour>
    <contour>
      <point x="146" y="663" type="curve"/>
      <point x="266" y="663"/>
      <point x="140" y="663"/>
      <point x="260" y="663" type="curve"/>
      <point x="260" y="722"/>
      <point x="260" y="663"/>
      <point x="260" y="722" type="curve"/>
      <point x="221" y="722"/>
      <point x="186" y="722"/>
      <point x="146" y="722" type="curve"/>
      <point x="146" y="663"/>
      <point x="146" y="722"/>
    </contour>
    <contour>
      <point x="111" y="702" type="curve"/>
      <point x="111" y="561"/>
      <point x="110" y="412"/>
      <point x="111" y="271" type="curve"/>
      <point x="111" y="106"/>
      <point x="153" y="-5"/>
      <point x="301" y="-5" type="curve"/>
      <point x="449" y="-5"/>
      <point x="495" y="106"/>
      <point x="495" y="272" type="curve"/>
      <point x="495" y="412"/>
      <point x="495" y="562"/>
      <point x="495" y="702" type="curve"/>
      <point x="427" y="702"/>
      <point x="495" y="702"/>
      <point x="428" y="702" type="curve"/>
      <point x="428" y="558"/>
      <point x="428" y="407"/>
      <point x="428" y="263" type="curve"/>
      <point x="428" y="147"/>
      <point x="402" y="60"/>
      <point x="306" y="60" type="curve"/>
      <point x="197" y="60"/>
      <point x="178" y="155"/>
      <point x="178" y="283" type="curve"/>
      <point x="178" y="420"/>
      <point x="178" y="566"/>
      <point x="178" y="702" type="curve"/>
      <point x="110" y="702"/>
      <point x="178" y="702"/>
    </contour>
    <contour>
      <point x="305" y="806" type="move" name="top"/>
    </contour>
    <contour>
      <point x="329" y="-51" type="move" name="bottom"/>
    </contour>
  </outline>
</glyph>
<glyph name="V" format="1">
  <advance width="561"/>
  <unicode hex="0056"/>
  <outline>
    <contour>
      <point x="437" y="722" type="curve"/>
      <point x="396" y="722"/>
      <point x="360" y="722"/>
      <point x="318" y="722" type="curve"/>
      <point x="318" y="663"/>
      <point x="318" y="722"/>
      <point x="318" y="663" type="curve"/>
      <point x="443" y="663"/>
      <point x="312" y="663"/>
      <point x="437" y="663" type="curve"/>
      <point x="437" y="722"/>
      <point x="437" y="663"/>
    </contour>
    <contour>
      <point x="98" y="722" type="curve"/>
      <point x="61" y="722"/>
      <point x="28" y="722"/>
      <point x="-10" y="722" type="curve"/>
      <point x="-10" y="663"/>
      <point x="-10" y="722"/>
      <point x="-10" y="663" type="curve"/>
      <point x="104" y="663"/>
      <point x="-16" y="663"/>
      <point x="98" y="663" type="curve"/>
      <point x="98" y="722"/>
      <point x="98" y="663"/>
    </contour>
    <contour>
      <point x="440" y="663" type="curve"/>
      <point x="554" y="663"/>
      <point x="434" y="663"/>
      <point x="548" y="663" type="curve"/>
      <point x="548" y="722"/>
      <point x="548" y="663"/>
      <point x="548" y="722" type="curve"/>
      <point x="511" y="722"/>
      <point x="478" y="722"/>
      <point x="440" y="722" type="curve"/>
      <point x="440" y="663"/>
      <point x="440" y="722"/>
    </contour>
    <contour>
      <point x="102" y="663" type="curve"/>
      <point x="227" y="663"/>
      <point x="96" y="663"/>
      <point x="221" y="663" type="curve"/>
      <point x="221" y="722"/>
      <point x="221" y="663"/>
      <point x="221" y="722" type="curve"/>
      <point x="180" y="722"/>
      <point x="143" y="722"/>
      <point x="102" y="722" type="curve"/>
      <point x="102" y="663"/>
      <point x="102" y="722"/>
    </contour>
    <contour>
      <point x="411" y="722" type="curve"/>
      <point x="354" y="481"/>
      <point x="298" y="241"/>
      <point x="243" y="0" type="curve"/>
      <point x="318" y="0"/>
      <point x="235" y="0"/>
      <point x="311" y="0" type="curve"/>
      <point x="369" y="241"/>
      <point x="427" y="481"/>
      <point x="485" y="722" type="curve"/>
      <point x="411" y="722"/>
      <point x="485" y="722"/>
    </contour>
    <contour>
      <point x="53" y="722" type="curve"/>
      <point x="112" y="481"/>
      <point x="172" y="241"/>
      <point x="231" y="0" type="curve"/>
      <point x="307" y="0"/>
      <point x="225" y="0"/>
      <point x="301" y="0" type="curve"/>
      <point x="244" y="241"/>
      <point x="187" y="481"/>
      <point x="130" y="722" type="curve"/>
      <point x="53" y="722"/>
      <point x="130" y="722"/>
    </contour>
  </outline>
</glyph>
<glyph name="W" format="1">
  <advance width="689"/>
  <unicode hex="0057"/>
  <outline>
    <contour>
      <point x="111" y="663" type="curve"/>
      <point x="219" y="663"/>
      <point x="105" y="663"/>
      <point x="213" y="663" type="curve"/>
      <point x="213" y="722"/>
      <point x="213" y="663"/>
      <point x="213" y="722" type="curve"/>
      <point x="177" y="722"/>
      <point x="147" y="722"/>
      <point x="111" y="722" type="curve"/>
      <point x="111" y="663"/>
      <point x="111" y="722"/>
    </contour>
    <contour>
      <point x="106" y="722" type="curve"/>
      <point x="69" y="722"/>
      <point x="37" y="722"/>
      <point x="0" y="722" type="curve"/>
      <point x="0" y="663"/>
      <point x="0" y="722"/>
      <point x="0" y="663" type="curve"/>
      <point x="112" y="663"/>
      <point x="-6" y="663"/>
      <point x="106" y="663" type="curve"/>
      <point x="106" y="722"/>
      <point x="106" y="663"/>
    </contour>
    <contour>
      <point x="570" y="722" type="curve"/>
      <point x="534" y="722"/>
      <point x="504" y="722"/>
      <point x="468" y="722" type="curve"/>
      <point x="468" y="663"/>
      <point x="468" y="722"/>
      <point x="468" y="663" type="curve"/>
      <point x="576" y="663"/>
      <point x="462" y="663"/>
      <point x="570" y="663" type="curve"/>
      <point x="570" y="722"/>
      <point x="570" y="663"/>
    </contour>
    <contour>
      <point x="573" y="663" type="curve"/>
      <point x="685" y="663"/>
      <point x="567" y="663"/>
      <point x="679" y="663" type="curve"/>
      <point x="679" y="722"/>
      <point x="679" y="663"/>
      <point x="679" y="722" type="curve"/>
      <point x="642" y="722"/>
      <point x="610" y="722"/>
      <point x="573" y="722" type="curve"/>
      <point x="573" y="663"/>
      <point x="573" y="722"/>
    </contour>
    <contour>
      <point x="244" y="0" type="curve"/>
      <point x="287" y="241"/>
      <point x="329" y="481"/>
      <point x="371" y="722" type="curve"/>
      <point x="310" y="722"/>
      <point x="371" y="722"/>
      <point x="310" y="722" type="curve"/>
      <point x="271" y="482"/>
      <point x="231" y="242"/>
      <point x="191" y="0" type="curve"/>
      <point x="248" y="0"/>
      <point x="188" y="0"/>
    </contour>
    <contour>
      <point x="315" y="722" type="curve"/>
      <point x="353" y="481"/>
      <point x="391" y="241"/>
      <point x="430" y="0" type="curve"/>
      <point x="486" y="0"/>
      <point x="424" y="0"/>
      <point x="481" y="0" type="curve"/>
      <point x="445" y="243"/>
      <point x="411" y="481"/>
      <point x="376" y="722" type="curve"/>
      <point x="314" y="722"/>
      <point x="376" y="722"/>
    </contour>
    <contour>
      <point x="68" y="722" type="curve"/>
      <point x="107" y="481"/>
      <point x="145" y="241"/>
      <point x="184" y="0" type="curve"/>
      <point x="241" y="0"/>
      <point x="184" y="0"/>
      <point x="242" y="0" type="curve"/>
      <point x="205" y="241"/>
      <point x="168" y="481"/>
      <point x="131" y="722" type="curve"/>
      <point x="68" y="722"/>
      <point x="131" y="722"/>
    </contour>
    <contour>
      <point x="547" y="722" type="curve"/>
      <point x="509" y="481"/>
      <point x="470" y="241"/>
      <point x="432" y="0" type="curve"/>
      <point x="489" y="0"/>
      <point x="433" y="0"/>
      <point x="490" y="0" type="curve"/>
      <point x="530" y="241"/>
      <point x="570" y="481"/>
      <point x="611" y="722" type="curve"/>
      <point x="547" y="722"/>
      <point x="611" y="722"/>
    </contour>
  </outline>
</glyph>
<glyph name="X" format="1">
  <advance width="529"/>
  <unicode hex="0058"/>
  <outline>
    <contour>
      <point x="121" y="0" type="curve"/>
      <point x="159" y="0"/>
      <point x="115" y="0"/>
      <point x="230" y="0" type="curve"/>
      <point x="230" y="59"/>
      <point x="230" y="0"/>
      <point x="230" y="59" type="curve"/>
      <point x="115" y="59"/>
      <point x="236" y="59"/>
      <point x="121" y="59" type="curve"/>
      <point x="121" y="0"/>
      <point x="121" y="59"/>
    </contour>
    <contour>
      <point x="111" y="59" type="curve"/>
      <point x="-1" y="59"/>
      <point x="117" y="59"/>
      <point x="5" y="59" type="curve"/>
      <point x="5" y="0"/>
      <point x="5" y="59"/>
      <point x="5" y="0" type="curve"/>
      <point x="42" y="0"/>
      <point x="74" y="0"/>
      <point x="111" y="0" type="curve"/>
      <point x="111" y="59"/>
      <point x="111" y="0"/>
    </contour>
    <contour>
      <point x="415" y="0" type="curve"/>
      <point x="452" y="0"/>
      <point x="484" y="0"/>
      <point x="520" y="0" type="curve"/>
      <point x="520" y="59"/>
      <point x="520" y="0"/>
      <point x="520" y="59" type="curve"/>
      <point x="409" y="59"/>
      <point x="526" y="59"/>
      <point x="415" y="59" type="curve"/>
      <point x="415" y="0"/>
      <point x="415" y="59"/>
    </contour>
    <contour>
      <point x="405" y="59" type="curve"/>
      <point x="290" y="59"/>
      <point x="411" y="59"/>
      <point x="296" y="59" type="curve"/>
      <point x="296" y="0"/>
      <point x="296" y="59"/>
      <point x="296" y="0" type="curve"/>
      <point x="334" y="0"/>
      <point x="367" y="0"/>
      <point x="405" y="0" type="curve"/>
      <point x="405" y="59"/>
      <point x="405" y="0"/>
    </contour>
    <contour>
      <point x="401" y="663" type="curve"/>
      <point x="513" y="663"/>
      <point x="395" y="663"/>
      <point x="507" y="663" type="curve"/>
      <point x="507" y="722"/>
      <point x="507" y="663"/>
      <point x="507" y="722" type="curve"/>
      <point x="470" y="722"/>
      <point x="438" y="722"/>
      <point x="401" y="722" type="curve"/>
      <point x="401" y="663"/>
      <point x="401" y="722"/>
    </contour>
    <contour>
      <point x="409" y="722" type="curve"/>
      <point x="369" y="722"/>
      <point x="334" y="722"/>
      <point x="294" y="722" type="curve"/>
      <point x="294" y="663"/>
      <point x="294" y="722"/>
      <point x="294" y="663" type="curve"/>
      <point x="415" y="663"/>
      <point x="288" y="663"/>
      <point x="409" y="663" type="curve"/>
      <point x="409" y="722"/>
      <point x="409" y="663"/>
    </contour>
    <contour>
      <point x="127" y="722" type="curve"/>
      <point x="90" y="722"/>
      <point x="58" y="722"/>
      <point x="21" y="722" type="curve"/>
      <point x="21" y="663"/>
      <point x="21" y="722"/>
      <point x="21" y="663" type="curve"/>
      <point x="133" y="663"/>
      <point x="15" y="663"/>
      <point x="127" y="663" type="curve"/>
      <point x="127" y="722"/>
      <point x="127" y="663"/>
    </contour>
    <contour>
      <point x="119" y="663" type="curve"/>
      <point x="240" y="663"/>
      <point x="113" y="663"/>
      <point x="234" y="663" type="curve"/>
      <point x="234" y="722"/>
      <point x="234" y="663"/>
      <point x="234" y="722" type="curve"/>
      <point x="194" y="722"/>
      <point x="159" y="722"/>
      <point x="119" y="722" type="curve"/>
      <point x="119" y="663"/>
      <point x="119" y="722"/>
    </contour>
    <contour>
      <point x="379" y="722" type="curve"/>
      <point x="272" y="480"/>
      <point x="167" y="239"/>
      <point x="61" y="-3" type="curve"/>
      <point x="137" y="-3"/>
      <point x="61" y="0"/>
      <point x="137" y="0" type="curve"/>
      <point x="242" y="242"/>
      <point x="347" y="483"/>
      <point x="452" y="725" type="curve"/>
      <point x="379" y="725"/>
      <point x="452" y="722"/>
    </contour>
    <contour>
      <point x="78" y="725" type="curve"/>
      <point x="182" y="483"/>
      <point x="286" y="242"/>
      <point x="391" y="0" type="curve"/>
      <point x="465" y="0"/>
      <point x="391" y="-2"/>
      <point x="465" y="-2" type="curve"/>
      <point x="361" y="240"/>
      <point x="256" y="480"/>
      <point x="152" y="722" type="curve"/>
      <point x="78" y="722"/>
      <point x="152" y="725"/>
    </contour>
  </outline>
</glyph>
<glyph name="Y" format="1">
  <advance width="514"/>
  <unicode hex="0059"/>
  <outline>
    <contour>
      <point x="246" y="59" type="curve"/>
      <point x="124" y="59"/>
      <point x="252" y="59"/>
      <point x="130" y="59" type="curve"/>
      <point x="130" y="0"/>
      <point x="130" y="59"/>
      <point x="130" y="0" type="curve"/>
      <point x="170" y="0"/>
      <point x="205" y="0"/>
      <point x="246" y="0" type="curve"/>
      <point x="246" y="59"/>
      <point x="246" y="0"/>
    </contour>
    <contour>
      <point x="246" y="0" type="curve"/>
      <point x="286" y="0"/>
      <point x="322" y="0"/>
      <point x="362" y="0" type="curve"/>
      <point x="362" y="59"/>
      <point x="362" y="0"/>
      <point x="362" y="59" type="curve"/>
      <point x="240" y="59"/>
      <point x="368" y="59"/>
      <point x="246" y="59" type="curve"/>
      <point x="246" y="0"/>
      <point x="246" y="59"/>
    </contour>
    <contour>
      <point x="390" y="722" type="curve"/>
      <point x="352" y="722"/>
      <point x="318" y="722"/>
      <point x="279" y="722" type="curve"/>
      <point x="279" y="663"/>
      <point x="279" y="722"/>
      <point x="279" y="663" type="curve"/>
      <point x="396" y="663"/>
      <point x="273" y="663"/>
      <point x="390" y="663" type="curve"/>
      <point x="390" y="722"/>
      <point x="390" y="663"/>
    </contour>
    <contour>
      <point x="100" y="722" type="curve"/>
      <point x="65" y="722"/>
      <point x="36" y="722"/>
      <point x="1" y="722" type="curve"/>
      <point x="0" y="663"/>
      <point x="1" y="722"/>
      <point x="0" y="663" type="curve"/>
      <point x="106" y="663"/>
      <point x="-6" y="663"/>
      <point x="100" y="663" type="curve"/>
      <point x="100" y="722"/>
      <point x="100" y="663"/>
    </contour>
    <contour>
      <point x="110" y="663" type="curve"/>
      <point x="227" y="663"/>
      <point x="104" y="663"/>
      <point x="221" y="663" type="curve"/>
      <point x="221" y="722"/>
      <point x="221" y="663"/>
      <point x="221" y="722" type="curve"/>
      <point x="182" y="722"/>
      <point x="148" y="722"/>
      <point x="110" y="722" type="curve"/>
      <point x="110" y="663"/>
      <point x="110" y="722"/>
    </contour>
    <contour>
      <point x="400" y="663" type="curve"/>
      <point x="509" y="663"/>
      <point x="394" y="663"/>
      <point x="503" y="663" type="curve"/>
      <point x="503" y="722"/>
      <point x="503" y="663"/>
      <point x="503" y="722" type="curve"/>
      <point x="467" y="722"/>
      <point x="436" y="722"/>
      <point x="400" y="722" type="curve"/>
      <point x="400" y="663"/>
      <point x="400" y="722"/>
    </contour>
    <contour>
      <point x="58" y="725" type="curve"/>
      <point x="108" y="596"/>
      <point x="157" y="468"/>
      <point x="206" y="337" type="curve"/>
      <point x="281" y="337"/>
      <point x="195" y="337"/>
      <point x="270" y="337" type="curve"/>
      <point x="225" y="467"/>
      <point x="181" y="592"/>
      <point x="135" y="722" type="curve"/>
      <point x="58" y="722"/>
      <point x="135" y="725"/>
    </contour>
    <contour>
      <point x="365" y="722" type="curve"/>
      <point x="315" y="591"/>
      <point x="268" y="467"/>
      <point x="217" y="337" type="curve"/>
      <point x="292" y="337"/>
      <point x="211" y="337"/>
      <point x="286" y="337" type="curve"/>
      <point x="338" y="467"/>
      <point x="389" y="596"/>
      <point x="442" y="724" type="curve"/>
      <point x="365" y="724"/>
      <point x="442" y="722"/>
    </contour>
    <contour>
      <point x="286" y="0" type="curve"/>
      <point x="286" y="115"/>
      <point x="286" y="227"/>
      <point x="286" y="342" type="curve"/>
      <point x="206" y="342"/>
      <point x="286" y="342"/>
      <point x="206" y="342" type="curve"/>
      <point x="206" y="227"/>
      <point x="206" y="115"/>
      <point x="206" y="0" type="curve"/>
      <point x="286" y="0"/>
      <point x="206" y="0"/>
    </contour>
    <contour>
      <point x="250" y="806" type="move" name="top"/>
    </contour>
  </outline>
</glyph>
<glyph name="Z" format="1">
  <advance width="487"/>
  <unicode hex="005A"/>
  <outline>
    <contour>
      <point x="62" y="693" type="curve"/>
      <point x="62" y="573"/>
      <point x="62" y="699"/>
      <point x="62" y="579" type="curve"/>
      <point x="121" y="579"/>
      <point x="62" y="579"/>
      <point x="121" y="579" type="curve"/>
      <point x="121" y="699"/>
      <point x="121" y="573"/>
      <point x="121" y="693" type="curve"/>
      <point x="62" y="693"/>
      <point x="121" y="693"/>
    </contour>
    <contour>
      <point x="444" y="29" type="curve"/>
      <point x="444" y="149"/>
      <point x="444" y="23"/>
      <point x="444" y="143" type="curve"/>
      <point x="386" y="143"/>
      <point x="444" y="143"/>
      <point x="386" y="143" type="curve"/>
      <point x="386" y="23"/>
      <point x="386" y="149"/>
      <point x="386" y="29" type="curve"/>
      <point x="444" y="29"/>
      <point x="386" y="29"/>
    </contour>
    <contour>
      <point x="62" y="663" type="curve"/>
      <point x="164" y="663"/>
      <point x="288" y="663"/>
      <point x="391" y="663" type="curve"/>
      <point x="384" y="669"/>
      <point x="375" y="670"/>
      <point x="369" y="675" type="curve"/>
      <point x="363" y="679"/>
      <point x="365" y="689"/>
      <point x="360" y="694" type="curve"/>
      <point x="355" y="687"/>
      <point x="348" y="690"/>
      <point x="344" y="683" type="curve"/>
      <point x="36" y="59" type="line"/>
      <point x="36" y="28"/>
      <point x="36" y="59"/>
      <point x="36" y="28" type="curve"/>
      <point x="36" y="0"/>
      <point x="36" y="28"/>
      <point x="36" y="0" type="curve"/>
      <point x="63" y="0"/>
      <point x="36" y="0"/>
      <point x="63" y="0" type="curve"/>
      <point x="428" y="0"/>
      <point x="322" y="0"/>
      <point x="444" y="0" type="curve"/>
      <point x="444" y="59"/>
      <point x="444" y="0"/>
      <point x="444" y="59" type="curve"/>
      <point x="322" y="59"/>
      <point x="184" y="59"/>
      <point x="63" y="59" type="curve"/>
      <point x="68" y="54"/>
      <point x="76" y="53"/>
      <point x="81" y="49" type="curve"/>
      <point x="87" y="44"/>
      <point x="86" y="33"/>
      <point x="93" y="28" type="curve"/>
      <point x="96" y="35"/>
      <point x="104" y="33"/>
      <point x="108" y="39" type="curve"/>
      <point x="419" y="663" type="line"/>
      <point x="419" y="694"/>
      <point x="419" y="663"/>
      <point x="419" y="694" type="curve"/>
      <point x="419" y="722"/>
      <point x="419" y="694"/>
      <point x="419" y="722" type="curve"/>
      <point x="392" y="722"/>
      <point x="419" y="722"/>
      <point x="392" y="722" type="curve"/>
      <point x="289" y="722"/>
      <point x="165" y="722"/>
      <point x="62" y="722" type="curve"/>
      <point x="62" y="663"/>
      <point x="62" y="722"/>
    </contour>
    <contour>
      <point x="246" y="806" type="move" name="top"/>
    </contour>
  </outline>
</glyph>
<glyph name="bracketleft" format="1">
  <advance width="242"/>
  <unicode hex="005B"/>
  <outline>
    <contour>
      <point x="202" y="770" type="curve"/>
      <point x="170" y="770"/>
      <point x="138" y="770"/>
      <point x="106" y="770" type="curve"/>
      <point x="98" y="770"/>
      <point x="81" y="770"/>
      <point x="74" y="770" type="curve"/>
      <point x="74" y="762"/>
      <point x="74" y="752"/>
      <point x="74" y="744" type="curve"/>
      <point x="74" y="464"/>
      <point x="74" y="185"/>
      <point x="74" y="-95" type="curve"/>
      <point x="74" y="-103"/>
      <point x="74" y="-108"/>
      <point x="74" y="-119" type="curve"/>
      <point x="81" y="-119"/>
      <point x="98" y="-119"/>
      <point x="105" y="-119" type="curve"/>
      <point x="137" y="-119"/>
      <point x="170" y="-119"/>
      <point x="202" y="-119" type="curve"/>
      <point x="202" y="-55"/>
      <point x="202" y="-119"/>
      <point x="202" y="-55" type="curve"/>
      <point x="170" y="-55"/>
      <point x="137" y="-55"/>
      <point x="105" y="-55" type="curve"/>
      <point x="147" y="-55"/>
      <point x="105" y="-55"/>
      <point x="147" y="-55" type="curve"/>
      <point x="147" y="-95"/>
      <point x="147" y="-55"/>
      <point x="147" y="-95" type="curve"/>
      <point x="147" y="185"/>
      <point x="147" y="464"/>
      <point x="147" y="744" type="curve"/>
      <point x="147" y="706"/>
      <point x="147" y="744"/>
      <point x="147" y="706" type="curve"/>
      <point x="106" y="706"/>
      <point x="147" y="706"/>
      <point x="106" y="706" type="curve"/>
      <point x="138" y="706"/>
      <point x="170" y="706"/>
      <point x="202" y="706" type="curve"/>
      <point x="202" y="770"/>
      <point x="202" y="706"/>
    </contour>
  </outline>
</glyph>
<glyph name="backslash" format="1">
  <advance width="390"/>
  <unicode hex="005C"/>
  <outline>
    <contour>
      <point x="356" y="-68" type="curve"/>
      <point x="274" y="236"/>
      <point x="192" y="540"/>
      <point x="110" y="844" type="curve"/>
      <point x="33" y="844"/>
      <point x="110" y="844"/>
      <point x="33" y="844" type="curve"/>
      <point x="116" y="540"/>
      <point x="198" y="236"/>
      <point x="281" y="-68" type="curve"/>
      <point x="356" y="-68"/>
      <point x="281" y="-68"/>
    </contour>
  </outline>
</glyph>
<glyph name="asciicircum" format="1">
  <advance width="411"/>
  <unicode hex="005E"/>
  <outline>
    <contour>
      <point x="132" y="461" type="curve"/>
      <point x="169" y="570"/>
      <point x="205" y="678"/>
      <point x="242" y="787" type="curve"/>
      <point x="169" y="787"/>
      <point x="242" y="787"/>
      <point x="169" y="787" type="curve"/>
      <point x="132" y="678"/>
      <point x="96" y="570"/>
      <point x="59" y="461" type="curve"/>
      <point x="132" y="461"/>
      <point x="59" y="461"/>
    </contour>
    <contour>
      <point x="353" y="461" type="curve"/>
      <point x="317" y="567"/>
      <point x="278" y="680"/>
      <point x="242" y="787" type="curve"/>
      <point x="169" y="787"/>
      <point x="242" y="787"/>
      <point x="169" y="787" type="curve"/>
      <point x="205" y="680"/>
      <point x="244" y="567"/>
      <point x="280" y="461" type="curve"/>
      <point x="353" y="461"/>
      <point x="280" y="461"/>
    </contour>
  </outline>
</glyph>
<glyph name="underscore" format="1">
  <advance width="430"/>
  <unicode hex="005F"/>
  <outline>
    <contour>
      <point x="-1" y="-199" type="curve"/>
      <point x="143" y="-199"/>
      <point x="286" y="-199"/>
      <point x="429" y="-199" type="curve"/>
      <point x="429" y="-140"/>
      <point x="429" y="-199"/>
      <point x="429" y="-140" type="curve"/>
      <point x="286" y="-140"/>
      <point x="143" y="-140"/>
      <point x="-1" y="-140" type="curve"/>
      <point x="-1" y="-199"/>
      <point x="-1" y="-140"/>
    </contour>
  </outline>
</glyph>
<glyph name="grave" format="1">
  <advance width="318"/>
  <unicode hex="0060"/>
  <outline>
    <contour>
      <point x="201" y="594" type="line"/>
      <point x="142" y="760" type="line"/>
      <point x="54" y="760" type="line"/>
      <point x="133" y="594" type="line"/>
    </contour>
    <contour>
      <point x="167" y="594" type="move" name="_top"/>
    </contour>
  </outline>
</glyph>
<glyph name="a" format="1">
  <advance width="433"/>
  <unicode hex="0061"/>
  <outline>
    <contour>
      <point x="73" y="463" type="curve"/>
      <point x="73" y="347"/>
      <point x="73" y="470"/>
      <point x="73" y="354" type="curve"/>
      <point x="132" y="354"/>
      <point x="73" y="354"/>
      <point x="132" y="354" type="curve"/>
      <point x="132" y="470"/>
      <point x="132" y="347"/>
      <point x="132" y="463" type="curve"/>
      <point x="73" y="463"/>
      <point x="132" y="463"/>
    </contour>
    <contour>
      <point x="349" y="0" type="curve"/>
      <point x="349" y="127"/>
      <point x="349" y="255"/>
      <point x="349" y="382" type="curve"/>
      <point x="349" y="483"/>
      <point x="303" y="538"/>
      <point x="213" y="538" type="curve"/>
      <point x="146" y="538"/>
      <point x="102" y="502"/>
      <point x="73" y="463" type="curve"/>
      <point x="105" y="414"/>
      <point x="73" y="463"/>
      <point x="104" y="415" type="curve"/>
      <point x="122" y="440"/>
      <point x="155" y="477"/>
      <point x="203" y="477" type="curve"/>
      <point x="258" y="477"/>
      <point x="276" y="435"/>
      <point x="276" y="371" type="curve"/>
      <point x="276" y="247"/>
      <point x="276" y="124"/>
      <point x="276" y="0" type="curve"/>
      <point x="349" y="0"/>
      <point x="276" y="0"/>
    </contour>
    <contour>
      <point x="313" y="0" type="curve"/>
      <point x="351" y="0"/>
      <point x="384" y="0"/>
      <point x="421" y="0" type="curve"/>
      <point x="421" y="59"/>
      <point x="421" y="0"/>
      <point x="421" y="59" type="curve"/>
      <point x="307" y="59"/>
      <point x="427" y="59"/>
      <point x="313" y="59" type="curve"/>
      <point x="313" y="0"/>
      <point x="313" y="59"/>
    </contour>
    <contour>
      <point x="309" y="334" type="curve"/>
      <point x="260" y="324"/>
      <point x="235" y="320"/>
      <point x="186" y="310" type="curve"/>
      <point x="102" y="293"/>
      <point x="53" y="240"/>
      <point x="53" y="151" type="curve"/>
      <point x="53" y="60"/>
      <point x="85" y="-5"/>
      <point x="171" y="-5" type="curve"/>
      <point x="264" y="-5"/>
      <point x="295" y="79"/>
      <point x="333" y="152" type="curve"/>
      <point x="294" y="186"/>
      <point x="333" y="152"/>
      <point x="294" y="186" type="curve"/>
      <point x="275" y="119"/>
      <point x="250" y="54"/>
      <point x="189" y="54" type="curve"/>
      <point x="134" y="54"/>
      <point x="124" y="97"/>
      <point x="124" y="156" type="curve"/>
      <point x="124" y="206"/>
      <point x="147" y="248"/>
      <point x="188" y="257" type="curve"/>
      <point x="240" y="268"/>
      <point x="261" y="273"/>
      <point x="313" y="283" type="curve"/>
      <point x="309" y="334"/>
      <point x="313" y="283"/>
    </contour>
    <contour>
      <point x="214" y="645" type="move" name="top"/>
    </contour>
    <contour>
      <point x="350" y="1" type="move" name="bottom"/>
    </contour>
  </outline>
</glyph>
<glyph name="b" format="1">
  <advance width="487"/>
  <unicode hex="0062"/>
  <outline>
    <contour>
      <point x="133" y="800" type="curve"/>
      <point x="93" y="800"/>
      <point x="57" y="800"/>
      <point x="17" y="800" type="curve"/>
      <point x="17" y="737"/>
      <point x="17" y="805"/>
      <point x="17" y="741" type="curve"/>
      <point x="146" y="741"/>
      <point x="5" y="741"/>
      <point x="133" y="741" type="curve"/>
      <point x="133" y="805"/>
      <point x="133" y="736"/>
    </contour>
    <contour>
      <point x="152" y="384" type="curve"/>
      <point x="164" y="420"/>
      <point x="205" y="477"/>
      <point x="261" y="477" type="curve"/>
      <point x="347" y="477"/>
      <point x="362" y="374"/>
      <point x="362" y="266" type="curve"/>
      <point x="363" y="163"/>
      <point x="342" y="56"/>
      <point x="262" y="56" type="curve"/>
      <point x="216" y="56"/>
      <point x="178" y="96"/>
      <point x="157" y="148" type="curve"/>
      <point x="114" y="118"/>
      <point x="162" y="147"/>
      <point x="120" y="117" type="curve"/>
      <point x="148" y="50"/>
      <point x="194" y="-5"/>
      <point x="268" y="-5" type="curve"/>
      <point x="391" y="-5"/>
      <point x="435" y="122"/>
      <point x="435" y="269" type="curve"/>
      <point x="435" y="412"/>
      <point x="393" y="538"/>
      <point x="269" y="538" type="curve"/>
      <point x="189" y="538"/>
      <point x="139" y="471"/>
      <point x="121" y="416" type="curve"/>
      <point x="155" y="385"/>
      <point x="118" y="415"/>
    </contour>
    <contour>
      <point x="168" y="0" type="curve"/>
      <point x="168" y="264"/>
      <point x="168" y="536"/>
      <point x="168" y="800" type="curve"/>
      <point x="89" y="800"/>
      <point x="174" y="800"/>
      <point x="95" y="800" type="curve"/>
      <point x="95" y="536"/>
      <point x="95" y="264"/>
      <point x="95" y="0" type="curve"/>
      <point x="174" y="0"/>
      <point x="89" y="0"/>
    </contour>
    <contour>
      <point x="133" y="59" type="curve"/>
      <point x="5" y="59"/>
      <point x="146" y="59"/>
      <point x="17" y="59" type="curve"/>
      <point x="17" y="-5"/>
      <point x="17" y="63"/>
      <point x="17" y="0" type="curve"/>
      <point x="57" y="0"/>
      <point x="93" y="0"/>
      <point x="133" y="0" type="curve"/>
      <point x="133" y="63"/>
      <point x="133" y="-4"/>
    </contour>
  </outline>
</glyph>
<glyph name="d" format="1">
  <advance width="490"/>
  <unicode hex="0064"/>
  <outline>
    <contour>
      <point x="356" y="800" type="curve"/>
      <point x="312" y="800"/>
      <point x="283" y="800"/>
      <point x="240" y="800" type="curve"/>
      <point x="240" y="741"/>
      <point x="240" y="800"/>
      <point x="240" y="741" type="curve"/>
      <point x="369" y="741"/>
      <point x="227" y="741"/>
      <point x="356" y="741" type="curve"/>
      <point x="356" y="800"/>
      <point x="356" y="741"/>
    </contour>
    <contour>
      <point x="357" y="0" type="curve"/>
      <point x="400" y="0"/>
      <point x="430" y="0"/>
      <point x="473" y="0" type="curve"/>
      <point x="473" y="59"/>
      <point x="473" y="0"/>
      <point x="473" y="59" type="curve"/>
      <point x="344" y="59"/>
      <point x="486" y="59"/>
      <point x="357" y="59" type="curve"/>
      <point x="357" y="0"/>
      <point x="357" y="59"/>
    </contour>
    <contour>
      <point x="361" y="446" type="curve"/>
      <point x="336" y="500"/>
      <point x="287" y="536"/>
      <point x="223" y="536" type="curve"/>
      <point x="93" y="536"/>
      <point x="51" y="406"/>
      <point x="51" y="263" type="curve"/>
      <point x="51" y="123"/>
      <point x="97" y="-3"/>
      <point x="222" y="-3" type="curve"/>
      <point x="292" y="-3"/>
      <point x="337" y="46"/>
      <point x="360" y="120" type="curve"/>
      <point x="333" y="162"/>
      <point x="361" y="120"/>
      <point x="333" y="162" type="curve"/>
      <point x="317" y="103"/>
      <point x="285" y="56"/>
      <point x="234" y="56" type="curve"/>
      <point x="145" y="56"/>
      <point x="123" y="159"/>
      <point x="123" y="266" type="curve"/>
      <point x="123" y="374"/>
      <point x="146" y="477"/>
      <point x="236" y="477" type="curve"/>
      <point x="280" y="477"/>
      <point x="316" y="445"/>
      <point x="333" y="402" type="curve"/>
      <point x="360" y="447"/>
      <point x="333" y="401"/>
    </contour>
    <contour>
      <point x="394" y="0" type="curve"/>
      <point x="394" y="267"/>
      <point x="394" y="533"/>
      <point x="394" y="800" type="curve"/>
      <point x="319" y="800"/>
      <point x="394" y="800"/>
      <point x="319" y="800" type="curve"/>
      <point x="319" y="533"/>
      <point x="319" y="267"/>
      <point x="319" y="0" type="curve"/>
      <point x="394" y="0"/>
      <point x="319" y="0"/>
    </contour>
  </outline>
</glyph>
<glyph name="f" format="1">
  <advance width="333"/>
  <unicode hex="0066"/>
  <outline>
    <contour>
      <point x="261" y="774" type="curve"/>
      <point x="261" y="658"/>
      <point x="261" y="781"/>
      <point x="261" y="665" type="curve"/>
      <point x="319" y="665"/>
      <point x="261" y="665"/>
      <point x="319" y="665" type="curve"/>
      <point x="319" y="781"/>
      <point x="319" y="658"/>
      <point x="319" y="774" type="curve"/>
      <point x="261" y="774"/>
      <point x="319" y="774"/>
    </contour>
    <contour>
      <point x="149" y="0" type="curve"/>
      <point x="188" y="0"/>
      <point x="225" y="0"/>
      <point x="264" y="0" type="curve"/>
      <point x="264" y="59"/>
      <point x="264" y="0"/>
      <point x="264" y="59" type="curve"/>
      <point x="145" y="59"/>
      <point x="268" y="59"/>
      <point x="149" y="59" type="curve"/>
      <point x="149" y="0"/>
      <point x="149" y="59"/>
    </contour>
    <contour>
      <point x="149" y="59" type="curve"/>
      <point x="30" y="59"/>
      <point x="154" y="59"/>
      <point x="34" y="59" type="curve"/>
      <point x="34" y="0"/>
      <point x="34" y="59"/>
      <point x="34" y="0" type="curve"/>
      <point x="74" y="0"/>
      <point x="110" y="0"/>
      <point x="149" y="0" type="curve"/>
      <point x="149" y="59"/>
      <point x="149" y="0"/>
    </contour>
    <contour>
      <point x="31" y="474" type="curve"/>
      <point x="279" y="474" type="line"/>
      <point x="279" y="533"/>
      <point x="279" y="474"/>
      <point x="279" y="533" type="curve"/>
      <point x="31" y="533" type="line"/>
      <point x="31" y="474"/>
      <point x="31" y="533"/>
    </contour>
    <contour>
      <point x="186" y="0" type="curve"/>
      <point x="186" y="625" type="line"/>
      <point x="186" y="689"/>
      <point x="189" y="749"/>
      <point x="240" y="749" type="curve"/>
      <point x="260" y="749"/>
      <point x="275" y="740"/>
      <point x="290" y="728" type="curve"/>
      <point x="319" y="774"/>
      <point x="290" y="728"/>
      <point x="319" y="774" type="curve"/>
      <point x="297" y="792"/>
      <point x="269" y="805"/>
      <point x="240" y="805" type="curve"/>
      <point x="150" y="805"/>
      <point x="112" y="724"/>
      <point x="113" y="625" type="curve"/>
      <point x="113" y="0" type="line"/>
      <point x="186" y="0"/>
      <point x="113" y="0"/>
    </contour>
  </outline>
</glyph>
<glyph name="h" format="1">
  <advance width="477"/>
  <unicode hex="0068"/>
  <outline>
    <contour>
      <point x="357" y="0" type="curve"/>
      <point x="397" y="0"/>
      <point x="433" y="0"/>
      <point x="473" y="0" type="curve"/>
      <point x="473" y="59"/>
      <point x="473" y="0"/>
      <point x="473" y="59" type="curve"/>
      <point x="353" y="59"/>
      <point x="477" y="59"/>
      <point x="357" y="59" type="curve"/>
      <point x="357" y="0"/>
      <point x="357" y="59"/>
    </contour>
    <contour>
      <point x="123" y="0" type="curve"/>
      <point x="156" y="0"/>
      <point x="120" y="0"/>
      <point x="220" y="0" type="curve"/>
      <point x="220" y="59"/>
      <point x="220" y="0"/>
      <point x="220" y="59" type="curve"/>
      <point x="120" y="59"/>
      <point x="223" y="59"/>
      <point x="123" y="59" type="curve"/>
      <point x="123" y="0"/>
      <point x="123" y="59"/>
    </contour>
    <contour>
      <point x="123" y="800" type="curve"/>
      <point x="83" y="800"/>
      <point x="47" y="800"/>
      <point x="7" y="800" type="curve"/>
      <point x="7" y="741"/>
      <point x="7" y="800"/>
      <point x="7" y="741" type="curve"/>
      <point x="127" y="741"/>
      <point x="3" y="741"/>
      <point x="123" y="741" type="curve"/>
      <point x="123" y="800"/>
      <point x="123" y="741"/>
    </contour>
    <contour>
      <point x="123" y="59" type="curve"/>
      <point x="3" y="59"/>
      <point x="127" y="59"/>
      <point x="7" y="59" type="curve"/>
      <point x="7" y="0"/>
      <point x="7" y="59"/>
      <point x="7" y="0" type="curve"/>
      <point x="47" y="0"/>
      <point x="83" y="0"/>
      <point x="123" y="0" type="curve"/>
      <point x="123" y="59"/>
      <point x="123" y="0"/>
    </contour>
    <contour>
      <point x="143" y="333" type="curve"/>
      <point x="154" y="396"/>
      <point x="189" y="477"/>
      <point x="251" y="477" type="curve"/>
      <point x="320" y="477"/>
      <point x="321" y="408"/>
      <point x="321" y="328" type="curve"/>
      <point x="321" y="219"/>
      <point x="321" y="109"/>
      <point x="321" y="0" type="curve"/>
      <point x="394" y="0"/>
      <point x="321" y="0"/>
      <point x="394" y="0" type="curve"/>
      <point x="394" y="111"/>
      <point x="394" y="222"/>
      <point x="394" y="334" type="curve"/>
      <point x="394" y="446"/>
      <point x="374" y="536"/>
      <point x="272" y="536" type="curve"/>
      <point x="190" y="536"/>
      <point x="134" y="450"/>
      <point x="123" y="367" type="curve"/>
      <point x="144" y="336"/>
      <point x="122" y="365"/>
    </contour>
    <contour>
      <point x="159" y="0" type="curve"/>
      <point x="159" y="267"/>
      <point x="159" y="533"/>
      <point x="159" y="800" type="curve"/>
      <point x="87" y="800"/>
      <point x="159" y="800"/>
      <point x="87" y="800" type="curve"/>
      <point x="87" y="533"/>
      <point x="87" y="267"/>
      <point x="87" y="0" type="curve"/>
      <point x="159" y="0"/>
      <point x="87" y="0"/>
    </contour>
  </outline>
</glyph>
<glyph name="i" format="1">
  <advance width="269"/>
  <unicode hex="0069"/>
  <outline>
    <contour>
      <point x="146" y="59" type="curve"/>
      <point x="26" y="59"/>
      <point x="150" y="59"/>
      <point x="30" y="59" type="curve"/>
      <point x="30" y="0"/>
      <point x="30" y="59"/>
      <point x="30" y="0" type="curve"/>
      <point x="70" y="0"/>
      <point x="106" y="0"/>
      <point x="146" y="0" type="curve"/>
      <point x="146" y="59"/>
      <point x="146" y="0"/>
    </contour>
    <contour>
      <point x="146" y="0" type="curve"/>
      <point x="183" y="0"/>
      <point x="217" y="0"/>
      <point x="255" y="0" type="curve"/>
      <point x="255" y="59"/>
      <point x="255" y="0"/>
      <point x="255" y="59" type="curve"/>
      <point x="142" y="59"/>
      <point x="260" y="59"/>
      <point x="146" y="59" type="curve"/>
      <point x="146" y="0"/>
      <point x="146" y="59"/>
    </contour>
    <contour>
      <point x="146" y="533" type="curve"/>
      <point x="106" y="533"/>
      <point x="70" y="533"/>
      <point x="30" y="533" type="curve"/>
      <point x="30" y="474"/>
      <point x="30" y="533"/>
      <point x="30" y="474" type="curve"/>
      <point x="150" y="474"/>
      <point x="26" y="474"/>
      <point x="146" y="474" type="curve"/>
      <point x="146" y="533"/>
      <point x="146" y="474"/>
    </contour>
    <contour>
      <point x="185" y="0" type="curve"/>
      <point x="185" y="178"/>
      <point x="185" y="355"/>
      <point x="185" y="533" type="curve"/>
      <point x="108" y="533"/>
      <point x="185" y="533"/>
      <point x="108" y="533" type="curve"/>
      <point x="108" y="355"/>
      <point x="108" y="178"/>
      <point x="108" y="0" type="curve"/>
      <point x="185" y="0"/>
      <point x="108" y="0"/>
    </contour>
    <contour>
      <point x="183" y="682" type="curve"/>
      <point x="183" y="708"/>
      <point x="166" y="721"/>
      <point x="143" y="721" type="curve"/>
      <point x="119" y="721"/>
      <point x="104" y="706"/>
      <point x="104" y="682" type="curve"/>
      <point x="185" y="682"/>
      <point x="101" y="682"/>
      <point x="183" y="682" type="curve"/>
      <point x="183" y="655"/>
      <point x="167" y="642"/>
      <point x="143" y="642" type="curve"/>
      <point x="118" y="642"/>
      <point x="104" y="656"/>
      <point x="104" y="682" type="curve"/>
      <point x="185" y="682"/>
      <point x="101" y="682"/>
    </contour>
    <contour>
      <point x="143" y="646" type="move" name="top"/>
    </contour>
    <contour>
      <point x="180" y="1" type="move" name="bottom"/>
    </contour>
  </outline>
</glyph>
<glyph name="j" format="1">
  <advance width="233"/>
  <unicode hex="006A"/>
  <outline>
    <contour>
      <point x="113" y="533" type="curve"/>
      <point x="73" y="533"/>
      <point x="38" y="533"/>
      <point x="-2" y="533" type="curve"/>
      <point x="-2" y="474"/>
      <point x="-2" y="533"/>
      <point x="-2" y="474" type="curve"/>
      <point x="119" y="474"/>
      <point x="-8" y="474"/>
      <point x="113" y="474" type="curve"/>
      <point x="113" y="533"/>
      <point x="113" y="474"/>
    </contour>
    <contour>
      <point x="-3" y="-302" type="curve"/>
      <point x="3" y="-303"/>
      <point x="11" y="-304"/>
      <point x="19" y="-304" type="curve"/>
      <point x="104" y="-304"/>
      <point x="150" y="-225"/>
      <point x="150" y="-133" type="curve"/>
      <point x="150" y="89"/>
      <point x="150" y="311"/>
      <point x="150" y="533" type="curve"/>
      <point x="77" y="533"/>
      <point x="150" y="533"/>
      <point x="77" y="533" type="curve"/>
      <point x="77" y="311"/>
      <point x="77" y="89"/>
      <point x="77" y="-133" type="curve"/>
      <point x="77" y="-184"/>
      <point x="67" y="-245"/>
      <point x="22" y="-245" type="curve"/>
      <point x="17" y="-245"/>
      <point x="13" y="-245"/>
      <point x="8" y="-244" type="curve"/>
      <point x="-2" y="-300"/>
      <point x="8" y="-247"/>
    </contour>
    <contour>
      <point x="153" y="679" type="curve"/>
      <point x="153" y="705"/>
      <point x="136" y="718"/>
      <point x="112" y="718" type="curve"/>
      <point x="88" y="718"/>
      <point x="73" y="703"/>
      <point x="73" y="679" type="curve"/>
      <point x="155" y="679"/>
      <point x="71" y="679"/>
      <point x="153" y="679" type="curve"/>
      <point x="153" y="652"/>
      <point x="136" y="639"/>
      <point x="112" y="639" type="curve"/>
      <point x="88" y="639"/>
      <point x="73" y="653"/>
      <point x="73" y="679" type="curve"/>
      <point x="155" y="679"/>
      <point x="71" y="679"/>
    </contour>
  </outline>
</glyph>
<glyph name="k" format="1">
  <advance width="446"/>
  <unicode hex="006B"/>
  <outline>
    <contour>
      <point x="122" y="59" type="curve"/>
      <point x="2" y="59"/>
      <point x="126" y="59"/>
      <point x="6" y="59" type="curve"/>
      <point x="6" y="0"/>
      <point x="6" y="59"/>
      <point x="6" y="0" type="curve"/>
      <point x="46" y="0"/>
      <point x="82" y="0"/>
      <point x="122" y="0" type="curve"/>
      <point x="122" y="59"/>
      <point x="122" y="0"/>
    </contour>
    <contour>
      <point x="325" y="0" type="curve"/>
      <point x="360" y="0"/>
      <point x="394" y="0"/>
      <point x="430" y="0" type="curve"/>
      <point x="430" y="59"/>
      <point x="430" y="0"/>
      <point x="430" y="59" type="curve"/>
      <point x="324" y="59"/>
      <point x="432" y="59"/>
      <point x="326" y="59" type="curve"/>
      <point x="326" y="0"/>
      <point x="325" y="59"/>
    </contour>
    <contour>
      <point x="322" y="474" type="curve"/>
      <point x="412" y="474"/>
      <point x="320" y="474"/>
      <point x="410" y="474" type="curve"/>
      <point x="410" y="533"/>
      <point x="410" y="474"/>
      <point x="410" y="533" type="curve"/>
      <point x="380" y="533"/>
      <point x="352" y="533"/>
      <point x="322" y="533" type="curve"/>
      <point x="322" y="474"/>
      <point x="322" y="533"/>
    </contour>
    <contour>
      <point x="122" y="0" type="curve"/>
      <point x="157" y="0"/>
      <point x="117" y="0"/>
      <point x="219" y="0" type="curve"/>
      <point x="219" y="59"/>
      <point x="219" y="0"/>
      <point x="219" y="59" type="curve"/>
      <point x="117" y="59"/>
      <point x="224" y="59"/>
      <point x="122" y="59" type="curve"/>
      <point x="122" y="0"/>
      <point x="122" y="59"/>
    </contour>
    <contour>
      <point x="336" y="533" type="curve"/>
      <point x="292" y="533"/>
      <point x="252" y="533"/>
      <point x="208" y="533" type="curve"/>
      <point x="208" y="474"/>
      <point x="208" y="533"/>
      <point x="208" y="474" type="curve"/>
      <point x="341" y="474"/>
      <point x="202" y="474"/>
      <point x="336" y="474" type="curve"/>
      <point x="336" y="533"/>
      <point x="336" y="474"/>
    </contour>
    <contour>
      <point x="124" y="800" type="curve"/>
      <point x="84" y="800"/>
      <point x="47" y="800"/>
      <point x="7" y="800" type="curve"/>
      <point x="7" y="741"/>
      <point x="7" y="800"/>
      <point x="7" y="741" type="curve"/>
      <point x="128" y="741"/>
      <point x="3" y="741"/>
      <point x="124" y="741" type="curve"/>
      <point x="124" y="800"/>
      <point x="124" y="741"/>
    </contour>
    <contour>
      <point x="159" y="0" type="curve"/>
      <point x="159" y="800" type="line"/>
      <point x="86" y="800"/>
      <point x="159" y="800"/>
      <point x="86" y="800" type="curve"/>
      <point x="86" y="533"/>
      <point x="86" y="267"/>
      <point x="86" y="0" type="curve"/>
      <point x="159" y="0"/>
      <point x="86" y="0"/>
    </contour>
    <contour>
      <point x="304" y="533" type="curve"/>
      <point x="143" y="275" type="line"/>
      <point x="216" y="275"/>
      <point x="140" y="275"/>
      <point x="213" y="275" type="curve"/>
      <point x="367" y="510" type="line"/>
      <point x="305" y="510"/>
      <point x="366" y="533"/>
    </contour>
    <contour>
      <point x="379" y="30" type="curve"/>
      <point x="213" y="275" type="line"/>
      <point x="140" y="275"/>
      <point x="216" y="275"/>
      <point x="143" y="275" type="curve"/>
      <point x="321" y="0" type="line"/>
      <point x="377" y="0"/>
      <point x="323" y="30"/>
    </contour>
    <contour>
      <point x="285" y="-53" type="move" name="bottom"/>
    </contour>
  </outline>
</glyph>
<glyph name="l" format="1">
  <advance width="265"/>
  <unicode hex="006C"/>
  <outline>
    <contour>
      <point x="133" y="59" type="curve"/>
      <point x="12" y="59"/>
      <point x="133" y="59"/>
      <point x="12" y="59" type="curve"/>
      <point x="12" y="0"/>
      <point x="12" y="59"/>
      <point x="12" y="0" type="curve"/>
      <point x="53" y="0"/>
      <point x="92" y="0"/>
      <point x="133" y="0" type="curve"/>
      <point x="133" y="59"/>
      <point x="133" y="0"/>
    </contour>
    <contour>
      <point x="134" y="800" type="curve"/>
      <point x="94" y="800"/>
      <point x="54" y="800"/>
      <point x="14" y="800" type="curve"/>
      <point x="13" y="741"/>
      <point x="14" y="800"/>
      <point x="13" y="741" type="curve"/>
      <point x="134" y="741"/>
      <point x="13" y="741"/>
      <point x="134" y="741" type="curve"/>
      <point x="134" y="800"/>
      <point x="134" y="741"/>
    </contour>
    <contour>
      <point x="133" y="0" type="curve"/>
      <point x="173" y="0"/>
      <point x="213" y="0"/>
      <point x="254" y="0" type="curve"/>
      <point x="254" y="59"/>
      <point x="254" y="0"/>
      <point x="254" y="59" type="curve"/>
      <point x="133" y="59"/>
      <point x="254" y="59"/>
      <point x="133" y="59" type="curve"/>
      <point x="133" y="0"/>
      <point x="133" y="59"/>
    </contour>
    <contour>
      <point x="169" y="0" type="curve"/>
      <point x="169" y="267"/>
      <point x="169" y="533"/>
      <point x="169" y="800" type="curve"/>
      <point x="96" y="800"/>
      <point x="169" y="800"/>
      <point x="96" y="800" type="curve"/>
      <point x="96" y="533"/>
      <point x="96" y="267"/>
      <point x="96" y="0" type="curve"/>
      <point x="169" y="0"/>
      <point x="96" y="0"/>
    </contour>
    <contour>
      <point x="134" y="883" type="move" name="top"/>
    </contour>
    <contour>
      <point x="157" y="-53" type="move" name="bottom"/>
    </contour>
  </outline>
</glyph>
<glyph name="m" format="1">
  <advance width="710"/>
  <unicode hex="006D"/>
  <outline>
    <contour>
      <point x="365" y="0" type="curve"/>
      <point x="467" y="0"/>
      <point x="366" y="0"/>
      <point x="468" y="0" type="curve"/>
      <point x="468" y="59"/>
      <point x="468" y="0"/>
      <point x="468" y="59" type="curve"/>
      <point x="366" y="59"/>
      <point x="467" y="59"/>
      <point x="365" y="59" type="curve"/>
      <point x="365" y="0"/>
      <point x="365" y="59"/>
    </contour>
    <contour>
      <point x="575" y="0" type="curve"/>
      <point x="616" y="0"/>
      <point x="651" y="0"/>
      <point x="693" y="0" type="curve"/>
      <point x="693" y="59"/>
      <point x="693" y="0"/>
      <point x="693" y="59" type="curve"/>
      <point x="569" y="59"/>
      <point x="699" y="59"/>
      <point x="575" y="59" type="curve"/>
      <point x="575" y="0"/>
      <point x="575" y="59"/>
    </contour>
    <contour>
      <point x="156" y="59" type="curve"/>
      <point x="34" y="59"/>
      <point x="162" y="59"/>
      <point x="40" y="59" type="curve"/>
      <point x="39" y="0"/>
      <point x="40" y="59"/>
      <point x="39" y="0" type="curve"/>
      <point x="80" y="0"/>
      <point x="115" y="0"/>
      <point x="156" y="0" type="curve"/>
      <point x="156" y="59"/>
      <point x="156" y="0"/>
    </contour>
    <contour>
      <point x="156" y="0" type="curve"/>
      <point x="192" y="0"/>
      <point x="143" y="0"/>
      <point x="252" y="0" type="curve"/>
      <point x="252" y="59"/>
      <point x="252" y="0"/>
      <point x="252" y="59" type="curve"/>
      <point x="143" y="59"/>
      <point x="265" y="59"/>
      <point x="156" y="59" type="curve"/>
      <point x="156" y="0"/>
      <point x="156" y="59"/>
    </contour>
    <contour>
      <point x="156" y="533" type="curve"/>
      <point x="115" y="533"/>
      <point x="80" y="533"/>
      <point x="40" y="533" type="curve"/>
      <point x="39" y="474"/>
      <point x="40" y="533"/>
      <point x="39" y="474" type="curve"/>
      <point x="162" y="474"/>
      <point x="33" y="474"/>
      <point x="156" y="474" type="curve"/>
      <point x="156" y="533"/>
      <point x="156" y="474"/>
    </contour>
    <contour>
      <point x="385" y="320" type="curve"/>
      <point x="400" y="393"/>
      <point x="420" y="478"/>
      <point x="479" y="478" type="curve"/>
      <point x="549" y="478"/>
      <point x="537" y="412"/>
      <point x="537" y="327" type="curve"/>
      <point x="537" y="218"/>
      <point x="537" y="109"/>
      <point x="537" y="0" type="curve"/>
      <point x="610" y="0"/>
      <point x="537" y="0"/>
      <point x="610" y="0" type="curve"/>
      <point x="610" y="111"/>
      <point x="610" y="222"/>
      <point x="610" y="334" type="curve"/>
      <point x="610" y="452"/>
      <point x="610" y="538"/>
      <point x="504" y="538" type="curve"/>
      <point x="420" y="538"/>
      <point x="381" y="452"/>
      <point x="366" y="354" type="curve"/>
      <point x="387" y="322"/>
      <point x="363" y="353"/>
    </contour>
    <contour>
      <point x="176" y="320" type="curve"/>
      <point x="188" y="391"/>
      <point x="208" y="479"/>
      <point x="269" y="479" type="curve"/>
      <point x="339" y="479"/>
      <point x="328" y="412"/>
      <point x="328" y="327" type="curve"/>
      <point x="328" y="218"/>
      <point x="328" y="109"/>
      <point x="328" y="0" type="curve"/>
      <point x="401" y="0"/>
      <point x="328" y="0"/>
      <point x="401" y="0" type="curve"/>
      <point x="401" y="111"/>
      <point x="401" y="222"/>
      <point x="401" y="334" type="curve"/>
      <point x="401" y="452"/>
      <point x="401" y="539"/>
      <point x="295" y="539" type="curve"/>
      <point x="209" y="539"/>
      <point x="171" y="452"/>
      <point x="157" y="354" type="curve"/>
      <point x="178" y="321"/>
      <point x="154" y="352"/>
    </contour>
    <contour>
      <point x="192" y="0" type="curve"/>
      <point x="192" y="178"/>
      <point x="192" y="355"/>
      <point x="192" y="533" type="curve"/>
      <point x="119" y="533"/>
      <point x="192" y="533"/>
      <point x="119" y="533" type="curve"/>
      <point x="119" y="355"/>
      <point x="119" y="178"/>
      <point x="119" y="0" type="curve"/>
      <point x="192" y="0"/>
      <point x="119" y="0"/>
    </contour>
  </outline>
</glyph>
<glyph name="p" format="1">
  <advance width="482"/>
  <unicode hex="0070"/>
  <outline>
    <contour>
      <point x="121" y="-241" type="curve"/>
      <point x="2" y="-241"/>
      <point x="125" y="-241"/>
      <point x="6" y="-241" type="curve"/>
      <point x="6" y="-300"/>
      <point x="6" y="-241"/>
      <point x="6" y="-300" type="curve"/>
      <point x="45" y="-300"/>
      <point x="81" y="-300"/>
      <point x="121" y="-300" type="curve"/>
      <point x="121" y="-241"/>
      <point x="121" y="-300"/>
    </contour>
    <contour>
      <point x="121" y="-300" type="curve"/>
      <point x="159" y="-300"/>
      <point x="192" y="-300"/>
      <point x="230" y="-300" type="curve"/>
      <point x="230" y="-241"/>
      <point x="230" y="-300"/>
      <point x="230" y="-241" type="curve"/>
      <point x="117" y="-241"/>
      <point x="234" y="-241"/>
      <point x="121" y="-241" type="curve"/>
      <point x="121" y="-300"/>
      <point x="121" y="-241"/>
    </contour>
    <contour>
      <point x="122" y="533" type="curve"/>
      <point x="82" y="533"/>
      <point x="46" y="533"/>
      <point x="7" y="533" type="curve"/>
      <point x="7" y="474"/>
      <point x="7" y="533"/>
      <point x="7" y="474" type="curve"/>
      <point x="126" y="474"/>
      <point x="3" y="474"/>
      <point x="122" y="474" type="curve"/>
      <point x="122" y="533"/>
      <point x="122" y="474"/>
    </contour>
    <contour>
      <point x="143" y="359" type="curve"/>
      <point x="152" y="410"/>
      <point x="196" y="478"/>
      <point x="250" y="478" type="curve"/>
      <point x="347" y="478"/>
      <point x="357" y="376"/>
      <point x="357" y="270" type="curve"/>
      <point x="359" y="159"/>
      <point x="345" y="54"/>
      <point x="251" y="54" type="curve"/>
      <point x="200" y="54"/>
      <point x="168" y="90"/>
      <point x="146" y="137" type="curve"/>
      <point x="115" y="102"/>
      <point x="149" y="140"/>
      <point x="118" y="106" type="curve"/>
      <point x="151" y="38"/>
      <point x="195" y="-5"/>
      <point x="265" y="-5" type="curve"/>
      <point x="402" y="-5"/>
      <point x="430" y="128"/>
      <point x="430" y="273" type="curve"/>
      <point x="430" y="411"/>
      <point x="399" y="538"/>
      <point x="266" y="538" type="curve"/>
      <point x="192" y="538"/>
      <point x="142" y="470"/>
      <point x="122" y="411" type="curve"/>
      <point x="146" y="357"/>
      <point x="119" y="413"/>
    </contour>
    <contour>
      <point x="158" y="-300" type="curve"/>
      <point x="158" y="-22"/>
      <point x="158" y="255"/>
      <point x="158" y="533" type="curve"/>
      <point x="85" y="533"/>
      <point x="158" y="533"/>
      <point x="85" y="533" type="curve"/>
      <point x="85" y="255"/>
      <point x="85" y="-22"/>
      <point x="85" y="-300" type="curve"/>
      <point x="158" y="-300"/>
      <point x="85" y="-300"/>
    </contour>
  </outline>
</glyph>
<glyph name="q" format="1">
  <advance width="488"/>
  <unicode hex="0071"/>
  <outline>
    <contour>
      <point x="359" y="474" type="curve"/>
      <point x="479" y="474"/>
      <point x="348" y="474"/>
      <point x="469" y="474" type="curve"/>
      <point x="469" y="538"/>
      <point x="469" y="470"/>
      <point x="469" y="533" type="curve"/>
      <point x="431" y="533"/>
      <point x="396" y="533"/>
      <point x="359" y="533" type="curve"/>
      <point x="359" y="470"/>
      <point x="359" y="538"/>
    </contour>
    <contour>
      <point x="359" y="-241" type="curve"/>
      <point x="231" y="-241"/>
      <point x="370" y="-241"/>
      <point x="243" y="-241" type="curve"/>
      <point x="243" y="-305"/>
      <point x="243" y="-236"/>
      <point x="243" y="-300" type="curve"/>
      <point x="282" y="-300"/>
      <point x="319" y="-300"/>
      <point x="359" y="-300" type="curve"/>
      <point x="359" y="-236"/>
      <point x="359" y="-305"/>
    </contour>
    <contour>
      <point x="359" y="-300" type="curve"/>
      <point x="396" y="-300"/>
      <point x="431" y="-300"/>
      <point x="468" y="-300" type="curve"/>
      <point x="468" y="-236"/>
      <point x="468" y="-305"/>
      <point x="468" y="-241" type="curve"/>
      <point x="347" y="-241"/>
      <point x="480" y="-241"/>
      <point x="359" y="-241" type="curve"/>
      <point x="359" y="-305"/>
      <point x="359" y="-236"/>
    </contour>
    <contour>
      <point x="360" y="418" type="curve"/>
      <point x="336" y="494"/>
      <point x="277" y="538"/>
      <point x="215" y="538" type="curve"/>
      <point x="80" y="538"/>
      <point x="51" y="407"/>
      <point x="51" y="265" type="curve"/>
      <point x="52" y="122"/>
      <point x="87" y="-6"/>
      <point x="219" y="-6" type="curve"/>
      <point x="284" y="-6"/>
      <point x="336" y="55"/>
      <point x="357" y="120" type="curve"/>
      <point x="331" y="155"/>
      <point x="361" y="120"/>
      <point x="335" y="156" type="curve"/>
      <point x="319" y="103"/>
      <point x="279" y="53"/>
      <point x="229" y="53" type="curve"/>
      <point x="137" y="53"/>
      <point x="125" y="159"/>
      <point x="125" y="268" type="curve"/>
      <point x="125" y="373"/>
      <point x="137" y="478"/>
      <point x="227" y="478" type="curve"/>
      <point x="271" y="478"/>
      <point x="311" y="449"/>
      <point x="339" y="382" type="curve"/>
      <point x="357" y="420"/>
      <point x="341" y="380"/>
    </contour>
    <contour>
      <point x="396" y="-300" type="curve"/>
      <point x="396" y="-24"/>
      <point x="396" y="257"/>
      <point x="396" y="533" type="curve"/>
      <point x="313" y="533"/>
      <point x="403" y="533"/>
      <point x="320" y="533" type="curve"/>
      <point x="320" y="257"/>
      <point x="320" y="-24"/>
      <point x="320" y="-300" type="curve"/>
      <point x="403" y="-300"/>
      <point x="313" y="-300"/>
    </contour>
  </outline>
</glyph>
<glyph name="t" format="1">
  <advance width="287"/>
  <unicode hex="0074"/>
  <outline>
    <contour>
      <point x="16" y="473" type="curve"/>
      <point x="267" y="473" type="line"/>
      <point x="267" y="532"/>
      <point x="267" y="473"/>
      <point x="267" y="532" type="curve"/>
      <point x="16" y="532" type="line"/>
      <point x="16" y="473"/>
      <point x="16" y="532"/>
    </contour>
    <contour>
      <point x="236" y="79" type="curve"/>
      <point x="222" y="66"/>
      <point x="211" y="57"/>
      <point x="193" y="57" type="curve"/>
      <point x="151" y="57"/>
      <point x="150" y="103"/>
      <point x="150" y="157" type="curve"/>
      <point x="150" y="680" type="line"/>
      <point x="83" y="638"/>
      <point x="144" y="670"/>
      <point x="77" y="628" type="curve"/>
      <point x="77" y="154" type="line"/>
      <point x="77" y="60"/>
      <point x="101" y="-5"/>
      <point x="182" y="-5" type="curve"/>
      <point x="216" y="-5"/>
      <point x="239" y="6"/>
      <point x="268" y="27" type="curve"/>
      <point x="236" y="79"/>
      <point x="268" y="27"/>
    </contour>
    <contour>
      <point x="203" y="-51" type="move" name="bottom"/>
    </contour>
  </outline>
</glyph>
<glyph name="v" format="1">
  <advance width="482"/>
  <unicode hex="0076"/>
  <outline>
    <contour>
      <point x="111" y="533" type="curve"/>
      <point x="75" y="533"/>
      <point x="45" y="533"/>
      <point x="9" y="533" type="curve"/>
      <point x="9" y="474"/>
      <point x="9" y="533"/>
      <point x="9" y="474" type="curve"/>
      <point x="117" y="474"/>
      <point x="3" y="474"/>
      <point x="111" y="474" type="curve"/>
      <point x="111" y="533"/>
      <point x="111" y="474"/>
    </contour>
    <contour>
      <point x="111" y="474" type="curve"/>
      <point x="213" y="474"/>
      <point x="106" y="474"/>
      <point x="208" y="474" type="curve"/>
      <point x="208" y="533"/>
      <point x="208" y="474"/>
      <point x="208" y="533" type="curve"/>
      <point x="174" y="533"/>
      <point x="145" y="533"/>
      <point x="111" y="533" type="curve"/>
      <point x="111" y="474"/>
      <point x="111" y="533"/>
    </contour>
    <contour>
      <point x="382" y="533" type="curve"/>
      <point x="346" y="533"/>
      <point x="315" y="533"/>
      <point x="279" y="533" type="curve"/>
      <point x="279" y="474"/>
      <point x="279" y="533"/>
      <point x="279" y="474" type="curve"/>
      <point x="388" y="474"/>
      <point x="273" y="474"/>
      <point x="382" y="474" type="curve"/>
      <point x="382" y="533"/>
      <point x="382" y="474"/>
    </contour>
    <contour>
      <point x="382" y="474" type="curve"/>
      <point x="483" y="474"/>
      <point x="376" y="474"/>
      <point x="478" y="474" type="curve"/>
      <point x="478" y="533"/>
      <point x="478" y="474"/>
      <point x="478" y="533" type="curve"/>
      <point x="444" y="533"/>
      <point x="415" y="533"/>
      <point x="382" y="533" type="curve"/>
      <point x="382" y="474"/>
      <point x="382" y="533"/>
    </contour>
    <contour>
      <point x="69" y="533" type="curve"/>
      <point x="113" y="355"/>
      <point x="157" y="178"/>
      <point x="200" y="0" type="curve"/>
      <point x="268" y="0"/>
      <point x="200" y="0"/>
      <point x="268" y="0" type="curve"/>
      <point x="225" y="178"/>
      <point x="187" y="355"/>
      <point x="144" y="533" type="curve"/>
      <point x="69" y="533"/>
      <point x="144" y="533"/>
    </contour>
    <contour>
      <point x="350" y="533" type="curve"/>
      <point x="217" y="0" type="line"/>
      <point x="286" y="0"/>
      <point x="217" y="0"/>
      <point x="286" y="0" type="curve"/>
      <point x="332" y="178"/>
      <point x="378" y="355"/>
      <point x="424" y="533" type="curve"/>
      <point x="350" y="533"/>
      <point x="424" y="533"/>
    </contour>
  </outline>
</glyph>
<glyph name="w" format="1">
  <advance width="684"/>
  <unicode hex="0077"/>
  <outline>
    <contour>
      <point x="571" y="474" type="curve"/>
      <point x="684" y="474"/>
      <point x="565" y="474"/>
      <point x="678" y="474" type="curve"/>
      <point x="678" y="533"/>
      <point x="678" y="474"/>
      <point x="678" y="533" type="curve"/>
      <point x="640" y="533"/>
      <point x="608" y="533"/>
      <point x="571" y="533" type="curve"/>
      <point x="571" y="474"/>
      <point x="571" y="533"/>
    </contour>
    <contour>
      <point x="571" y="533" type="curve"/>
      <point x="533" y="533"/>
      <point x="512" y="533"/>
      <point x="475" y="533" type="curve"/>
      <point x="475" y="474"/>
      <point x="475" y="533"/>
      <point x="475" y="474" type="curve"/>
      <point x="589" y="474"/>
      <point x="457" y="474"/>
      <point x="571" y="474" type="curve"/>
      <point x="571" y="533"/>
      <point x="571" y="474"/>
    </contour>
    <contour>
      <point x="114" y="533" type="curve"/>
      <point x="77" y="533"/>
      <point x="44" y="533"/>
      <point x="7" y="533" type="curve"/>
      <point x="7" y="474"/>
      <point x="7" y="533"/>
      <point x="7" y="474" type="curve"/>
      <point x="120" y="474"/>
      <point x="1" y="474"/>
      <point x="114" y="474" type="curve"/>
      <point x="114" y="533"/>
      <point x="114" y="474"/>
    </contour>
    <contour>
      <point x="114" y="474" type="curve"/>
      <point x="226" y="474"/>
      <point x="102" y="474"/>
      <point x="214" y="474" type="curve"/>
      <point x="214" y="533"/>
      <point x="214" y="474"/>
      <point x="214" y="533" type="curve"/>
      <point x="177" y="533"/>
      <point x="151" y="533"/>
      <point x="114" y="533" type="curve"/>
      <point x="114" y="474"/>
      <point x="114" y="533"/>
    </contour>
    <contour>
      <point x="249" y="0" type="curve"/>
      <point x="292" y="178"/>
      <point x="334" y="355"/>
      <point x="377" y="533" type="curve"/>
      <point x="312" y="533"/>
      <point x="377" y="533"/>
      <point x="312" y="533" type="curve"/>
      <point x="271" y="355"/>
      <point x="228" y="178"/>
      <point x="187" y="0" type="curve"/>
      <point x="249" y="0"/>
      <point x="187" y="0"/>
    </contour>
    <contour>
      <point x="550" y="533" type="curve"/>
      <point x="511" y="355"/>
      <point x="471" y="178"/>
      <point x="433" y="0" type="curve"/>
      <point x="494" y="0"/>
      <point x="433" y="0"/>
      <point x="494" y="0" type="curve"/>
      <point x="535" y="178"/>
      <point x="575" y="355"/>
      <point x="615" y="533" type="curve"/>
      <point x="550" y="533"/>
      <point x="615" y="533"/>
    </contour>
    <contour>
      <point x="317" y="533" type="curve"/>
      <point x="355" y="355"/>
      <point x="393" y="178"/>
      <point x="432" y="0" type="curve"/>
      <point x="494" y="0"/>
      <point x="432" y="0"/>
      <point x="494" y="0" type="curve"/>
      <point x="456" y="178"/>
      <point x="418" y="355"/>
      <point x="380" y="533" type="curve"/>
      <point x="317" y="533"/>
      <point x="380" y="533"/>
    </contour>
    <contour>
      <point x="71" y="533" type="curve"/>
      <point x="109" y="355"/>
      <point x="148" y="178"/>
      <point x="186" y="0" type="curve"/>
      <point x="248" y="0"/>
      <point x="186" y="0"/>
      <point x="248" y="0" type="curve"/>
      <point x="210" y="178"/>
      <point x="173" y="355"/>
      <point x="135" y="533" type="curve"/>
      <point x="71" y="533"/>
      <point x="135" y="533"/>
    </contour>
  </outline>
</glyph>
<glyph name="x" format="1">
  <advance width="487"/>
  <unicode hex="0078"/>
  <outline>
    <contour>
      <point x="106" y="59" type="curve"/>
      <point x="19" y="59"/>
      <point x="103" y="59"/>
      <point x="16" y="59" type="curve"/>
      <point x="16" y="0"/>
      <point x="16" y="59"/>
      <point x="16" y="0" type="curve"/>
      <point x="45" y="0"/>
      <point x="77" y="0"/>
      <point x="106" y="0" type="curve"/>
      <point x="106" y="59"/>
      <point x="106" y="0"/>
    </contour>
    <contour>
      <point x="394" y="59" type="curve"/>
      <point x="279" y="59"/>
      <point x="396" y="59"/>
      <point x="280" y="59" type="curve"/>
      <point x="280" y="0"/>
      <point x="280" y="59"/>
      <point x="280" y="0" type="curve"/>
      <point x="318" y="0"/>
      <point x="356" y="0"/>
      <point x="394" y="0" type="curve"/>
      <point x="394" y="59"/>
      <point x="394" y="0"/>
    </contour>
    <contour>
      <point x="385" y="0" type="curve"/>
      <point x="415" y="0"/>
      <point x="450" y="0"/>
      <point x="480" y="0" type="curve"/>
      <point x="480" y="59"/>
      <point x="480" y="0"/>
      <point x="480" y="59" type="curve"/>
      <point x="391" y="59"/>
      <point x="474" y="59"/>
      <point x="385" y="59" type="curve"/>
      <point x="385" y="0"/>
      <point x="385" y="59"/>
    </contour>
    <contour>
      <point x="96" y="0" type="curve"/>
      <point x="135" y="0"/>
      <point x="93" y="0"/>
      <point x="209" y="0" type="curve"/>
      <point x="209" y="59"/>
      <point x="209" y="0"/>
      <point x="209" y="59" type="curve"/>
      <point x="93" y="59"/>
      <point x="212" y="59"/>
      <point x="96" y="59" type="curve"/>
      <point x="96" y="0"/>
      <point x="96" y="59"/>
    </contour>
    <contour>
      <point x="374" y="474" type="curve"/>
      <point x="466" y="474"/>
      <point x="383" y="474"/>
      <point x="475" y="474" type="curve"/>
      <point x="475" y="533"/>
      <point x="475" y="474"/>
      <point x="475" y="533" type="curve"/>
      <point x="444" y="533"/>
      <point x="404" y="533"/>
      <point x="374" y="533" type="curve"/>
      <point x="374" y="474"/>
      <point x="374" y="533"/>
    </contour>
    <contour>
      <point x="134" y="533" type="curve"/>
      <point x="101" y="533"/>
      <point x="65" y="533"/>
      <point x="32" y="533" type="curve"/>
      <point x="32" y="474"/>
      <point x="32" y="533"/>
      <point x="32" y="474" type="curve"/>
      <point x="130" y="474"/>
      <point x="36" y="474"/>
      <point x="134" y="474" type="curve"/>
      <point x="134" y="533"/>
      <point x="134" y="474"/>
    </contour>
    <contour>
      <point x="121" y="474" type="curve"/>
      <point x="230" y="474"/>
      <point x="108" y="474"/>
      <point x="217" y="474" type="curve"/>
      <point x="217" y="533"/>
      <point x="217" y="474"/>
      <point x="217" y="533" type="curve"/>
      <point x="181" y="533"/>
      <point x="158" y="533"/>
      <point x="121" y="533" type="curve"/>
      <point x="121" y="474"/>
      <point x="121" y="533"/>
    </contour>
    <contour>
      <point x="389" y="533" type="curve"/>
      <point x="349" y="533"/>
      <point x="324" y="533"/>
      <point x="286" y="533" type="curve"/>
      <point x="286" y="474"/>
      <point x="286" y="533"/>
      <point x="286" y="474" type="curve"/>
      <point x="402" y="474"/>
      <point x="272" y="474"/>
      <point x="389" y="474" type="curve"/>
      <point x="389" y="533"/>
      <point x="389" y="474"/>
    </contour>
    <contour>
      <point x="422" y="17" type="curve"/>
      <point x="373" y="120"/>
      <point x="195" y="430"/>
      <point x="146" y="533" type="curve"/>
      <point x="100" y="533"/>
      <point x="130" y="512"/>
      <point x="85" y="512" type="curve"/>
      <point x="134" y="409"/>
      <point x="310" y="103"/>
      <point x="358" y="0" type="curve"/>
      <point x="407" y="0"/>
      <point x="373" y="17"/>
    </contour>
    <contour>
      <point x="358" y="533" type="curve"/>
      <point x="309" y="430"/>
      <point x="122" y="125"/>
      <point x="73" y="21" type="curve"/>
      <point x="118" y="21"/>
      <point x="89" y="0"/>
      <point x="134" y="0" type="curve"/>
      <point x="183" y="103"/>
      <point x="372" y="414"/>
      <point x="421" y="517" type="curve"/>
      <point x="375" y="517"/>
      <point x="404" y="533"/>
    </contour>
  </outline>
</glyph>
<glyph name="braceright" format="1">
  <advance width="227"/>
  <unicode hex="007D"/>
  <outline>
    <contour>
      <point x="46" y="-117" type="curve"/>
      <point x="125" y="-117"/>
      <point x="153" y="-45"/>
      <point x="153" y="46" type="curve"/>
      <point x="153" y="102"/>
      <point x="153" y="159"/>
      <point x="153" y="215" type="curve"/>
      <point x="153" y="263"/>
      <point x="152" y="309"/>
      <point x="191" y="309" type="curve"/>
      <point x="191" y="370"/>
      <point x="191" y="309"/>
      <point x="191" y="370" type="curve"/>
      <point x="114" y="370"/>
      <point x="86" y="298"/>
      <point x="86" y="210" type="curve"/>
      <point x="86" y="154"/>
      <point x="86" y="98"/>
      <point x="86" y="43" type="curve"/>
      <point x="86" y="-9"/>
      <point x="90" y="-59"/>
      <point x="46" y="-59" type="curve"/>
      <point x="46" y="-117"/>
      <point x="46" y="-59"/>
    </contour>
    <contour>
      <point x="46" y="737" type="curve"/>
      <point x="90" y="737"/>
      <point x="86" y="687"/>
      <point x="86" y="635" type="curve"/>
      <point x="86" y="580"/>
      <point x="86" y="525"/>
      <point x="86" y="470" type="curve"/>
      <point x="86" y="380"/>
      <point x="113" y="309"/>
      <point x="191" y="309" type="curve"/>
      <point x="191" y="370"/>
      <point x="191" y="309"/>
      <point x="191" y="370" type="curve"/>
      <point x="153" y="370"/>
      <point x="153" y="414"/>
      <point x="153" y="461" type="curve"/>
      <point x="153" y="519"/>
      <point x="153" y="577"/>
      <point x="153" y="635" type="curve"/>
      <point x="153" y="725"/>
      <point x="126" y="796"/>
      <point x="46" y="796" type="curve"/>
      <point x="46" y="737"/>
      <point x="46" y="796"/>
    </contour>
  </outline>
</glyph>
<glyph name="asciitilde" format="1">
  <advance width="512"/>
  <unicode hex="007E"/>
  <outline>
    <contour>
      <point x="380" y="359" type="curve"/>
      <point x="372" y="319"/>
      <point x="365" y="270"/>
      <point x="331" y="270" type="curve"/>
      <point x="307" y="270"/>
      <point x="295" y="285"/>
      <point x="282" y="306" type="curve"/>
      <point x="254" y="342"/>
      <point x="230" y="365"/>
      <point x="186" y="365" type="curve"/>
      <point x="110" y="365"/>
      <point x="87" y="309"/>
      <point x="73" y="231" type="curve"/>
      <point x="104" y="222"/>
      <point x="103" y="221"/>
      <point x="133" y="213" type="curve"/>
      <point x="141" y="257"/>
      <point x="148" y="303"/>
      <point x="184" y="303" type="curve"/>
      <point x="207" y="303"/>
      <point x="218" y="288"/>
      <point x="231" y="269" type="curve"/>
      <point x="261" y="231"/>
      <point x="285" y="209"/>
      <point x="332" y="208" type="curve"/>
      <point x="406" y="208"/>
      <point x="423" y="269"/>
      <point x="440" y="343" type="curve"/>
      <point x="409" y="351"/>
      <point x="411" y="352"/>
    </contour>
  </outline>
</glyph>
<glyph name="exclamdown" format="1">
  <advance width="231"/>
  <unicode hex="00A1"/>
  <outline>
    <contour>
      <point x="78" y="295" type="line"/>
      <point x="72" y="-198" type="line"/>
      <point x="159" y="-198" type="line"/>
      <point x="155" y="295" type="line"/>
    </contour>
    <contour>
      <point x="77" y="492" type="curve"/>
      <point x="76" y="465"/>
      <point x="93" y="452"/>
      <point x="117" y="451" type="curve"/>
      <point x="141" y="451"/>
      <point x="156" y="466"/>
      <point x="156" y="491" type="curve"/>
      <point x="75" y="492"/>
      <point x="158" y="491"/>
      <point x="77" y="492" type="curve"/>
      <point x="77" y="518"/>
      <point x="93" y="531"/>
      <point x="117" y="530" type="curve"/>
      <point x="142" y="530"/>
      <point x="156" y="517"/>
      <point x="156" y="491" type="curve"/>
      <point x="75" y="492"/>
      <point x="158" y="491"/>
    </contour>
  </outline>
</glyph>
<glyph name="cent" format="1">
  <advance width="469"/>
  <unicode hex="00A2"/>
  <outline>
    <contour>
      <point x="283" y="-53" type="curve"/>
      <point x="283" y="-13"/>
      <point x="283" y="27"/>
      <point x="283" y="67" type="curve"/>
      <point x="210" y="67"/>
      <point x="283" y="67"/>
      <point x="210" y="67" type="curve"/>
      <point x="210" y="27"/>
      <point x="210" y="-13"/>
      <point x="210" y="-53" type="curve"/>
      <point x="283" y="-53"/>
      <point x="210" y="-53"/>
    </contour>
    <contour>
      <point x="223" y="778" type="curve"/>
      <point x="223" y="742"/>
      <point x="223" y="706"/>
      <point x="223" y="670" type="curve"/>
      <point x="296" y="670"/>
      <point x="223" y="670"/>
      <point x="296" y="670" type="curve"/>
      <point x="296" y="706"/>
      <point x="296" y="742"/>
      <point x="296" y="778" type="curve"/>
      <point x="223" y="778"/>
      <point x="296" y="778"/>
    </contour>
    <contour>
      <point x="415" y="605" type="curve"/>
      <point x="370" y="659"/>
      <point x="328" y="682"/>
      <point x="265" y="682" type="curve"/>
      <point x="110" y="682"/>
      <point x="52" y="541"/>
      <point x="52" y="365" type="curve"/>
      <point x="52" y="194"/>
      <point x="94" y="50"/>
      <point x="243" y="50" type="curve"/>
      <point x="317" y="50"/>
      <point x="366" y="82"/>
      <point x="413" y="149" type="curve"/>
      <point x="366" y="190"/>
      <point x="413" y="149"/>
      <point x="366" y="190" type="curve"/>
      <point x="334" y="146"/>
      <point x="304" y="111"/>
      <point x="250" y="111" type="curve"/>
      <point x="143" y="111"/>
      <point x="125" y="233"/>
      <point x="125" y="368" type="curve"/>
      <point x="125" y="502"/>
      <point x="154" y="621"/>
      <point x="258" y="621" type="curve"/>
      <point x="308" y="621"/>
      <point x="340" y="599"/>
      <point x="370" y="561" type="curve"/>
      <point x="415" y="605"/>
      <point x="370" y="561"/>
    </contour>
    <contour>
      <point x="355" y="605" type="curve"/>
      <point x="355" y="485"/>
      <point x="355" y="597"/>
      <point x="355" y="478" type="curve"/>
      <point x="415" y="478"/>
      <point x="355" y="478"/>
      <point x="415" y="478" type="curve"/>
      <point x="415" y="597"/>
      <point x="415" y="485"/>
      <point x="415" y="605" type="curve"/>
      <point x="355" y="605"/>
      <point x="415" y="605"/>
    </contour>
  </outline>
</glyph>
<glyph name="sterling" format="1">
  <advance width="368"/>
  <unicode hex="00A3"/>
  <outline>
    <contour>
      <point x="303" y="59" type="curve"/>
      <point x="216" y="59"/>
      <point x="129" y="59"/>
      <point x="45" y="59" type="curve"/>
      <point x="45" y="0"/>
      <point x="45" y="59"/>
      <point x="45" y="0" type="curve"/>
      <point x="129" y="0"/>
      <point x="218" y="0"/>
      <point x="303" y="0" type="curve"/>
      <point x="303" y="59"/>
      <point x="303" y="0"/>
    </contour>
    <contour>
      <point x="269" y="405" type="curve"/>
      <point x="201" y="405"/>
      <point x="129" y="405"/>
      <point x="62" y="405" type="curve"/>
      <point x="62" y="347"/>
      <point x="62" y="405"/>
      <point x="62" y="347" type="curve"/>
      <point x="129" y="347"/>
      <point x="201" y="347"/>
      <point x="269" y="347" type="curve"/>
      <point x="269" y="405"/>
      <point x="269" y="347"/>
    </contour>
    <contour>
      <point x="321" y="670" type="curve"/>
      <point x="291" y="708"/>
      <point x="264" y="724"/>
      <point x="222" y="724" type="curve"/>
      <point x="75" y="724"/>
      <point x="80" y="559"/>
      <point x="106" y="369" type="curve"/>
      <point x="127" y="211"/>
      <point x="153" y="59"/>
      <point x="45" y="59" type="curve"/>
      <point x="45" y="0"/>
      <point x="45" y="59"/>
      <point x="45" y="0" type="curve"/>
      <point x="209" y="0"/>
      <point x="197" y="180"/>
      <point x="170" y="382" type="curve"/>
      <point x="152" y="527"/>
      <point x="129" y="667"/>
      <point x="218" y="667" type="curve"/>
      <point x="248" y="667"/>
      <point x="264" y="649"/>
      <point x="282" y="628" type="curve"/>
      <point x="321" y="670"/>
      <point x="282" y="628"/>
    </contour>
  </outline>
</glyph>
<glyph name="yen" format="1">
  <advance width="561"/>
  <unicode hex="00A5"/>
  <outline>
    <contour>
      <point x="419" y="389" type="curve"/>
      <point x="374" y="389"/>
      <point x="330" y="389"/>
      <point x="286" y="389" type="curve"/>
      <point x="286" y="325"/>
      <point x="286" y="389"/>
      <point x="286" y="325" type="curve"/>
      <point x="330" y="325"/>
      <point x="374" y="325"/>
      <point x="419" y="325" type="curve"/>
      <point x="419" y="389"/>
      <point x="419" y="325"/>
    </contour>
    <contour>
      <point x="268" y="389" type="curve"/>
      <point x="224" y="389"/>
      <point x="180" y="389"/>
      <point x="137" y="389" type="curve"/>
      <point x="137" y="325"/>
      <point x="137" y="389"/>
      <point x="137" y="325" type="curve"/>
      <point x="180" y="325"/>
      <point x="224" y="325"/>
      <point x="268" y="325" type="curve"/>
      <point x="268" y="389"/>
      <point x="268" y="325"/>
    </contour>
    <contour>
      <point x="419" y="262" type="curve"/>
      <point x="324" y="262"/>
      <point x="231" y="262"/>
      <point x="137" y="262" type="curve"/>
      <point x="137" y="197"/>
      <point x="137" y="262"/>
      <point x="137" y="197" type="curve"/>
      <point x="231" y="197"/>
      <point x="324" y="197"/>
      <point x="419" y="197" type="curve"/>
      <point x="419" y="262"/>
      <point x="419" y="197"/>
    </contour>
    <contour>
      <point x="275" y="59" type="curve"/>
      <point x="155" y="59"/>
      <point x="281" y="59"/>
      <point x="161" y="59" type="curve"/>
      <point x="161" y="0"/>
      <point x="161" y="59"/>
      <point x="161" y="0" type="curve"/>
      <point x="201" y="0"/>
      <point x="235" y="0"/>
      <point x="275" y="0" type="curve"/>
      <point x="275" y="59"/>
      <point x="275" y="0"/>
    </contour>
    <contour>
      <point x="275" y="0" type="curve"/>
      <point x="314" y="0"/>
      <point x="349" y="0"/>
      <point x="388" y="0" type="curve"/>
      <point x="388" y="59"/>
      <point x="388" y="0"/>
      <point x="388" y="59" type="curve"/>
      <point x="269" y="59"/>
      <point x="394" y="59"/>
      <point x="275" y="59" type="curve"/>
      <point x="275" y="0"/>
      <point x="275" y="59"/>
    </contour>
    <contour>
      <point x="417" y="722" type="curve"/>
      <point x="379" y="722"/>
      <point x="347" y="722"/>
      <point x="309" y="722" type="curve"/>
      <point x="309" y="663"/>
      <point x="309" y="722"/>
      <point x="309" y="663" type="curve"/>
      <point x="423" y="663"/>
      <point x="303" y="663"/>
      <point x="417" y="663" type="curve"/>
      <point x="417" y="722"/>
      <point x="417" y="663"/>
    </contour>
    <contour>
      <point x="131" y="722" type="curve"/>
      <point x="96" y="722"/>
      <point x="68" y="722"/>
      <point x="34" y="722" type="curve"/>
      <point x="33" y="663"/>
      <point x="34" y="722"/>
      <point x="33" y="663" type="curve"/>
      <point x="137" y="663"/>
      <point x="27" y="663"/>
      <point x="131" y="663" type="curve"/>
      <point x="131" y="722"/>
      <point x="131" y="663"/>
    </contour>
    <contour>
      <point x="140" y="663" type="curve"/>
      <point x="255" y="663"/>
      <point x="134" y="663"/>
      <point x="249" y="663" type="curve"/>
      <point x="249" y="722"/>
      <point x="249" y="663"/>
      <point x="249" y="722" type="curve"/>
      <point x="210" y="722"/>
      <point x="178" y="722"/>
      <point x="140" y="722" type="curve"/>
      <point x="140" y="663"/>
      <point x="140" y="722"/>
    </contour>
    <contour>
      <point x="427" y="663" type="curve"/>
      <point x="533" y="663"/>
      <point x="421" y="663"/>
      <point x="527" y="663" type="curve"/>
      <point x="527" y="722"/>
      <point x="527" y="663"/>
      <point x="527" y="722" type="curve"/>
      <point x="492" y="722"/>
      <point x="462" y="722"/>
      <point x="427" y="722" type="curve"/>
      <point x="427" y="663"/>
      <point x="427" y="722"/>
    </contour>
    <contour>
      <point x="87" y="725" type="curve"/>
      <point x="137" y="596"/>
      <point x="185" y="468"/>
      <point x="234" y="337" type="curve"/>
      <point x="310" y="337"/>
      <point x="224" y="337"/>
      <point x="299" y="337" type="curve"/>
      <point x="254" y="468"/>
      <point x="210" y="593"/>
      <point x="164" y="722" type="curve"/>
      <point x="87" y="722"/>
      <point x="164" y="725"/>
    </contour>
    <contour>
      <point x="393" y="722" type="curve"/>
      <point x="343" y="592"/>
      <point x="297" y="467"/>
      <point x="246" y="337" type="curve"/>
      <point x="321" y="337"/>
      <point x="240" y="337"/>
      <point x="315" y="337" type="curve"/>
      <point x="367" y="467"/>
      <point x="418" y="596"/>
      <point x="471" y="725" type="curve"/>
      <point x="393" y="725"/>
      <point x="471" y="722"/>
    </contour>
    <contour>
      <point x="314" y="0" type="curve"/>
      <point x="314" y="115"/>
      <point x="314" y="227"/>
      <point x="314" y="343" type="curve"/>
      <point x="235" y="343"/>
      <point x="314" y="343"/>
      <point x="235" y="343" type="curve"/>
      <point x="235" y="227"/>
      <point x="235" y="115"/>
      <point x="235" y="0" type="curve"/>
      <point x="314" y="0"/>
      <point x="235" y="0"/>
    </contour>
  </outline>
</glyph>
<glyph name="section" format="1">
  <advance width="392"/>
  <unicode hex="00A7"/>
  <outline>
    <contour>
      <point x="304" y="704" type="curve"/>
      <point x="269" y="735"/>
      <point x="242" y="750"/>
      <point x="200" y="750" type="curve"/>
      <point x="121" y="750"/>
      <point x="80" y="692"/>
      <point x="80" y="613" type="curve"/>
      <point x="80" y="543"/>
      <point x="109" y="492"/>
      <point x="172" y="461" type="curve"/>
      <point x="221" y="434"/>
      <point x="265" y="414"/>
      <point x="265" y="362" type="curve"/>
      <point x="265" y="307"/>
      <point x="248" y="265"/>
      <point x="198" y="250" type="curve"/>
      <point x="241" y="204"/>
      <point x="198" y="250"/>
      <point x="241" y="204" type="curve"/>
      <point x="312" y="227"/>
      <point x="338" y="286"/>
      <point x="338" y="361" type="curve"/>
      <point x="337" y="440"/>
      <point x="282" y="481"/>
      <point x="208" y="516" type="curve"/>
      <point x="170" y="536"/>
      <point x="149" y="569"/>
      <point x="149" y="613" type="curve"/>
      <point x="149" y="653"/>
      <point x="161" y="692"/>
      <point x="200" y="692" type="curve"/>
      <point x="231" y="692"/>
      <point x="247" y="678"/>
      <point x="267" y="659" type="curve"/>
      <point x="304" y="704"/>
      <point x="267" y="659"/>
    </contour>
    <contour>
      <point x="152" y="519" type="curve"/>
      <point x="87" y="490"/>
      <point x="58" y="438"/>
      <point x="58" y="367" type="curve"/>
      <point x="58" y="290"/>
      <point x="103" y="242"/>
      <point x="174" y="209" type="curve"/>
      <point x="216" y="187"/>
      <point x="249" y="163"/>
      <point x="249" y="114" type="curve"/>
      <point x="249" y="69"/>
      <point x="235" y="30"/>
      <point x="197" y="30" type="curve"/>
      <point x="161" y="30"/>
      <point x="142" y="49"/>
      <point x="119" y="76" type="curve"/>
      <point x="76" y="35"/>
      <point x="119" y="76"/>
      <point x="76" y="35" type="curve"/>
      <point x="112" y="-8"/>
      <point x="146" y="-28"/>
      <point x="196" y="-28" type="curve"/>
      <point x="275" y="-28"/>
      <point x="319" y="30"/>
      <point x="319" y="114" type="curve"/>
      <point x="318" y="185"/>
      <point x="285" y="234"/>
      <point x="220" y="265" type="curve"/>
      <point x="172" y="290"/>
      <point x="131" y="314"/>
      <point x="131" y="366" type="curve"/>
      <point x="131" y="415"/>
      <point x="145" y="455"/>
      <point x="189" y="475" type="curve"/>
      <point x="152" y="519"/>
      <point x="189" y="475"/>
    </contour>
    <contour>
      <point x="135" y="35" type="curve"/>
      <point x="135" y="155"/>
      <point x="135" y="32"/>
      <point x="135" y="152" type="curve"/>
      <point x="76" y="152"/>
      <point x="135" y="152"/>
      <point x="76" y="152" type="curve"/>
      <point x="76" y="32"/>
      <point x="76" y="155"/>
      <point x="76" y="35" type="curve"/>
      <point x="135" y="35"/>
      <point x="76" y="35"/>
    </contour>
    <contour>
      <point x="304" y="587" type="curve"/>
      <point x="304" y="707"/>
      <point x="304" y="584"/>
      <point x="304" y="704" type="curve"/>
      <point x="245" y="704"/>
      <point x="304" y="704"/>
      <point x="245" y="704" type="curve"/>
      <point x="245" y="584"/>
      <point x="245" y="707"/>
      <point x="245" y="587" type="curve"/>
      <point x="304" y="587"/>
      <point x="245" y="587"/>
    </contour>
  </outline>
</glyph>
<glyph name="dieresis" format="1">
  <advance width="333"/>
  <unicode hex="00A8"/>
  <outline>
    <contour>
      <point x="119" y="676" type="curve"/>
      <point x="119" y="702"/>
      <point x="103" y="716"/>
      <point x="79" y="716" type="curve"/>
      <point x="54" y="716"/>
      <point x="39" y="701"/>
      <point x="39" y="676" type="curve"/>
      <point x="121" y="676"/>
      <point x="37" y="676"/>
      <point x="119" y="676" type="curve"/>
      <point x="119" y="649"/>
      <point x="103" y="637"/>
      <point x="79" y="637" type="curve"/>
      <point x="54" y="637"/>
      <point x="39" y="650"/>
      <point x="39" y="676" type="curve"/>
      <point x="121" y="676"/>
      <point x="37" y="676"/>
    </contour>
    <contour>
      <point x="242" y="676" type="curve"/>
      <point x="242" y="702"/>
      <point x="226" y="716"/>
      <point x="202" y="716" type="curve"/>
      <point x="178" y="716"/>
      <point x="163" y="701"/>
      <point x="163" y="676" type="curve"/>
      <point x="244" y="676"/>
      <point x="161" y="676"/>
      <point x="242" y="676" type="curve"/>
      <point x="242" y="649"/>
      <point x="226" y="637"/>
      <point x="202" y="637" type="curve"/>
      <point x="178" y="637"/>
      <point x="163" y="650"/>
      <point x="163" y="676" type="curve"/>
      <point x="244" y="676"/>
      <point x="161" y="676"/>
    </contour>
    <contour>
      <point x="141" y="641" type="move" name="_top"/>
    </contour>
  </outline>
</glyph>
<glyph name="copyright" format="1">
  <advance width="557"/>
  <unicode hex="00A9"/>
  <outline>
    <contour>
      <point x="118" y="321" type="curve"/>
      <point x="118" y="465"/>
      <point x="159" y="596"/>
      <point x="282" y="596" type="curve"/>
      <point x="402" y="596"/>
      <point x="441" y="463"/>
      <point x="441" y="320" type="curve"/>
      <point x="441" y="180"/>
      <point x="405" y="49"/>
      <point x="286" y="49" type="curve"/>
      <point x="165" y="49"/>
      <point x="118" y="178"/>
      <point x="118" y="321" type="curve"/>
      <point x="56" y="321"/>
      <point x="120" y="321"/>
      <point x="58" y="321" type="curve"/>
      <point x="58" y="149"/>
      <point x="129" y="-1"/>
      <point x="284" y="-1" type="curve"/>
      <point x="436" y="-1"/>
      <point x="500" y="150"/>
      <point x="500" y="322" type="curve"/>
      <point x="500" y="495"/>
      <point x="434" y="646"/>
      <point x="282" y="646" type="curve"/>
      <point x="127" y="646"/>
      <point x="58" y="495"/>
      <point x="58" y="321" type="curve"/>
      <point x="120" y="321"/>
      <point x="56" y="321"/>
    </contour>
    <contour>
      <point x="322" y="438" type="curve"/>
      <point x="322" y="420"/>
      <point x="322" y="395"/>
      <point x="322" y="375" type="curve"/>
      <point x="378" y="375"/>
      <point x="322" y="375"/>
      <point x="378" y="375" type="curve"/>
      <point x="378" y="404"/>
      <point x="378" y="438"/>
      <point x="378" y="463" type="curve"/>
      <point x="322" y="437"/>
      <point x="378" y="463"/>
    </contour>
    <contour>
      <point x="377" y="463" type="curve"/>
      <point x="352" y="492"/>
      <point x="324" y="503"/>
      <point x="287" y="503" type="curve"/>
      <point x="196" y="503"/>
      <point x="164" y="422"/>
      <point x="164" y="321" type="curve"/>
      <point x="164" y="222"/>
      <point x="190" y="143"/>
      <point x="277" y="143" type="curve"/>
      <point x="320" y="143"/>
      <point x="351" y="155"/>
      <point x="379" y="200" type="curve"/>
      <point x="339" y="228"/>
      <point x="379" y="200"/>
      <point x="339" y="228" type="curve"/>
      <point x="324" y="207"/>
      <point x="307" y="193"/>
      <point x="279" y="193" type="curve"/>
      <point x="224" y="193"/>
      <point x="221" y="255"/>
      <point x="221" y="323" type="curve"/>
      <point x="221" y="391"/>
      <point x="227" y="454"/>
      <point x="284" y="454" type="curve"/>
      <point x="301" y="454"/>
      <point x="311" y="448"/>
      <point x="322" y="438" type="curve"/>
      <point x="378" y="463"/>
      <point x="322" y="437"/>
    </contour>
  </outline>
</glyph>
<glyph name="ordfeminine" format="1">
  <advance width="348"/>
  <unicode hex="00AA"/>
  <outline>
    <contour>
      <point x="77" y="719" type="curve"/>
      <point x="77" y="678"/>
      <point x="77" y="701"/>
      <point x="77" y="660" type="curve"/>
      <point x="111" y="660"/>
      <point x="85" y="660"/>
      <point x="119" y="660" type="curve"/>
      <point x="119" y="701"/>
      <point x="119" y="678"/>
      <point x="119" y="719" type="curve"/>
      <point x="85" y="719"/>
      <point x="111" y="719"/>
    </contour>
    <contour>
      <point x="255" y="428" type="curve"/>
      <point x="255" y="514"/>
      <point x="255" y="587"/>
      <point x="255" y="673" type="curve"/>
      <point x="255" y="732"/>
      <point x="221" y="765"/>
      <point x="165" y="765" type="curve"/>
      <point x="125" y="765"/>
      <point x="100" y="747"/>
      <point x="77" y="719" type="curve"/>
      <point x="94" y="691"/>
      <point x="82" y="713"/>
      <point x="100" y="684" type="curve"/>
      <point x="114" y="702"/>
      <point x="129" y="723"/>
      <point x="158" y="723" type="curve"/>
      <point x="189" y="723"/>
      <point x="204" y="698"/>
      <point x="204" y="665" type="curve"/>
      <point x="204" y="580"/>
      <point x="204" y="512"/>
      <point x="204" y="428" type="curve"/>
      <point x="246" y="428"/>
      <point x="212" y="428"/>
    </contour>
    <contour>
      <point x="230" y="428" type="curve"/>
      <point x="250" y="428"/>
      <point x="265" y="428"/>
      <point x="285" y="428" type="curve"/>
      <point x="285" y="462"/>
      <point x="285" y="436"/>
      <point x="285" y="470" type="curve"/>
      <point x="244" y="470"/>
      <point x="271" y="470"/>
      <point x="230" y="470" type="curve"/>
      <point x="230" y="436"/>
      <point x="230" y="462"/>
    </contour>
    <contour>
      <point x="228" y="639" type="curve"/>
      <point x="200" y="633"/>
      <point x="181" y="630"/>
      <point x="153" y="624" type="curve"/>
      <point x="98" y="613"/>
      <point x="63" y="581"/>
      <point x="63" y="524" type="curve"/>
      <point x="63" y="467"/>
      <point x="90" y="427"/>
      <point x="146" y="427" type="curve"/>
      <point x="198" y="427"/>
      <point x="217" y="471"/>
      <point x="243" y="513" type="curve"/>
      <point x="221" y="531"/>
      <point x="238" y="517"/>
      <point x="217" y="536" type="curve"/>
      <point x="202" y="500"/>
      <point x="193" y="469"/>
      <point x="159" y="469" type="curve"/>
      <point x="126" y="469"/>
      <point x="113" y="494"/>
      <point x="113" y="527" type="curve"/>
      <point x="113" y="558"/>
      <point x="129" y="581"/>
      <point x="154" y="587" type="curve"/>
      <point x="184" y="593"/>
      <point x="200" y="596"/>
      <point x="230" y="603" type="curve"/>
      <point x="229" y="632"/>
      <point x="230" y="610"/>
    </contour>
  </outline>
</glyph>
<glyph name="guillemotleft" format="1">
  <advance width="445"/>
  <unicode hex="00AB"/>
  <outline>
    <contour>
      <point x="215" y="438" type="curve"/>
      <point x="200" y="423"/>
      <point x="76" y="333"/>
      <point x="60" y="318" type="curve"/>
      <point x="60" y="253"/>
      <point x="60" y="308"/>
      <point x="60" y="243" type="curve"/>
      <point x="76" y="258"/>
      <point x="200" y="354"/>
      <point x="215" y="369" type="curve"/>
      <point x="215" y="433"/>
      <point x="215" y="374"/>
    </contour>
    <contour>
      <point x="216" y="193" type="curve"/>
      <point x="200" y="208"/>
      <point x="76" y="303"/>
      <point x="60" y="318" type="curve"/>
      <point x="60" y="253"/>
      <point x="60" y="308"/>
      <point x="60" y="243" type="curve"/>
      <point x="76" y="229"/>
      <point x="200" y="139"/>
      <point x="216" y="125" type="curve"/>
      <point x="216" y="189"/>
      <point x="216" y="130"/>
    </contour>
    <contour>
      <point x="363" y="438" type="curve"/>
      <point x="348" y="423"/>
      <point x="224" y="333"/>
      <point x="208" y="318" type="curve"/>
      <point x="208" y="253"/>
      <point x="208" y="308"/>
      <point x="208" y="243" type="curve"/>
      <point x="224" y="258"/>
      <point x="348" y="354"/>
      <point x="363" y="369" type="curve"/>
      <point x="363" y="433"/>
      <point x="363" y="374"/>
    </contour>
    <contour>
      <point x="364" y="193" type="curve"/>
      <point x="348" y="208"/>
      <point x="224" y="303"/>
      <point x="208" y="318" type="curve"/>
      <point x="208" y="253"/>
      <point x="208" y="308"/>
      <point x="208" y="243" type="curve"/>
      <point x="224" y="229"/>
      <point x="348" y="139"/>
      <point x="364" y="125" type="curve"/>
      <point x="364" y="189"/>
      <point x="364" y="130"/>
    </contour>
  </outline>
</glyph>
<glyph name="logicalnot" format="1">
  <advance width="544"/>
  <unicode hex="00AC"/>
  <outline>
    <contour>
      <point x="90" y="280" type="curve"/>
      <point x="468" y="280" type="line"/>
      <point x="468" y="344"/>
      <point x="468" y="280"/>
      <point x="468" y="344" type="curve"/>
      <point x="90" y="344" type="line"/>
      <point x="90" y="280"/>
      <point x="90" y="344"/>
    </contour>
    <contour>
      <point x="468" y="147" type="curve"/>
      <point x="468" y="344" type="line"/>
      <point x="395" y="344"/>
      <point x="467" y="344"/>
      <point x="395" y="344" type="curve"/>
      <point x="395" y="147" type="line"/>
      <point x="467" y="147"/>
      <point x="395" y="147"/>
    </contour>
  </outline>
</glyph>
<glyph name="registered" format="1">
  <advance width="568"/>
  <unicode hex="00AE"/>
  <outline>
    <contour>
      <point x="111" y="320" type="curve"/>
      <point x="111" y="469"/>
      <point x="156" y="600"/>
      <point x="287" y="600" type="curve"/>
      <point x="415" y="600"/>
      <point x="458" y="468"/>
      <point x="458" y="319" type="curve"/>
      <point x="458" y="173"/>
      <point x="417" y="44"/>
      <point x="291" y="44" type="curve"/>
      <point x="162" y="44"/>
      <point x="111" y="171"/>
      <point x="111" y="320" type="curve"/>
      <point x="82" y="320"/>
      <point x="87" y="320"/>
      <point x="58" y="320" type="curve"/>
      <point x="58" y="144"/>
      <point x="130" y="-1"/>
      <point x="289" y="-1" type="curve"/>
      <point x="446" y="-1"/>
      <point x="510" y="145"/>
      <point x="510" y="321" type="curve"/>
      <point x="510" y="498"/>
      <point x="444" y="645"/>
      <point x="287" y="645" type="curve"/>
      <point x="127" y="645"/>
      <point x="58" y="498"/>
      <point x="58" y="320" type="curve"/>
      <point x="87" y="320"/>
      <point x="82" y="320"/>
    </contour>
    <contour>
      <point x="342" y="146" type="curve"/>
      <point x="364" y="146"/>
      <point x="374" y="146"/>
      <point x="397" y="146" type="curve"/>
      <point x="397" y="195"/>
      <point x="397" y="146"/>
      <point x="397" y="195" type="curve"/>
      <point x="389" y="195"/>
      <point x="383" y="195"/>
      <point x="375" y="195" type="curve"/>
      <point x="330" y="146"/>
      <point x="387" y="195"/>
    </contour>
    <contour>
      <point x="269" y="498" type="curve"/>
      <point x="240" y="498"/>
      <point x="211" y="498"/>
      <point x="182" y="498" type="curve"/>
      <point x="182" y="449"/>
      <point x="182" y="498"/>
      <point x="182" y="449" type="curve"/>
      <point x="191" y="449"/>
      <point x="200" y="449"/>
      <point x="207" y="449" type="curve"/>
      <point x="269" y="498"/>
      <point x="207" y="449"/>
    </contour>
    <contour>
      <point x="269" y="194" type="curve"/>
      <point x="240" y="194"/>
      <point x="211" y="194"/>
      <point x="182" y="194" type="curve"/>
      <point x="182" y="146"/>
      <point x="182" y="194"/>
      <point x="182" y="146" type="curve"/>
      <point x="191" y="146"/>
      <point x="200" y="146"/>
      <point x="207" y="146" type="curve"/>
      <point x="269" y="194"/>
      <point x="207" y="146"/>
    </contour>
    <contour>
      <point x="207" y="146" type="curve"/>
      <point x="234" y="146"/>
      <point x="260" y="146"/>
      <point x="287" y="146" type="curve"/>
      <point x="287" y="195"/>
      <point x="287" y="146"/>
      <point x="287" y="195" type="curve"/>
      <point x="281" y="195"/>
      <point x="275" y="195"/>
      <point x="269" y="195" type="curve"/>
      <point x="207" y="146"/>
      <point x="269" y="195"/>
    </contour>
    <contour>
      <point x="274" y="314" type="curve"/>
      <point x="281" y="287"/>
      <point x="334" y="173"/>
      <point x="342" y="146" type="curve"/>
      <point x="387" y="195"/>
      <point x="330" y="146"/>
      <point x="375" y="195" type="curve"/>
      <point x="368" y="219"/>
      <point x="337" y="285"/>
      <point x="329" y="311" type="curve"/>
      <point x="256" y="310"/>
      <point x="347" y="315"/>
    </contour>
    <contour>
      <point x="263" y="194" type="curve"/>
      <point x="263" y="296"/>
      <point x="263" y="397"/>
      <point x="263" y="498" type="curve"/>
      <point x="201" y="449"/>
      <point x="269" y="498"/>
      <point x="207" y="449" type="curve"/>
      <point x="207" y="347"/>
      <point x="207" y="246"/>
      <point x="207" y="146" type="curve"/>
      <point x="269" y="194"/>
      <point x="201" y="146"/>
    </contour>
    <contour>
      <point x="240" y="284" type="curve"/>
      <point x="251" y="284"/>
      <point x="264" y="284"/>
      <point x="276" y="284" type="curve"/>
      <point x="339" y="284"/>
      <point x="374" y="324"/>
      <point x="374" y="392" type="curve"/>
      <point x="374" y="453"/>
      <point x="345" y="498"/>
      <point x="288" y="498" type="curve"/>
      <point x="282" y="498"/>
      <point x="275" y="498"/>
      <point x="269" y="498" type="curve"/>
      <point x="207" y="449"/>
      <point x="269" y="498"/>
      <point x="207" y="449" type="curve"/>
      <point x="230" y="449"/>
      <point x="254" y="449"/>
      <point x="277" y="449" type="curve"/>
      <point x="307" y="449"/>
      <point x="320" y="423"/>
      <point x="320" y="389" type="curve"/>
      <point x="320" y="358"/>
      <point x="311" y="334"/>
      <point x="285" y="334" type="curve"/>
      <point x="269" y="334"/>
      <point x="254" y="334"/>
      <point x="240" y="334" type="curve"/>
      <point x="240" y="284"/>
      <point x="240" y="334"/>
    </contour>
  </outline>
</glyph>
<glyph name="macron" format="1">
  <advance width="244"/>
  <unicode hex="00AF"/>
  <outline>
    <contour>
      <point x="167" y="684" type="curve"/>
      <point x="120" y="684"/>
      <point x="72" y="684"/>
      <point x="25" y="684" type="curve"/>
      <point x="25" y="626"/>
      <point x="25" y="684"/>
      <point x="25" y="626" type="curve"/>
      <point x="72" y="626"/>
      <point x="120" y="626"/>
      <point x="167" y="626" type="curve"/>
      <point x="167" y="684"/>
      <point x="167" y="626"/>
    </contour>
    <contour>
      <point x="97" y="626" type="move" name="_top"/>
    </contour>
  </outline>
</glyph>
<glyph name="degree" format="1">
  <advance width="370"/>
  <unicode hex="00B0"/>
  <outline>
    <contour>
      <point x="308" y="521" type="curve"/>
      <point x="308" y="626"/>
      <point x="277" y="709"/>
      <point x="183" y="709" type="curve"/>
      <point x="91" y="709"/>
      <point x="61" y="626"/>
      <point x="61" y="522" type="curve"/>
      <point x="87" y="522"/>
      <point x="96" y="522"/>
      <point x="121" y="522" type="curve"/>
      <point x="121" y="592"/>
      <point x="124" y="655"/>
      <point x="182" y="655" type="curve"/>
      <point x="240" y="655"/>
      <point x="246" y="591"/>
      <point x="246" y="521" type="curve"/>
      <point x="246" y="449"/>
      <point x="244" y="384"/>
      <point x="184" y="384" type="curve"/>
      <point x="124" y="384"/>
      <point x="121" y="450"/>
      <point x="121" y="522" type="curve"/>
      <point x="96" y="522"/>
      <point x="87" y="522"/>
      <point x="61" y="522" type="curve"/>
      <point x="61" y="415"/>
      <point x="89" y="330"/>
      <point x="184" y="330" type="curve"/>
      <point x="279" y="330"/>
      <point x="308" y="415"/>
    </contour>
  </outline>
</glyph>
<glyph name="plusminus" format="1">
  <advance width="605"/>
  <unicode hex="00B1"/>
  <outline>
    <contour>
      <point x="64" y="36" type="line"/>
      <point x="542" y="36" type="line"/>
      <point x="542" y="100" type="line"/>
      <point x="64" y="100" type="line"/>
    </contour>
    <contour>
      <point x="64" y="280" type="curve"/>
      <point x="542" y="280" type="line"/>
      <point x="542" y="344"/>
      <point x="542" y="280"/>
      <point x="542" y="344" type="curve"/>
      <point x="64" y="344" type="line"/>
      <point x="64" y="280"/>
      <point x="64" y="344"/>
    </contour>
    <contour>
      <point x="337" y="37" type="curve"/>
      <point x="337" y="583" type="line"/>
      <point x="264" y="583"/>
      <point x="342" y="583"/>
      <point x="269" y="583" type="curve"/>
      <point x="269" y="37" type="line"/>
      <point x="342" y="37"/>
      <point x="264" y="37"/>
    </contour>
  </outline>
</glyph>
<glyph name="twosuperior" format="1">
  <advance width="366"/>
  <unicode hex="00B2"/>
  <outline>
    <contour>
      <point x="298" y="338" type="curve"/>
      <point x="298" y="379"/>
      <point x="298" y="399"/>
      <point x="298" y="441" type="curve"/>
      <point x="242" y="441"/>
      <point x="308" y="441"/>
      <point x="252" y="441" type="curve"/>
      <point x="252" y="416"/>
      <point x="252" y="411"/>
      <point x="252" y="386" type="curve"/>
      <point x="307" y="337"/>
      <point x="243" y="387"/>
    </contour>
    <contour>
      <point x="69" y="338" type="curve"/>
      <point x="140" y="338"/>
      <point x="228" y="338"/>
      <point x="298" y="338" type="curve"/>
      <point x="243" y="387"/>
      <point x="307" y="337"/>
      <point x="252" y="386" type="curve"/>
      <point x="194" y="386"/>
      <point x="127" y="386"/>
      <point x="69" y="386" type="curve"/>
      <point x="69" y="338"/>
      <point x="69" y="386"/>
    </contour>
    <contour>
      <point x="133" y="644" type="curve"/>
      <point x="141" y="678"/>
      <point x="151" y="710"/>
      <point x="185" y="710" type="curve"/>
      <point x="221" y="710"/>
      <point x="232" y="673"/>
      <point x="232" y="630" type="curve"/>
      <point x="232" y="588"/>
      <point x="213" y="562"/>
      <point x="188" y="528" type="curve"/>
      <point x="149" y="481"/>
      <point x="108" y="433"/>
      <point x="69" y="386" type="curve"/>
      <point x="75" y="337"/>
      <point x="69" y="386"/>
      <point x="75" y="337" type="curve"/>
      <point x="122" y="387"/>
      <point x="184" y="438"/>
      <point x="228" y="490" type="curve"/>
      <point x="263" y="536"/>
      <point x="288" y="573"/>
      <point x="288" y="633" type="curve"/>
      <point x="288" y="704"/>
      <point x="253" y="758"/>
      <point x="187" y="758" type="curve"/>
      <point x="134" y="758"/>
      <point x="102" y="727"/>
      <point x="88" y="659" type="curve"/>
      <point x="133" y="644"/>
      <point x="88" y="659"/>
    </contour>
    <contour>
      <point x="198" y="759" type="move" name="_top"/>
    </contour>
    <contour>
      <point x="175" y="337" type="move" name="_bottom"/>
    </contour>
  </outline>
</glyph>
<glyph name="threesuperior" format="1">
  <advance width="334"/>
  <unicode hex="00B3"/>
  <outline>
    <contour>
      <point x="107" y="672" type="curve"/>
      <point x="117" y="689"/>
      <point x="130" y="708"/>
      <point x="152" y="708" type="curve"/>
      <point x="185" y="708"/>
      <point x="200" y="678"/>
      <point x="200" y="639" type="curve"/>
      <point x="200" y="600"/>
      <point x="168" y="573"/>
      <point x="126" y="568" type="curve"/>
      <point x="126" y="527"/>
      <point x="126" y="568"/>
      <point x="126" y="527" type="curve"/>
      <point x="203" y="530"/>
      <point x="259" y="572"/>
      <point x="259" y="644" type="curve"/>
      <point x="259" y="711"/>
      <point x="223" y="756"/>
      <point x="158" y="756" type="curve" name=""/>
      <point x="120" y="756"/>
      <point x="87" y="733"/>
      <point x="69" y="701" type="curve"/>
      <point x="107" y="672"/>
      <point x="69" y="701"/>
    </contour>
    <contour>
      <point x="67" y="366" type="curve"/>
      <point x="90" y="345"/>
      <point x="116" y="332"/>
      <point x="147" y="332" type="curve"/>
      <point x="223" y="330"/>
      <point x="269" y="377"/>
      <point x="269" y="452" type="curve"/>
      <point x="269" y="525"/>
      <point x="206" y="557"/>
      <point x="126" y="561" type="curve"/>
      <point x="126" y="525"/>
      <point x="126" y="561"/>
      <point x="126" y="525" type="curve"/>
      <point x="176" y="520"/>
      <point x="209" y="492"/>
      <point x="209" y="449" type="curve"/>
      <point x="209" y="410"/>
      <point x="190" y="378"/>
      <point x="152" y="380" type="curve"/>
      <point x="131" y="380"/>
      <point x="113" y="388"/>
      <point x="98" y="402" type="curve"/>
      <point x="67" y="366"/>
      <point x="98" y="402"/>
    </contour>
    <contour>
      <point x="175" y="756" type="move" name="_top"/>
    </contour>
    <contour>
      <point x="166" y="332" type="move" name="_bottom"/>
    </contour>
  </outline>
</glyph>
<glyph name="acute" format="1">
  <advance width="272"/>
  <unicode hex="00B4"/>
  <outline>
    <contour>
      <point x="93" y="591" type="line"/>
      <point x="172" y="757" type="line"/>
      <point x="83" y="757" type="line"/>
      <point x="24" y="591" type="line"/>
    </contour>
    <contour>
      <point x="60" y="591" type="move" name="_top"/>
    </contour>
  </outline>
</glyph>
<glyph name="paragraph" format="1">
  <advance width="568"/>
  <unicode hex="00B6"/>
  <outline>
    <contour>
      <point x="304" y="663" type="curve"/>
      <point x="429" y="663"/>
      <point x="304" y="663"/>
      <point x="429" y="663" type="curve"/>
      <point x="429" y="722"/>
      <point x="429" y="663"/>
      <point x="429" y="722" type="curve"/>
      <point x="387" y="722"/>
      <point x="345" y="722"/>
      <point x="304" y="722" type="curve"/>
      <point x="304" y="663"/>
      <point x="304" y="722"/>
    </contour>
    <contour>
      <point x="304" y="0" type="curve"/>
      <point x="345" y="0"/>
      <point x="387" y="0"/>
      <point x="429" y="0" type="curve"/>
      <point x="429" y="59"/>
      <point x="429" y="0"/>
      <point x="429" y="59" type="curve"/>
      <point x="304" y="59"/>
      <point x="429" y="59"/>
      <point x="304" y="59" type="curve"/>
      <point x="304" y="0"/>
      <point x="304" y="59"/>
    </contour>
    <contour>
      <point x="304" y="59" type="curve"/>
      <point x="199" y="59"/>
      <point x="304" y="59"/>
      <point x="199" y="59" type="curve"/>
      <point x="199" y="0"/>
      <point x="199" y="59"/>
      <point x="199" y="0" type="curve"/>
      <point x="304" y="0"/>
      <point x="269" y="0"/>
      <point x="304" y="0" type="curve"/>
      <point x="304" y="59"/>
      <point x="304" y="0"/>
    </contour>
    <contour>
      <point x="292" y="364" type="curve"/>
      <point x="263" y="341"/>
      <point x="240" y="326"/>
      <point x="203" y="326" type="curve"/>
      <point x="133" y="326"/>
      <point x="113" y="401"/>
      <point x="113" y="485" type="curve"/>
      <point x="113" y="580"/>
      <point x="144" y="663"/>
      <point x="227" y="663" type="curve"/>
      <point x="253" y="663"/>
      <point x="277" y="663"/>
      <point x="302" y="663" type="curve"/>
      <point x="302" y="722"/>
      <point x="302" y="663"/>
      <point x="302" y="722" type="curve"/>
      <point x="274" y="722"/>
      <point x="246" y="722"/>
      <point x="218" y="722" type="curve"/>
      <point x="99" y="722"/>
      <point x="40" y="617"/>
      <point x="40" y="488" type="curve"/>
      <point x="40" y="360"/>
      <point x="95" y="271"/>
      <point x="209" y="269" type="curve"/>
      <point x="250" y="269"/>
      <point x="284" y="290"/>
      <point x="315" y="314" type="curve"/>
      <point x="292" y="363"/>
      <point x="314" y="316"/>
    </contour>
    <contour>
      <point x="341" y="0" type="curve"/>
      <point x="341" y="241"/>
      <point x="341" y="481"/>
      <point x="341" y="722" type="curve"/>
      <point x="268" y="722"/>
      <point x="341" y="722"/>
      <point x="268" y="722" type="curve"/>
      <point x="268" y="481"/>
      <point x="268" y="241"/>
      <point x="268" y="0" type="curve"/>
      <point x="341" y="0"/>
      <point x="268" y="0"/>
    </contour>
    <contour>
      <point x="490" y="0" type="curve"/>
      <point x="490" y="241"/>
      <point x="490" y="481"/>
      <point x="490" y="722" type="curve"/>
      <point x="417" y="722"/>
      <point x="490" y="722"/>
      <point x="417" y="722" type="curve"/>
      <point x="417" y="481"/>
      <point x="417" y="241"/>
      <point x="417" y="0" type="curve"/>
      <point x="490" y="0"/>
      <point x="417" y="0"/>
    </contour>
  </outline>
</glyph>
<glyph name="periodcentered" format="1">
  <advance width="219"/>
  <unicode hex="00B7"/>
  <outline>
    <contour>
      <point x="149" y="440" type="curve"/>
      <point x="149" y="466"/>
      <point x="133" y="480"/>
      <point x="109" y="480" type="curve"/>
      <point x="85" y="480"/>
      <point x="70" y="465"/>
      <point x="70" y="440" type="curve"/>
      <point x="152" y="440"/>
      <point x="68" y="440"/>
      <point x="149" y="440" type="curve"/>
      <point x="149" y="413"/>
      <point x="133" y="401"/>
      <point x="109" y="401" type="curve"/>
      <point x="84" y="401"/>
      <point x="70" y="414"/>
      <point x="70" y="440" type="curve"/>
      <point x="152" y="440"/>
      <point x="68" y="440"/>
    </contour>
  </outline>
</glyph>
<glyph name="cedilla" format="1">
  <advance width="296"/>
  <unicode hex="00B8"/>
  <outline>
    <contour>
      <point x="101" y="79" type="curve"/>
      <point x="91" y="54"/>
      <point x="72" y="-1"/>
      <point x="64" y="-26" type="curve"/>
      <point x="114" y="-73"/>
      <point x="64" y="-26"/>
      <point x="114" y="-73" type="curve"/>
      <point x="123" y="-46"/>
      <point x="147" y="11"/>
      <point x="157" y="38" type="curve"/>
      <point x="101" y="79"/>
      <point x="157" y="38"/>
    </contour>
    <contour>
      <point x="114" y="-73" type="curve"/>
      <point x="120" y="-66"/>
      <point x="125" y="-62"/>
      <point x="134" y="-62" type="curve"/>
      <point x="151" y="-62"/>
      <point x="155" y="-79"/>
      <point x="155" y="-100" type="curve"/>
      <point x="155" y="-123"/>
      <point x="144" y="-139"/>
      <point x="123" y="-139" type="curve"/>
      <point x="106" y="-139"/>
      <point x="93" y="-135"/>
      <point x="82" y="-124" type="curve"/>
      <point x="52" y="-167"/>
      <point x="82" y="-124"/>
      <point x="52" y="-167" type="curve"/>
      <point x="72" y="-184"/>
      <point x="92" y="-191"/>
      <point x="119" y="-191" type="curve"/>
      <point x="171" y="-191"/>
      <point x="201" y="-154"/>
      <point x="201" y="-99" type="curve"/>
      <point x="201" y="-46"/>
      <point x="176" y="-6"/>
      <point x="127" y="-6" type="curve"/>
      <point x="102" y="-6"/>
      <point x="85" y="-11"/>
      <point x="64" y="-26" type="curve"/>
      <point x="114" y="-73"/>
      <point x="64" y="-26"/>
    </contour>
    <contour>
      <point x="155" y="38" type="move" name="_bottom"/>
    </contour>
  </outline>
</glyph>
<glyph name="onesuperior" format="1">
  <advance width="302"/>
  <unicode hex="00B9"/>
  <outline>
    <contour>
      <point x="143" y="338" type="curve"/>
      <point x="179" y="338"/>
      <point x="206" y="338"/>
      <point x="242" y="338" type="curve"/>
      <point x="242" y="386"/>
      <point x="242" y="338"/>
      <point x="242" y="387" type="curve"/>
      <point x="225" y="387"/>
      <point x="218" y="387"/>
      <point x="202" y="387" type="curve"/>
      <point x="143" y="338"/>
      <point x="202" y="386"/>
    </contour>
    <contour>
      <point x="201" y="387" type="curve"/>
      <point x="165" y="387"/>
      <point x="138" y="387"/>
      <point x="101" y="387" type="curve"/>
      <point x="101" y="338"/>
      <point x="101" y="386"/>
      <point x="101" y="338" type="curve"/>
      <point x="118" y="338"/>
      <point x="125" y="338"/>
      <point x="143" y="338" type="curve"/>
      <point x="201" y="386"/>
      <point x="143" y="338"/>
    </contour>
    <contour>
      <point x="98" y="613" type="line"/>
      <point x="200" y="743" type="line"/>
      <point x="143" y="748" type="line"/>
      <point x="60" y="648" type="line"/>
    </contour>
    <contour>
      <point x="201" y="387" type="curve"/>
      <point x="201" y="748" type="line"/>
      <point x="143" y="748" type="line"/>
      <point x="143" y="338" type="line"/>
      <point x="201" y="386"/>
      <point x="143" y="338"/>
    </contour>
    <contour>
      <point x="167" y="747" type="move" name="_top"/>
    </contour>
    <contour>
      <point x="173" y="341" type="move" name="_bottom"/>
    </contour>
  </outline>
</glyph>
<glyph name="ordmasculine" format="1">
  <advance width="334"/>
  <unicode hex="00BA"/>
  <outline>
    <contour>
      <point x="108" y="600" type="curve"/>
      <point x="108" y="664"/>
      <point x="114" y="722"/>
      <point x="167" y="722" type="curve"/>
      <point x="217" y="722"/>
      <point x="222" y="663"/>
      <point x="222" y="599" type="curve"/>
      <point x="222" y="529"/>
      <point x="218" y="467"/>
      <point x="171" y="467" type="curve"/>
      <point x="112" y="467"/>
      <point x="108" y="530"/>
      <point x="108" y="600" type="curve"/>
      <point x="100" y="600"/>
      <point x="68" y="600"/>
      <point x="60" y="600" type="curve"/>
      <point x="60" y="502"/>
      <point x="84" y="424"/>
      <point x="169" y="424" type="curve"/>
      <point x="248" y="424"/>
      <point x="273" y="501"/>
      <point x="273" y="599" type="curve"/>
      <point x="273" y="692"/>
      <point x="249" y="764"/>
      <point x="169" y="764" type="curve"/>
      <point x="85" y="764"/>
      <point x="60" y="692"/>
      <point x="60" y="600" type="curve"/>
      <point x="68" y="600"/>
      <point x="100" y="600"/>
    </contour>
  </outline>
</glyph>
<glyph name="guillemotright" format="1">
  <advance width="445"/>
  <unicode hex="00BB"/>
  <outline>
    <contour>
      <point x="230" y="438" type="curve"/>
      <point x="245" y="423"/>
      <point x="369" y="333"/>
      <point x="385" y="318" type="curve"/>
      <point x="385" y="253"/>
      <point x="385" y="308"/>
      <point x="385" y="243" type="curve"/>
      <point x="369" y="258"/>
      <point x="245" y="354"/>
      <point x="230" y="369" type="curve"/>
      <point x="230" y="433"/>
      <point x="230" y="374"/>
    </contour>
    <contour>
      <point x="229" y="193" type="curve"/>
      <point x="245" y="208"/>
      <point x="369" y="303"/>
      <point x="385" y="318" type="curve"/>
      <point x="385" y="253"/>
      <point x="385" y="308"/>
      <point x="385" y="243" type="curve"/>
      <point x="369" y="229"/>
      <point x="245" y="139"/>
      <point x="229" y="125" type="curve"/>
      <point x="229" y="189"/>
      <point x="229" y="130"/>
    </contour>
    <contour>
      <point x="82" y="438" type="curve"/>
      <point x="97" y="423"/>
      <point x="221" y="333"/>
      <point x="237" y="318" type="curve"/>
      <point x="237" y="253"/>
      <point x="237" y="308"/>
      <point x="237" y="243" type="curve"/>
      <point x="221" y="258"/>
      <point x="97" y="354"/>
      <point x="82" y="369" type="curve"/>
      <point x="82" y="433"/>
      <point x="82" y="374"/>
    </contour>
    <contour>
      <point x="81" y="193" type="curve"/>
      <point x="97" y="208"/>
      <point x="221" y="303"/>
      <point x="237" y="318" type="curve"/>
      <point x="237" y="253"/>
      <point x="237" y="308"/>
      <point x="237" y="243" type="curve"/>
      <point x="221" y="229"/>
      <point x="97" y="139"/>
      <point x="81" y="125" type="curve"/>
      <point x="81" y="189"/>
      <point x="81" y="130"/>
    </contour>
  </outline>
</glyph>
<glyph name="onequarter" format="1">
  <advance width="673"/>
  <unicode hex="00BC"/>
  <outline>
    <contour>
      <point x="234" y="-69" type="line"/>
      <point x="503" y="736" type="line"/>
      <point x="433" y="736" type="line"/>
      <point x="164" y="-69" type="line"/>
    </contour>
    <contour>
      <point x="121" y="328" type="curve"/>
      <point x="157" y="328"/>
      <point x="184" y="328"/>
      <point x="220" y="328" type="curve"/>
      <point x="220" y="377"/>
      <point x="220" y="329"/>
      <point x="220" y="377" type="curve"/>
      <point x="203" y="377"/>
      <point x="196" y="377"/>
      <point x="179" y="377" type="curve"/>
      <point x="121" y="329"/>
      <point x="179" y="377"/>
    </contour>
    <contour>
      <point x="179" y="377" type="curve"/>
      <point x="143" y="377"/>
      <point x="116" y="377"/>
      <point x="78" y="377" type="curve"/>
      <point x="78" y="329"/>
      <point x="78" y="377"/>
      <point x="78" y="328" type="curve"/>
      <point x="96" y="328"/>
      <point x="103" y="328"/>
      <point x="120" y="328" type="curve"/>
      <point x="179" y="377"/>
      <point x="120" y="329"/>
    </contour>
    <contour>
      <point x="76" y="604" type="line"/>
      <point x="178" y="734" type="line"/>
      <point x="120" y="739" type="line"/>
      <point x="38" y="639" type="line"/>
    </contour>
    <contour>
      <point x="179" y="377" type="curve"/>
      <point x="179" y="739" type="line"/>
      <point x="120" y="739" type="line"/>
      <point x="120" y="328" type="line"/>
      <point x="179" y="377"/>
      <point x="120" y="329"/>
    </contour>
    <contour>
      <point x="644" y="94" type="line"/>
      <point x="378" y="94" type="line"/>
      <point x="378" y="47" type="line"/>
      <point x="644" y="47" type="line"/>
    </contour>
    <contour>
      <point x="405" y="48" type="line"/>
      <point x="564" y="353" type="line"/>
      <point x="520" y="365" type="line"/>
      <point x="378" y="94" type="line"/>
    </contour>
    <contour>
      <point x="578" y="-63" type="line"/>
      <point x="578" y="365" type="line"/>
      <point x="520" y="365" type="line"/>
      <point x="520" y="-63" type="line"/>
    </contour>
    <contour>
      <point x="549" y="-21" type="line"/>
      <point x="470" y="-21" type="line"/>
      <point x="470" y="-64" type="line"/>
      <point x="549" y="-64" type="line"/>
    </contour>
    <contour>
      <point x="549" y="-64" type="line"/>
      <point x="629" y="-64" type="line"/>
      <point x="629" y="-21" type="line"/>
      <point x="549" y="-21" type="line"/>
    </contour>
  </outline>
</glyph>
